{"glyphs":{"0":{"ha":943,"x_min":83,"x_max":860,"o":"m 472 -19 q 675 45 588 -19 q 811 226 763 110 q 860 496 860 342 q 812 765 860 650 q 677 943 764 879 q 474 1007 590 1007 q 269 943 357 1007 q 132 764 181 879 q 83 494 83 649 q 132 225 83 340 q 269 45 181 110 q 472 -19 357 -19 m 474 104 q 285 209 354 104 q 215 494 215 314 q 285 779 215 675 q 474 883 354 883 q 660 779 593 883 q 728 492 728 675 q 660 208 728 311 q 474 104 593 104 "},"1":{"ha":735,"x_min":63,"x_max":554,"o":"m 488 -4 q 554 0 521 -4 l 554 965 q 510 997 540 986 q 450 1003 481 1007 q 265 885 357 942 q 63 767 174 829 q 118 658 71 706 q 244 724 169 682 q 422 835 319 767 l 422 0 q 488 -4 456 -4 "},"2":{"ha":836,"x_min":61,"x_max":788,"o":"m 96 -1 q 164 8 121 4 q 250 11 207 11 q 292 10 272 11 q 340 5 311 8 q 415 -6 368 1 q 501 -17 472 -14 q 551 -19 529 -19 q 695 -4 638 -19 q 788 35 753 11 q 747 142 788 101 q 655 113 708 125 q 554 101 601 101 q 499 104 532 101 q 422 113 467 107 q 367 119 385 117 q 341 122 349 121 q 327 124 333 124 q 306 124 321 124 q 294 124 300 124 q 436 242 365 178 q 568 376 507 307 q 693 556 654 475 q 732 719 732 636 q 693 873 732 807 q 585 976 654 939 q 422 1014 515 1014 q 260 978 333 1014 q 137 876 186 943 q 71 714 88 810 q 196 682 115 674 q 268 835 208 779 q 417 890 328 890 q 551 842 501 890 q 601 714 601 793 q 564 581 601 650 q 442 421 526 511 q 349 330 400 378 q 247 237 299 282 q 147 153 194 192 q 63 92 99 115 q 72 37 61 65 q 96 -1 82 8 "},"3":{"ha":800,"x_min":69,"x_max":717,"o":"m 393 -19 q 573 22 501 -19 q 681 127 644 64 q 717 256 717 190 q 675 403 717 338 q 560 504 633 468 q 661 613 632 550 q 690 738 690 675 q 656 872 690 808 q 555 974 621 935 q 393 1014 489 1014 q 245 983 310 1014 q 139 899 181 951 q 81 785 97 847 q 197 740 136 742 q 270 853 217 815 q 396 892 324 892 q 515 849 468 892 q 563 728 563 806 q 507 602 563 650 q 364 554 451 554 l 265 554 q 260 524 261 539 q 258 494 258 510 q 260 465 258 479 q 265 438 261 451 l 364 438 q 533 393 476 438 q 589 271 589 349 q 535 149 589 194 q 399 103 482 103 q 289 122 335 103 q 213 169 243 140 q 164 225 182 197 q 108 188 135 211 q 69 140 82 164 q 206 23 117 65 q 393 -19 296 -19 "},"4":{"ha":842,"x_min":69,"x_max":807,"o":"m 93 258 l 510 258 l 510 0 q 575 -4 542 -4 q 639 0 606 -4 l 639 258 l 800 258 q 805 288 803 274 q 807 317 807 303 q 800 374 807 343 l 639 374 l 639 654 q 575 658 606 658 q 510 654 542 658 l 510 374 l 211 374 l 476 965 q 430 997 463 982 q 365 1013 397 1013 l 69 349 q 76 302 69 331 q 93 258 83 274 "},"5":{"ha":767,"x_min":42,"x_max":690,"o":"m 353 -19 q 503 9 439 -19 q 608 84 567 38 q 670 186 650 131 q 690 297 690 242 q 651 455 690 385 q 540 565 613 525 q 365 606 467 606 q 310 603 336 606 q 263 597 285 601 l 306 871 l 638 871 q 645 905 643 882 q 645 951 647 928 q 638 989 643 975 l 207 989 l 129 532 q 161 492 143 511 q 200 458 179 474 q 263 476 225 468 q 353 485 301 485 q 477 457 432 485 q 542 386 522 429 q 561 297 561 343 q 506 159 561 215 q 360 103 451 103 q 258 122 301 103 q 184 169 214 140 q 136 225 154 197 q 81 188 107 211 q 42 146 54 165 q 124 56 74 93 q 234 0 174 19 q 353 -19 294 -19 "},"6":{"ha":824,"x_min":83,"x_max":754,"o":"m 438 -19 q 593 20 521 -19 q 710 132 665 60 q 754 301 754 204 q 719 440 754 374 q 617 550 685 507 q 447 593 549 593 q 364 581 408 593 q 279 547 319 569 q 213 489 239 524 q 275 785 211 678 q 450 893 339 893 q 550 865 506 893 q 621 776 594 838 q 678 795 650 779 q 724 833 707 811 q 613 969 683 925 q 458 1014 542 1014 q 261 949 346 1014 q 130 768 176 885 q 83 494 83 651 q 178 108 83 235 q 438 -19 274 -19 m 436 101 q 333 127 376 101 q 267 196 290 153 q 244 289 244 239 q 299 423 244 371 q 442 475 353 475 q 576 423 525 475 q 626 289 626 371 q 603 196 626 239 q 538 127 581 153 q 436 101 496 101 "},"7":{"ha":764,"x_min":49,"x_max":711,"o":"m 376 -15 l 707 882 q 704 941 711 910 q 676 989 697 972 l 61 989 q 61 871 49 932 l 568 871 l 258 28 q 376 -15 299 -12 "},"8":{"ha":811,"x_min":83,"x_max":728,"o":"m 406 -19 q 572 15 500 -19 q 686 112 644 50 q 728 251 728 174 q 678 397 728 329 q 539 513 629 464 l 522 522 q 685 768 685 622 q 649 896 685 840 q 551 983 614 951 q 406 1014 488 1014 q 260 983 324 1014 q 162 896 197 951 q 126 768 126 840 q 289 522 126 622 l 272 513 q 133 397 182 464 q 83 251 83 329 q 125 112 83 174 q 240 15 167 50 q 406 -19 313 -19 m 383 596 q 253 765 253 667 q 294 863 253 826 q 406 900 336 900 q 517 863 475 900 q 558 765 558 826 q 428 596 558 667 l 406 583 l 383 596 m 406 96 q 264 139 318 96 q 210 251 210 182 q 339 422 210 354 l 406 458 l 472 422 q 601 251 601 354 q 547 139 601 182 q 406 96 493 96 "},"9":{"ha":824,"x_min":69,"x_max":740,"o":"m 376 -19 q 558 33 475 -19 q 690 199 640 85 q 740 501 740 314 q 646 887 740 760 q 388 1014 551 1014 q 231 974 304 1014 q 114 863 158 935 q 69 692 69 790 q 105 547 69 617 q 209 431 140 476 q 378 386 278 386 q 460 399 417 386 q 544 438 504 413 q 611 501 585 464 q 579 265 611 353 q 494 140 547 178 q 376 101 442 101 q 276 130 321 101 q 203 221 231 158 q 143 206 175 218 q 92 172 111 193 q 210 26 133 71 q 376 -19 286 -19 m 382 504 q 247 560 299 504 q 196 701 196 617 q 248 837 196 781 q 389 893 300 893 q 526 836 474 893 q 579 696 579 779 q 526 560 579 615 q 382 504 472 504 "},"A":{"ha":999,"x_min":56,"x_max":943,"o":"m 168 -19 l 276 257 l 717 257 l 826 -19 q 894 -2 864 -14 q 943 29 925 10 l 551 1003 q 497 1013 532 1013 q 444 1003 467 1013 l 56 28 q 107 -4 76 7 q 168 -19 138 -15 m 324 376 l 496 814 l 669 376 l 324 376 "},"Á":{"ha":999,"x_min":56,"x_max":943,"o":"m 168 -19 l 276 257 l 717 257 l 826 -19 q 894 -2 864 -14 q 943 29 925 10 l 551 1003 q 497 1013 532 1013 q 444 1003 467 1013 l 56 28 q 107 -4 76 7 q 168 -19 138 -15 m 324 376 l 496 814 l 669 376 l 324 376 m 389 1101 q 514 1144 450 1117 q 631 1203 578 1172 q 711 1257 683 1233 q 646 1358 707 1319 q 567 1308 618 1336 q 458 1256 515 1281 q 350 1217 400 1232 q 359 1156 349 1186 q 389 1101 369 1125 "},"Ă":{"ha":999,"x_min":56,"x_max":943,"o":"m 168 -19 l 276 257 l 717 257 l 826 -19 q 894 -2 864 -14 q 943 29 925 10 l 551 1003 q 497 1013 532 1013 q 444 1003 467 1013 l 56 28 q 107 -4 76 7 q 168 -19 138 -15 m 324 376 l 496 814 l 669 376 l 324 376 m 346 1350 q 281 1349 313 1357 q 229 1318 249 1340 q 319 1160 249 1218 q 500 1101 390 1101 q 681 1160 610 1101 q 771 1318 753 1218 q 719 1349 751 1340 q 654 1350 688 1357 q 500 1219 621 1219 q 346 1350 379 1219 "},"Ắ":{"ha":999,"x_min":56,"x_max":943,"o":"m 168 -19 l 276 257 l 717 257 l 826 -19 q 894 -2 864 -14 q 943 29 925 10 l 551 1003 q 497 1013 532 1013 q 444 1003 467 1013 l 56 28 q 107 -4 76 7 q 168 -19 138 -15 m 324 376 l 496 814 l 669 376 l 324 376 m 583 1640 l 428 1449 q 464 1399 439 1421 q 519 1368 489 1378 l 681 1567 q 641 1615 668 1594 q 583 1640 614 1635 m 346 1350 q 281 1349 313 1357 q 229 1318 249 1340 q 319 1160 249 1218 q 500 1101 390 1101 q 681 1160 610 1101 q 771 1318 753 1218 q 719 1349 751 1340 q 654 1350 688 1357 q 500 1219 621 1219 q 346 1350 379 1219 "},"Ặ":{"ha":999,"x_min":56,"x_max":943,"o":"m 168 -19 l 276 257 l 717 257 l 826 -19 q 894 -2 864 -14 q 943 29 925 10 l 551 1003 q 497 1013 532 1013 q 444 1003 467 1013 l 56 28 q 107 -4 76 7 q 168 -19 138 -15 m 324 376 l 496 814 l 669 376 l 324 376 m 500 -393 q 567 -366 540 -393 q 594 -299 594 -339 q 568 -231 594 -257 q 500 -204 542 -204 q 433 -231 460 -204 q 406 -299 406 -257 q 433 -365 406 -337 q 500 -393 461 -393 m 346 1350 q 281 1349 313 1357 q 229 1318 249 1340 q 319 1160 249 1218 q 500 1101 390 1101 q 681 1160 610 1101 q 771 1318 753 1218 q 719 1349 751 1340 q 654 1350 688 1357 q 500 1219 621 1219 q 346 1350 379 1219 "},"Ằ":{"ha":999,"x_min":56,"x_max":943,"o":"m 168 -19 l 276 257 l 717 257 l 826 -19 q 894 -2 864 -14 q 943 29 925 10 l 551 1003 q 497 1013 532 1013 q 444 1003 467 1013 l 56 28 q 107 -4 76 7 q 168 -19 138 -15 m 324 376 l 496 814 l 669 376 l 324 376 m 429 1638 q 372 1612 399 1632 q 332 1564 344 1592 l 493 1365 q 549 1397 524 1375 q 585 1446 575 1418 l 429 1638 m 346 1350 q 281 1349 313 1357 q 229 1318 249 1340 q 319 1160 249 1218 q 500 1101 390 1101 q 681 1160 610 1101 q 771 1318 753 1218 q 719 1349 751 1340 q 654 1350 688 1357 q 500 1219 621 1219 q 346 1350 379 1219 "},"Ẳ":{"ha":999,"x_min":56,"x_max":943,"o":"m 168 -19 l 276 257 l 717 257 l 826 -19 q 894 -2 864 -14 q 943 29 925 10 l 551 1003 q 497 1013 532 1013 q 444 1003 467 1013 l 56 28 q 107 -4 76 7 q 168 -19 138 -15 m 324 376 l 496 814 l 669 376 l 324 376 m 453 1454 q 462 1400 453 1426 q 488 1356 471 1374 q 569 1390 531 1368 q 631 1446 607 1411 q 654 1528 654 1481 q 608 1631 654 1592 q 472 1671 563 1671 q 379 1662 421 1671 q 310 1638 338 1653 q 317 1581 308 1608 q 340 1536 326 1554 q 403 1555 371 1549 q 463 1561 436 1561 q 531 1517 531 1561 q 513 1482 531 1497 q 453 1454 496 1467 m 346 1350 q 281 1349 313 1357 q 229 1318 249 1340 q 319 1160 249 1218 q 500 1101 390 1101 q 681 1160 610 1101 q 771 1318 753 1218 q 719 1349 751 1340 q 654 1350 688 1357 q 500 1219 621 1219 q 346 1350 379 1219 "},"Ẵ":{"ha":999,"x_min":56,"x_max":943,"o":"m 168 -19 l 276 257 l 717 257 l 826 -19 q 894 -2 864 -14 q 943 29 925 10 l 551 1003 q 497 1013 532 1013 q 444 1003 467 1013 l 56 28 q 107 -4 76 7 q 168 -19 138 -15 m 324 376 l 496 814 l 669 376 l 324 376 m 625 1435 q 710 1468 676 1435 q 765 1563 743 1501 q 722 1595 747 1585 q 669 1606 697 1606 q 645 1565 657 1576 q 613 1553 633 1553 q 572 1560 593 1553 q 519 1582 551 1567 q 464 1605 493 1594 q 399 1615 435 1615 q 233 1489 283 1615 q 329 1446 268 1446 q 363 1487 344 1475 q 404 1499 382 1499 q 492 1474 433 1499 q 560 1447 526 1460 q 625 1435 593 1435 m 346 1350 q 281 1349 313 1357 q 229 1318 249 1340 q 319 1160 249 1218 q 500 1101 390 1101 q 681 1160 610 1101 q 771 1318 753 1218 q 719 1349 751 1340 q 654 1350 688 1357 q 500 1219 621 1219 q 346 1350 379 1219 "},"Â":{"ha":999,"x_min":56,"x_max":943,"o":"m 168 -19 l 276 257 l 717 257 l 826 -19 q 894 -2 864 -14 q 943 29 925 10 l 551 1003 q 497 1013 532 1013 q 444 1003 467 1013 l 56 28 q 107 -4 76 7 q 168 -19 138 -15 m 324 376 l 496 814 l 669 376 l 324 376 m 547 1351 q 450 1351 499 1364 q 375 1288 407 1314 q 313 1241 343 1261 q 249 1199 283 1221 q 308 1101 257 1136 q 500 1239 394 1140 q 596 1157 546 1193 q 689 1101 646 1121 q 749 1199 742 1138 q 690 1237 717 1219 q 632 1281 664 1254 q 547 1351 600 1307 "},"Ấ":{"ha":999,"x_min":56,"x_max":943,"o":"m 168 -19 l 276 257 l 717 257 l 826 -19 q 894 -2 864 -14 q 943 29 925 10 l 551 1003 q 497 1013 532 1013 q 444 1003 467 1013 l 56 28 q 107 -4 76 7 q 168 -19 138 -15 m 324 376 l 496 814 l 669 376 l 324 376 m 807 1582 l 651 1390 q 688 1341 663 1363 q 743 1310 713 1319 l 904 1508 q 865 1556 892 1536 q 807 1582 838 1576 m 547 1351 q 450 1351 499 1364 q 375 1288 407 1314 q 313 1241 343 1261 q 249 1199 283 1221 q 308 1101 257 1136 q 500 1239 394 1140 q 596 1157 546 1193 q 689 1101 646 1121 q 749 1199 742 1138 q 690 1237 717 1219 q 632 1281 664 1254 q 547 1351 600 1307 "},"Ậ":{"ha":999,"x_min":56,"x_max":943,"o":"m 168 -19 l 276 257 l 717 257 l 826 -19 q 894 -2 864 -14 q 943 29 925 10 l 551 1003 q 497 1013 532 1013 q 444 1003 467 1013 l 56 28 q 107 -4 76 7 q 168 -19 138 -15 m 324 376 l 496 814 l 669 376 l 324 376 m 500 -393 q 567 -366 540 -393 q 594 -299 594 -339 q 568 -231 594 -257 q 500 -204 542 -204 q 433 -231 460 -204 q 406 -299 406 -257 q 433 -365 406 -337 q 500 -393 461 -393 m 547 1351 q 450 1351 499 1364 q 375 1288 407 1314 q 313 1241 343 1261 q 249 1199 283 1221 q 308 1101 257 1136 q 500 1239 394 1140 q 596 1157 546 1193 q 689 1101 646 1121 q 749 1199 742 1138 q 690 1237 717 1219 q 632 1281 664 1254 q 547 1351 600 1307 "},"Ầ":{"ha":999,"x_min":56,"x_max":943,"o":"m 168 -19 l 276 257 l 717 257 l 826 -19 q 894 -2 864 -14 q 943 29 925 10 l 551 1003 q 497 1013 532 1013 q 444 1003 467 1013 l 56 28 q 107 -4 76 7 q 168 -19 138 -15 m 324 376 l 496 814 l 669 376 l 324 376 m 678 1582 q 620 1556 647 1576 q 581 1508 593 1536 l 742 1310 q 798 1341 772 1319 q 833 1390 824 1363 l 678 1582 m 547 1351 q 450 1351 499 1364 q 375 1288 407 1314 q 313 1241 343 1261 q 249 1199 283 1221 q 308 1101 257 1136 q 500 1239 394 1140 q 596 1157 546 1193 q 689 1101 646 1121 q 749 1199 742 1138 q 690 1237 717 1219 q 632 1281 664 1254 q 547 1351 600 1307 "},"Ẩ":{"ha":999,"x_min":56,"x_max":943,"o":"m 168 -19 l 276 257 l 717 257 l 826 -19 q 894 -2 864 -14 q 943 29 925 10 l 551 1003 q 497 1013 532 1013 q 444 1003 467 1013 l 56 28 q 107 -4 76 7 q 168 -19 138 -15 m 324 376 l 496 814 l 669 376 l 324 376 m 697 1392 q 706 1338 697 1364 q 732 1293 715 1311 q 813 1327 775 1306 q 875 1383 851 1349 q 899 1465 899 1418 q 853 1569 899 1529 q 717 1608 807 1608 q 624 1599 665 1608 q 554 1575 582 1590 q 562 1519 553 1546 q 585 1474 571 1492 q 648 1492 615 1486 q 707 1499 681 1499 q 775 1454 775 1499 q 758 1419 775 1435 q 697 1392 740 1404 m 547 1351 q 450 1351 499 1364 q 375 1288 407 1314 q 313 1241 343 1261 q 249 1199 283 1221 q 308 1101 257 1136 q 500 1239 394 1140 q 596 1157 546 1193 q 689 1101 646 1121 q 749 1199 742 1138 q 690 1237 717 1219 q 632 1281 664 1254 q 547 1351 600 1307 "},"Ẫ":{"ha":999,"x_min":56,"x_max":943,"o":"m 168 -19 l 276 257 l 717 257 l 826 -19 q 894 -2 864 -14 q 943 29 925 10 l 551 1003 q 497 1013 532 1013 q 444 1003 467 1013 l 56 28 q 107 -4 76 7 q 168 -19 138 -15 m 324 376 l 496 814 l 669 376 l 324 376 m 594 1439 q 681 1472 644 1439 q 740 1567 718 1506 q 650 1610 707 1610 q 620 1568 638 1579 q 583 1557 603 1557 q 555 1563 571 1557 q 511 1585 539 1569 q 465 1609 485 1600 q 414 1618 444 1618 q 322 1585 361 1618 q 260 1492 282 1553 q 350 1449 293 1449 q 381 1490 364 1478 q 417 1501 399 1501 q 445 1495 431 1501 q 494 1471 460 1489 q 550 1447 528 1454 q 594 1439 572 1439 m 547 1351 q 450 1351 499 1364 q 375 1288 407 1314 q 313 1241 343 1261 q 249 1199 283 1221 q 308 1101 257 1136 q 500 1239 394 1140 q 596 1157 546 1193 q 689 1101 646 1121 q 749 1199 742 1138 q 690 1237 717 1219 q 632 1281 664 1254 q 547 1351 600 1307 "},"Ä":{"ha":999,"x_min":56,"x_max":943,"o":"m 168 -19 l 276 257 l 717 257 l 826 -19 q 894 -2 864 -14 q 943 29 925 10 l 551 1003 q 497 1013 532 1013 q 444 1003 467 1013 l 56 28 q 107 -4 76 7 q 168 -19 138 -15 m 324 376 l 496 814 l 669 376 l 324 376 m 639 1129 q 701 1154 675 1129 q 726 1217 726 1179 q 701 1278 726 1253 q 639 1304 675 1304 q 577 1278 603 1304 q 551 1217 551 1253 q 577 1155 551 1181 q 639 1129 603 1129 m 351 1129 q 414 1154 388 1129 q 440 1217 440 1179 q 414 1278 440 1253 q 351 1304 388 1304 q 291 1278 317 1304 q 265 1217 265 1253 q 291 1155 265 1181 q 351 1129 317 1129 "},"Ạ":{"ha":999,"x_min":56,"x_max":943,"o":"m 168 -19 l 276 257 l 717 257 l 826 -19 q 894 -2 864 -14 q 943 29 925 10 l 551 1003 q 497 1013 532 1013 q 444 1003 467 1013 l 56 28 q 107 -4 76 7 q 168 -19 138 -15 m 324 376 l 496 814 l 669 376 l 324 376 m 500 -393 q 567 -366 540 -393 q 594 -299 594 -339 q 568 -231 594 -257 q 500 -204 542 -204 q 433 -231 460 -204 q 406 -299 406 -257 q 433 -365 406 -337 q 500 -393 461 -393 "},"À":{"ha":999,"x_min":56,"x_max":943,"o":"m 168 -19 l 276 257 l 717 257 l 826 -19 q 894 -2 864 -14 q 943 29 925 10 l 551 1003 q 497 1013 532 1013 q 444 1003 467 1013 l 56 28 q 107 -4 76 7 q 168 -19 138 -15 m 324 376 l 496 814 l 669 376 l 324 376 m 611 1101 q 641 1156 631 1125 q 650 1217 651 1186 q 542 1256 600 1232 q 434 1308 485 1281 q 354 1358 383 1336 q 289 1257 293 1319 q 369 1203 317 1233 q 486 1144 422 1172 q 611 1101 550 1117 "},"Ả":{"ha":999,"x_min":56,"x_max":943,"o":"m 168 -19 l 276 257 l 717 257 l 826 -19 q 894 -2 864 -14 q 943 29 925 10 l 551 1003 q 497 1013 532 1013 q 444 1003 467 1013 l 56 28 q 107 -4 76 7 q 168 -19 138 -15 m 324 376 l 496 814 l 669 376 l 324 376 m 453 1176 q 479 1078 450 1115 q 632 1140 576 1090 q 688 1256 688 1189 q 636 1356 688 1319 q 486 1393 585 1393 q 391 1383 435 1393 q 313 1360 347 1374 q 319 1301 311 1329 q 342 1256 328 1274 q 404 1272 369 1264 q 482 1281 439 1281 q 560 1246 560 1281 q 533 1208 560 1224 q 453 1176 506 1193 "},"Å":{"ha":999,"x_min":56,"x_max":943,"o":"m 168 -19 l 276 257 l 717 257 l 826 -19 q 894 -2 864 -14 q 943 29 925 10 l 551 1003 q 497 1013 532 1013 q 444 1003 467 1013 l 56 28 q 107 -4 76 7 q 168 -19 138 -15 m 324 376 l 496 814 l 669 376 l 324 376 m 500 1069 q 613 1116 568 1069 q 657 1231 657 1163 q 612 1345 657 1300 q 500 1390 567 1390 q 387 1344 432 1390 q 342 1231 342 1299 q 387 1116 342 1163 q 500 1069 432 1069 m 500 1171 q 458 1189 475 1171 q 440 1231 440 1207 q 458 1273 440 1256 q 500 1290 475 1290 q 542 1273 525 1290 q 560 1231 560 1256 q 542 1189 560 1207 q 500 1171 525 1171 "},"Ã":{"ha":999,"x_min":56,"x_max":943,"o":"m 168 -19 l 276 257 l 717 257 l 826 -19 q 894 -2 864 -14 q 943 29 925 10 l 551 1003 q 497 1013 532 1013 q 444 1003 467 1013 l 56 28 q 107 -4 76 7 q 168 -19 138 -15 m 324 376 l 496 814 l 669 376 l 324 376 m 601 1250 q 556 1263 579 1250 q 511 1286 532 1275 q 456 1312 483 1301 q 399 1322 429 1322 q 294 1282 339 1322 q 236 1178 249 1242 q 274 1153 251 1160 q 324 1146 297 1147 q 358 1194 343 1178 q 399 1210 374 1210 q 444 1198 419 1210 q 499 1171 469 1186 q 565 1142 543 1149 q 606 1136 588 1136 q 711 1177 669 1136 q 767 1282 753 1218 q 679 1314 736 1314 q 647 1266 661 1282 q 601 1250 632 1250 "},"Æ":{"ha":1339,"x_min":56,"x_max":1249,"o":"m 157 -12 l 326 257 l 717 257 l 717 0 l 1240 0 q 1249 63 1249 28 q 1240 121 1249 97 l 846 121 l 846 444 l 1214 444 q 1222 508 1221 474 q 1214 565 1222 542 l 846 565 l 846 882 l 1231 882 q 1239 942 1238 908 q 1231 1003 1240 976 l 657 1003 l 56 54 q 100 14 72 31 q 157 -12 128 -3 m 400 376 l 717 881 l 717 376 l 400 376 "},"B":{"ha":874,"x_min":139,"x_max":804,"o":"m 139 0 l 461 0 q 715 73 626 0 q 804 281 804 146 q 756 433 804 368 q 624 529 708 497 q 740 742 740 604 q 659 934 740 865 q 433 1003 578 1003 l 139 1003 l 139 0 m 264 563 l 264 883 l 424 883 q 614 724 614 883 q 566 605 614 647 q 431 563 518 563 l 264 563 m 264 119 l 264 449 l 479 449 q 626 406 575 449 q 678 282 678 364 q 628 158 678 197 q 476 119 579 119 l 264 119 "},"C":{"ha":971,"x_min":76,"x_max":919,"o":"m 531 -19 q 755 30 654 -19 q 919 174 856 79 q 881 218 908 196 q 826 249 853 240 q 703 143 771 181 q 542 106 635 106 q 360 153 435 106 q 248 288 286 201 q 210 489 210 374 q 251 703 210 611 q 368 846 293 794 q 542 897 443 897 q 679 867 615 897 q 793 771 743 836 q 849 806 821 779 q 885 857 878 832 q 740 978 829 935 q 542 1022 650 1022 q 300 954 406 1022 q 135 765 194 886 q 76 482 76 643 q 131 218 76 331 q 287 43 185 106 q 531 -19 389 -19 "},"Ç":{"ha":971,"x_min":76,"x_max":919,"o":"m 531 -19 q 755 30 654 -19 q 919 174 856 79 q 881 218 908 196 q 826 249 853 240 q 703 143 771 181 q 542 106 635 106 q 360 153 435 106 q 248 288 286 201 q 210 489 210 374 q 251 703 210 611 q 368 846 293 794 q 542 897 443 897 q 679 867 615 897 q 793 771 743 836 q 849 806 821 779 q 885 857 878 832 q 740 978 829 935 q 542 1022 650 1022 q 300 954 406 1022 q 135 765 194 886 q 76 482 76 643 q 131 218 76 331 q 287 43 185 106 q 531 -19 389 -19 m 513 -361 q 657 -321 603 -361 q 711 -212 711 -281 q 676 -124 711 -160 q 576 -74 640 -89 l 582 10 l 471 10 l 461 -147 q 594 -210 594 -157 q 572 -247 594 -235 q 508 -260 549 -260 q 465 -257 486 -260 q 428 -250 443 -254 q 413 -349 396 -293 q 459 -358 432 -354 q 513 -361 486 -361 "},"D":{"ha":996,"x_min":139,"x_max":919,"o":"m 139 0 l 372 0 q 776 133 632 0 q 919 507 919 265 q 855 776 919 665 q 670 944 790 886 q 382 1003 550 1003 l 140 1003 l 140 6 l 139 0 m 269 119 l 269 883 l 381 883 q 683 788 579 883 q 786 507 786 693 q 684 219 786 319 q 392 119 582 119 l 269 119 "},"Đ":{"ha":996,"x_min":13,"x_max":919,"o":"m 139 0 l 372 0 q 776 133 632 0 q 919 507 919 265 q 855 776 919 665 q 670 944 790 886 q 382 1003 550 1003 l 140 1003 l 140 567 l 24 567 q 13 507 13 543 q 24 444 13 471 l 140 444 l 140 6 l 139 0 m 269 119 l 269 444 l 494 444 q 506 507 506 471 q 494 567 506 543 l 269 567 l 269 883 l 381 883 q 683 788 579 883 q 786 507 786 693 q 684 219 786 319 q 392 119 582 119 l 269 119 "},"E":{"ha":831,"x_min":139,"x_max":740,"o":"m 139 0 l 732 0 q 740 63 740 28 q 732 121 740 97 l 268 121 l 268 444 l 692 444 q 699 508 699 474 q 692 565 700 542 l 268 565 l 268 882 l 722 882 q 731 942 729 908 q 722 1003 732 976 l 139 1003 l 139 0 "},"É":{"ha":831,"x_min":139,"x_max":740,"o":"m 139 0 l 732 0 q 740 63 740 28 q 732 121 740 97 l 268 121 l 268 444 l 692 444 q 699 508 699 474 q 692 565 700 542 l 268 565 l 268 882 l 722 882 q 731 942 729 908 q 722 1003 732 976 l 139 1003 l 139 0 m 331 1101 q 456 1144 392 1117 q 572 1203 519 1172 q 653 1257 625 1233 q 588 1358 649 1319 q 508 1308 560 1336 q 399 1256 457 1281 q 292 1217 342 1232 q 301 1156 290 1186 q 331 1101 311 1125 "},"Ĕ":{"ha":831,"x_min":139,"x_max":740,"o":"m 139 0 l 732 0 q 740 63 740 28 q 732 121 740 97 l 268 121 l 268 444 l 692 444 q 699 508 699 474 q 692 565 700 542 l 268 565 l 268 882 l 722 882 q 731 942 729 908 q 722 1003 732 976 l 139 1003 l 139 0 m 288 1350 q 222 1349 254 1357 q 171 1318 190 1340 q 261 1160 190 1218 q 442 1101 332 1101 q 623 1160 551 1101 q 713 1318 694 1218 q 661 1349 693 1340 q 596 1350 629 1357 q 442 1219 563 1219 q 288 1350 321 1219 "},"Ê":{"ha":831,"x_min":139,"x_max":740,"o":"m 139 0 l 732 0 q 740 63 740 28 q 732 121 740 97 l 268 121 l 268 444 l 692 444 q 699 508 699 474 q 692 565 700 542 l 268 565 l 268 882 l 722 882 q 731 942 729 908 q 722 1003 732 976 l 139 1003 l 139 0 m 489 1351 q 392 1351 440 1364 q 317 1288 349 1314 q 255 1241 285 1261 q 190 1199 225 1221 q 250 1101 199 1136 q 442 1239 336 1140 q 538 1157 488 1193 q 631 1101 588 1121 q 690 1199 683 1138 q 632 1237 658 1219 q 574 1281 606 1254 q 489 1351 542 1307 "},"Ế":{"ha":831,"x_min":139,"x_max":846,"o":"m 139 0 l 732 0 q 740 63 740 28 q 732 121 740 97 l 268 121 l 268 444 l 692 444 q 699 508 699 474 q 692 565 700 542 l 268 565 l 268 882 l 722 882 q 731 942 729 908 q 722 1003 732 976 l 139 1003 l 139 0 m 749 1582 l 593 1390 q 629 1341 604 1363 q 685 1310 654 1319 l 846 1508 q 806 1556 833 1536 q 749 1582 779 1576 m 489 1351 q 392 1351 440 1364 q 317 1288 349 1314 q 255 1241 285 1261 q 190 1199 225 1221 q 250 1101 199 1136 q 442 1239 336 1140 q 538 1157 488 1193 q 631 1101 588 1121 q 690 1199 683 1138 q 632 1237 658 1219 q 574 1281 606 1254 q 489 1351 542 1307 "},"Ệ":{"ha":831,"x_min":139,"x_max":740,"o":"m 139 0 l 732 0 q 740 63 740 28 q 732 121 740 97 l 268 121 l 268 444 l 692 444 q 699 508 699 474 q 692 565 700 542 l 268 565 l 268 882 l 722 882 q 731 942 729 908 q 722 1003 732 976 l 139 1003 l 139 0 m 442 -393 q 509 -366 482 -393 q 536 -299 536 -339 q 510 -231 536 -257 q 442 -204 483 -204 q 374 -231 401 -204 q 347 -299 347 -257 q 375 -365 347 -337 q 442 -393 403 -393 m 489 1351 q 392 1351 440 1364 q 317 1288 349 1314 q 255 1241 285 1261 q 190 1199 225 1221 q 250 1101 199 1136 q 442 1239 336 1140 q 538 1157 488 1193 q 631 1101 588 1121 q 690 1199 683 1138 q 632 1237 658 1219 q 574 1281 606 1254 q 489 1351 542 1307 "},"Ề":{"ha":831,"x_min":139,"x_max":775,"o":"m 139 0 l 732 0 q 740 63 740 28 q 732 121 740 97 l 268 121 l 268 444 l 692 444 q 699 508 699 474 q 692 565 700 542 l 268 565 l 268 882 l 722 882 q 731 942 729 908 q 722 1003 732 976 l 139 1003 l 139 0 m 619 1582 q 562 1556 589 1576 q 522 1508 535 1536 l 683 1310 q 740 1341 714 1319 q 775 1390 765 1363 l 619 1582 m 489 1351 q 392 1351 440 1364 q 317 1288 349 1314 q 255 1241 285 1261 q 190 1199 225 1221 q 250 1101 199 1136 q 442 1239 336 1140 q 538 1157 488 1193 q 631 1101 588 1121 q 690 1199 683 1138 q 632 1237 658 1219 q 574 1281 606 1254 q 489 1351 542 1307 "},"Ể":{"ha":831,"x_min":139,"x_max":840,"o":"m 139 0 l 732 0 q 740 63 740 28 q 732 121 740 97 l 268 121 l 268 444 l 692 444 q 699 508 699 474 q 692 565 700 542 l 268 565 l 268 882 l 722 882 q 731 942 729 908 q 722 1003 732 976 l 139 1003 l 139 0 m 639 1392 q 648 1338 639 1364 q 674 1293 657 1311 q 755 1327 717 1306 q 817 1383 793 1349 q 840 1465 840 1418 q 794 1569 840 1529 q 658 1608 749 1608 q 565 1599 607 1608 q 496 1575 524 1590 q 503 1519 494 1546 q 526 1474 513 1492 q 590 1492 557 1486 q 649 1499 622 1499 q 717 1454 717 1499 q 699 1419 717 1435 q 639 1392 682 1404 m 489 1351 q 392 1351 440 1364 q 317 1288 349 1314 q 255 1241 285 1261 q 190 1199 225 1221 q 250 1101 199 1136 q 442 1239 336 1140 q 538 1157 488 1193 q 631 1101 588 1121 q 690 1199 683 1138 q 632 1237 658 1219 q 574 1281 606 1254 q 489 1351 542 1307 "},"Ễ":{"ha":831,"x_min":139,"x_max":740,"o":"m 139 0 l 732 0 q 740 63 740 28 q 732 121 740 97 l 268 121 l 268 444 l 692 444 q 699 508 699 474 q 692 565 700 542 l 268 565 l 268 882 l 722 882 q 731 942 729 908 q 722 1003 732 976 l 139 1003 l 139 0 m 536 1439 q 623 1472 586 1439 q 682 1567 660 1506 q 592 1610 649 1610 q 562 1568 579 1579 q 525 1557 544 1557 q 497 1563 513 1557 q 453 1585 481 1569 q 406 1609 426 1600 q 356 1618 386 1618 q 263 1585 303 1618 q 201 1492 224 1553 q 292 1449 235 1449 q 323 1490 306 1478 q 358 1501 340 1501 q 387 1495 372 1501 q 436 1471 401 1489 q 492 1447 469 1454 q 536 1439 514 1439 m 489 1351 q 392 1351 440 1364 q 317 1288 349 1314 q 255 1241 285 1261 q 190 1199 225 1221 q 250 1101 199 1136 q 442 1239 336 1140 q 538 1157 488 1193 q 631 1101 588 1121 q 690 1199 683 1138 q 632 1237 658 1219 q 574 1281 606 1254 q 489 1351 542 1307 "},"Ë":{"ha":831,"x_min":139,"x_max":740,"o":"m 139 0 l 732 0 q 740 63 740 28 q 732 121 740 97 l 268 121 l 268 444 l 692 444 q 699 508 699 474 q 692 565 700 542 l 268 565 l 268 882 l 722 882 q 731 942 729 908 q 722 1003 732 976 l 139 1003 l 139 0 m 581 1129 q 642 1154 617 1129 q 668 1217 668 1179 q 642 1278 668 1253 q 581 1304 617 1304 q 519 1278 544 1304 q 493 1217 493 1253 q 519 1155 493 1181 q 581 1129 544 1129 m 293 1129 q 356 1154 329 1129 q 382 1217 382 1179 q 356 1278 382 1253 q 293 1304 329 1304 q 233 1278 258 1304 q 207 1217 207 1253 q 233 1155 207 1181 q 293 1129 258 1129 "},"Ẹ":{"ha":831,"x_min":139,"x_max":740,"o":"m 139 0 l 732 0 q 740 63 740 28 q 732 121 740 97 l 268 121 l 268 444 l 692 444 q 699 508 699 474 q 692 565 700 542 l 268 565 l 268 882 l 722 882 q 731 942 729 908 q 722 1003 732 976 l 139 1003 l 139 0 m 442 -393 q 509 -366 482 -393 q 536 -299 536 -339 q 510 -231 536 -257 q 442 -204 483 -204 q 374 -231 401 -204 q 347 -299 347 -257 q 375 -365 347 -337 q 442 -393 403 -393 "},"È":{"ha":831,"x_min":139,"x_max":740,"o":"m 139 0 l 732 0 q 740 63 740 28 q 732 121 740 97 l 268 121 l 268 444 l 692 444 q 699 508 699 474 q 692 565 700 542 l 268 565 l 268 882 l 722 882 q 731 942 729 908 q 722 1003 732 976 l 139 1003 l 139 0 m 553 1101 q 583 1156 572 1125 q 592 1217 593 1186 q 484 1256 542 1232 q 376 1308 426 1281 q 296 1358 325 1336 q 231 1257 235 1319 q 311 1203 258 1233 q 428 1144 364 1172 q 553 1101 492 1117 "},"Ẻ":{"ha":831,"x_min":139,"x_max":740,"o":"m 139 0 l 732 0 q 740 63 740 28 q 732 121 740 97 l 268 121 l 268 444 l 692 444 q 699 508 699 474 q 692 565 700 542 l 268 565 l 268 882 l 722 882 q 731 942 729 908 q 722 1003 732 976 l 139 1003 l 139 0 m 394 1176 q 421 1078 392 1115 q 574 1140 518 1090 q 629 1256 629 1189 q 578 1356 629 1319 q 428 1393 526 1393 q 333 1383 376 1393 q 254 1360 289 1374 q 261 1301 253 1329 q 283 1256 269 1274 q 346 1272 311 1264 q 424 1281 381 1281 q 501 1246 501 1281 q 474 1208 501 1224 q 394 1176 447 1193 "},"Ẽ":{"ha":831,"x_min":139,"x_max":740,"o":"m 139 0 l 732 0 q 740 63 740 28 q 732 121 740 97 l 268 121 l 268 444 l 692 444 q 699 508 699 474 q 692 565 700 542 l 268 565 l 268 882 l 722 882 q 731 942 729 908 q 722 1003 732 976 l 139 1003 l 139 0 m 543 1250 q 497 1263 521 1250 q 453 1286 474 1275 q 398 1312 425 1301 q 340 1322 371 1322 q 235 1282 281 1322 q 178 1178 190 1242 q 216 1153 193 1160 q 265 1146 239 1147 q 300 1194 285 1178 q 340 1210 315 1210 q 386 1198 361 1210 q 440 1171 411 1186 q 507 1142 485 1149 q 547 1136 529 1136 q 653 1177 611 1136 q 708 1282 694 1218 q 621 1314 678 1314 q 588 1266 603 1282 q 543 1250 574 1250 "},"F":{"ha":808,"x_min":139,"x_max":732,"o":"m 203 -6 q 236 -4 219 -6 q 268 0 253 -3 l 268 450 l 679 450 q 679 571 694 510 l 268 571 l 268 882 l 724 882 q 732 943 732 908 q 724 1003 732 978 l 139 1003 l 139 0 q 172 -4 156 -3 q 203 -6 188 -6 "},"G":{"ha":1032,"x_min":76,"x_max":949,"o":"m 536 -19 q 753 33 661 -19 q 897 182 846 86 q 949 407 949 278 q 944 491 949 447 q 935 546 940 535 l 496 546 q 486 508 489 532 q 486 462 483 485 q 496 426 489 439 l 819 426 q 821 394 821 413 q 785 242 821 307 q 684 140 749 176 q 533 104 619 104 q 360 153 433 104 q 248 293 288 203 q 208 506 208 383 q 298 795 208 692 q 550 899 388 899 q 803 807 693 899 q 872 907 860 851 q 733 992 818 963 q 549 1022 647 1022 q 298 958 404 1022 q 134 778 192 894 q 76 501 76 661 q 133 226 76 343 q 294 45 190 110 q 536 -19 397 -19 "},"Ğ":{"ha":1032,"x_min":76,"x_max":949,"o":"m 536 -19 q 753 33 661 -19 q 897 182 846 86 q 949 407 949 278 q 944 491 949 447 q 935 546 940 535 l 496 546 q 486 508 489 532 q 486 462 483 485 q 496 426 489 439 l 819 426 q 821 394 821 413 q 785 242 821 307 q 684 140 749 176 q 533 104 619 104 q 360 153 433 104 q 248 293 288 203 q 208 506 208 383 q 298 795 208 692 q 550 899 388 899 q 803 807 693 899 q 872 907 860 851 q 733 992 818 963 q 549 1022 647 1022 q 298 958 404 1022 q 134 778 192 894 q 76 501 76 661 q 133 226 76 343 q 294 45 190 110 q 536 -19 397 -19 m 363 1350 q 297 1349 329 1357 q 246 1318 265 1340 q 336 1160 265 1218 q 517 1101 407 1101 q 698 1160 626 1101 q 788 1318 769 1218 q 736 1349 768 1340 q 671 1350 704 1357 q 517 1219 638 1219 q 363 1350 396 1219 "},"H":{"ha":1007,"x_min":139,"x_max":868,"o":"m 203 -10 q 268 0 235 -10 l 268 451 l 739 451 l 739 0 q 804 -10 772 -10 q 868 0 839 -10 l 868 1003 q 804 1013 835 1013 q 739 1003 768 1013 l 739 572 l 268 572 l 268 1003 q 203 1013 239 1013 q 139 1003 172 1013 l 139 0 q 203 -10 168 -10 "},"I":{"ha":700,"x_min":90,"x_max":610,"o":"m 100 0 l 600 0 q 610 59 610 24 q 600 117 610 94 l 415 117 l 415 886 l 600 886 q 610 945 610 910 q 600 1003 610 981 l 100 1003 q 90 945 90 981 q 100 886 90 910 l 286 886 l 286 117 l 100 117 q 90 59 90 94 q 100 0 90 24 "},"Í":{"ha":700,"x_min":90,"x_max":610,"o":"m 100 0 l 600 0 q 610 59 610 24 q 600 117 610 94 l 415 117 l 415 886 l 600 886 q 610 945 610 910 q 600 1003 610 981 l 100 1003 q 90 945 90 981 q 100 886 90 910 l 286 886 l 286 117 l 100 117 q 90 59 90 94 q 100 0 90 24 m 239 1101 q 364 1144 300 1117 q 481 1203 428 1172 q 561 1257 533 1233 q 496 1358 557 1319 q 417 1308 468 1336 q 308 1256 365 1281 q 200 1217 250 1232 q 209 1156 199 1186 q 239 1101 219 1125 "},"Î":{"ha":700,"x_min":90,"x_max":610,"o":"m 100 0 l 600 0 q 610 59 610 24 q 600 117 610 94 l 415 117 l 415 886 l 600 886 q 610 945 610 910 q 600 1003 610 981 l 100 1003 q 90 945 90 981 q 100 886 90 910 l 286 886 l 286 117 l 100 117 q 90 59 90 94 q 100 0 90 24 m 397 1351 q 300 1351 349 1364 q 225 1288 257 1314 q 163 1241 193 1261 q 99 1199 133 1221 q 158 1101 107 1136 q 350 1239 244 1140 q 446 1157 396 1193 q 539 1101 496 1121 q 599 1199 592 1138 q 540 1237 567 1219 q 482 1281 514 1254 q 397 1351 450 1307 "},"Ï":{"ha":700,"x_min":90,"x_max":610,"o":"m 100 0 l 600 0 q 610 59 610 24 q 600 117 610 94 l 415 117 l 415 886 l 600 886 q 610 945 610 910 q 600 1003 610 981 l 100 1003 q 90 945 90 981 q 100 886 90 910 l 286 886 l 286 117 l 100 117 q 90 59 90 94 q 100 0 90 24 m 489 1129 q 551 1154 525 1129 q 576 1217 576 1179 q 551 1278 576 1253 q 489 1304 525 1304 q 427 1278 453 1304 q 401 1217 401 1253 q 427 1155 401 1181 q 489 1129 453 1129 m 201 1129 q 264 1154 238 1129 q 290 1217 290 1179 q 264 1278 290 1253 q 201 1304 238 1304 q 141 1278 167 1304 q 115 1217 115 1253 q 141 1155 115 1181 q 201 1129 167 1129 "},"İ":{"ha":700,"x_min":90,"x_max":610,"o":"m 100 0 l 600 0 q 610 59 610 24 q 600 117 610 94 l 415 117 l 415 886 l 600 886 q 610 945 610 910 q 600 1003 610 981 l 100 1003 q 90 945 90 981 q 100 886 90 910 l 286 886 l 286 117 l 100 117 q 90 59 90 94 q 100 0 90 24 m 351 1121 q 419 1148 392 1121 q 446 1215 446 1175 q 419 1283 446 1257 q 351 1310 393 1310 q 284 1283 311 1310 q 257 1215 257 1257 q 285 1149 257 1176 q 351 1121 313 1121 "},"Ị":{"ha":700,"x_min":90,"x_max":610,"o":"m 100 0 l 600 0 q 610 59 610 24 q 600 117 610 94 l 415 117 l 415 886 l 600 886 q 610 945 610 910 q 600 1003 610 981 l 100 1003 q 90 945 90 981 q 100 886 90 910 l 286 886 l 286 117 l 100 117 q 90 59 90 94 q 100 0 90 24 m 350 -393 q 417 -366 390 -393 q 444 -299 444 -339 q 418 -231 444 -257 q 350 -204 392 -204 q 283 -231 310 -204 q 256 -299 256 -257 q 283 -365 256 -337 q 350 -393 311 -393 "},"Ì":{"ha":700,"x_min":90,"x_max":610,"o":"m 100 0 l 600 0 q 610 59 610 24 q 600 117 610 94 l 415 117 l 415 886 l 600 886 q 610 945 610 910 q 600 1003 610 981 l 100 1003 q 90 945 90 981 q 100 886 90 910 l 286 886 l 286 117 l 100 117 q 90 59 90 94 q 100 0 90 24 m 461 1101 q 491 1156 481 1125 q 500 1217 501 1186 q 392 1256 450 1232 q 284 1308 335 1281 q 204 1358 233 1336 q 139 1257 143 1319 q 219 1203 167 1233 q 336 1144 272 1172 q 461 1101 400 1117 "},"Ỉ":{"ha":700,"x_min":90,"x_max":610,"o":"m 100 0 l 600 0 q 610 59 610 24 q 600 117 610 94 l 415 117 l 415 886 l 600 886 q 610 945 610 910 q 600 1003 610 981 l 100 1003 q 90 945 90 981 q 100 886 90 910 l 286 886 l 286 117 l 100 117 q 90 59 90 94 q 100 0 90 24 m 303 1176 q 329 1078 300 1115 q 482 1140 426 1090 q 538 1256 538 1189 q 486 1356 538 1319 q 336 1393 435 1393 q 241 1383 285 1393 q 163 1360 197 1374 q 169 1301 161 1329 q 192 1256 178 1274 q 254 1272 219 1264 q 332 1281 289 1281 q 410 1246 410 1281 q 383 1208 410 1224 q 303 1176 356 1193 "},"Ĩ":{"ha":700,"x_min":86,"x_max":617,"o":"m 100 0 l 600 0 q 610 59 610 24 q 600 117 610 94 l 415 117 l 415 886 l 600 886 q 610 945 610 910 q 600 1003 610 981 l 100 1003 q 90 945 90 981 q 100 886 90 910 l 286 886 l 286 117 l 100 117 q 90 59 90 94 q 100 0 90 24 m 451 1250 q 406 1263 429 1250 q 361 1286 382 1275 q 306 1312 333 1301 q 249 1322 279 1322 q 144 1282 189 1322 q 86 1178 99 1242 q 124 1153 101 1160 q 174 1146 147 1147 q 208 1194 193 1178 q 249 1210 224 1210 q 294 1198 269 1210 q 349 1171 319 1186 q 415 1142 393 1149 q 456 1136 438 1136 q 561 1177 519 1136 q 617 1282 603 1218 q 529 1314 586 1314 q 497 1266 511 1282 q 451 1250 482 1250 "},"J":{"ha":976,"x_min":56,"x_max":935,"o":"m 369 -19 q 596 72 517 -19 q 675 324 675 164 l 675 890 l 926 890 q 934 947 933 922 q 926 1003 935 971 l 253 1003 q 244 947 243 971 q 253 890 244 922 l 544 890 l 544 324 q 503 162 544 219 q 372 104 463 104 q 237 167 278 104 q 181 338 196 231 q 114 335 150 342 q 56 313 78 328 q 100 139 65 214 q 201 22 135 64 q 369 -19 267 -19 "},"K":{"ha":951,"x_min":139,"x_max":924,"o":"m 203 -10 q 268 0 239 -10 l 268 276 l 435 472 l 825 -19 q 889 10 860 -15 q 924 64 918 35 l 518 568 l 836 939 q 799 993 826 971 q 740 1021 772 1015 l 268 464 l 268 1003 q 203 1013 235 1013 q 139 1003 168 1013 l 139 0 q 203 -10 172 -10 "},"L":{"ha":825,"x_min":139,"x_max":769,"o":"m 139 0 l 758 0 q 768 40 767 15 q 767 87 769 64 q 758 121 765 110 l 268 121 l 268 1003 q 203 1013 239 1013 q 139 1003 172 1013 l 139 0 "},"Ŀ":{"ha":825,"x_min":139,"x_max":769,"o":"m 139 0 l 758 0 q 768 40 767 15 q 767 87 769 64 q 758 121 765 110 l 268 121 l 268 1003 q 203 1013 239 1013 q 139 1003 172 1013 l 139 0 m 621 463 q 688 491 660 463 q 717 558 717 519 q 688 625 717 597 q 621 653 660 653 q 554 625 582 653 q 526 558 526 597 q 554 491 526 519 q 621 463 582 463 "},"M":{"ha":1211,"x_min":139,"x_max":1072,"o":"m 203 -10 q 268 0 235 -10 l 268 726 l 549 171 q 607 161 574 161 q 664 171 640 161 l 943 725 l 943 0 q 1007 -10 972 -10 q 1072 0 1039 -10 l 1072 1003 q 1039 1011 1057 1010 q 1006 1013 1021 1013 q 979 1011 994 1013 q 946 1003 964 1010 l 607 329 l 267 1003 q 233 1011 250 1010 q 200 1013 215 1013 q 172 1011 189 1013 q 139 1003 156 1010 l 139 0 q 203 -10 168 -10 "},"N":{"ha":1067,"x_min":139,"x_max":928,"o":"m 203 -10 q 268 0 235 -10 l 268 774 l 815 0 q 875 -10 843 -10 q 928 0 904 -10 l 928 1003 q 864 1013 894 1013 q 799 1003 828 1013 l 799 240 l 257 1006 q 230 1011 243 1010 q 204 1013 217 1013 q 139 1003 168 1013 l 139 0 q 203 -10 168 -10 "},"Ñ":{"ha":1067,"x_min":139,"x_max":928,"o":"m 203 -10 q 268 0 235 -10 l 268 774 l 815 0 q 875 -10 843 -10 q 928 0 904 -10 l 928 1003 q 864 1013 894 1013 q 799 1003 828 1013 l 799 240 l 257 1006 q 230 1011 243 1010 q 204 1013 217 1013 q 139 1003 168 1013 l 139 0 q 203 -10 168 -10 m 635 1250 q 589 1263 613 1250 q 544 1286 565 1275 q 490 1312 517 1301 q 432 1322 463 1322 q 327 1282 372 1322 q 269 1178 282 1242 q 308 1153 285 1160 q 357 1146 331 1147 q 392 1194 376 1178 q 432 1210 407 1210 q 478 1198 453 1210 q 532 1171 503 1186 q 599 1142 576 1149 q 639 1136 621 1136 q 744 1177 703 1136 q 800 1282 786 1218 q 713 1314 769 1314 q 680 1266 694 1282 q 635 1250 665 1250 "},"O":{"ha":1050,"x_min":76,"x_max":974,"o":"m 526 -19 q 760 47 660 -19 q 917 230 861 113 q 974 501 974 347 q 917 774 974 657 q 760 956 861 890 q 526 1022 660 1022 q 292 956 393 1022 q 133 773 190 890 q 76 501 76 656 q 133 230 76 347 q 292 47 190 113 q 526 -19 393 -19 m 525 106 q 359 155 431 106 q 249 294 288 204 q 210 501 210 383 q 249 710 210 621 q 360 848 289 799 q 526 897 432 897 q 692 848 621 897 q 801 710 763 799 q 840 501 840 621 q 801 294 840 383 q 692 155 763 204 q 525 106 621 106 "},"Ó":{"ha":1050,"x_min":76,"x_max":974,"o":"m 526 -19 q 760 47 660 -19 q 917 230 861 113 q 974 501 974 347 q 917 774 974 657 q 760 956 861 890 q 526 1022 660 1022 q 292 956 393 1022 q 133 773 190 890 q 76 501 76 656 q 133 230 76 347 q 292 47 190 113 q 526 -19 393 -19 m 525 106 q 359 155 431 106 q 249 294 288 204 q 210 501 210 383 q 249 710 210 621 q 360 848 289 799 q 526 897 432 897 q 692 848 621 897 q 801 710 763 799 q 840 501 840 621 q 801 294 840 383 q 692 155 763 204 q 525 106 621 106 m 414 1101 q 539 1144 475 1117 q 656 1203 603 1172 q 736 1257 708 1233 q 671 1358 732 1319 q 592 1308 643 1336 q 483 1256 540 1281 q 375 1217 425 1232 q 384 1156 374 1186 q 414 1101 394 1125 "},"Ô":{"ha":1050,"x_min":76,"x_max":974,"o":"m 526 -19 q 760 47 660 -19 q 917 230 861 113 q 974 501 974 347 q 917 774 974 657 q 760 956 861 890 q 526 1022 660 1022 q 292 956 393 1022 q 133 773 190 890 q 76 501 76 656 q 133 230 76 347 q 292 47 190 113 q 526 -19 393 -19 m 525 106 q 359 155 431 106 q 249 294 288 204 q 210 501 210 383 q 249 710 210 621 q 360 848 289 799 q 526 897 432 897 q 692 848 621 897 q 801 710 763 799 q 840 501 840 621 q 801 294 840 383 q 692 155 763 204 q 525 106 621 106 m 572 1351 q 475 1351 524 1364 q 400 1288 432 1314 q 338 1241 368 1261 q 274 1199 308 1221 q 333 1101 282 1136 q 525 1239 419 1140 q 621 1157 571 1193 q 714 1101 671 1121 q 774 1199 767 1138 q 715 1237 742 1219 q 657 1281 689 1254 q 572 1351 625 1307 "},"Ố":{"ha":1050,"x_min":76,"x_max":974,"o":"m 526 -19 q 760 47 660 -19 q 917 230 861 113 q 974 501 974 347 q 917 774 974 657 q 760 956 861 890 q 526 1022 660 1022 q 292 956 393 1022 q 133 773 190 890 q 76 501 76 656 q 133 230 76 347 q 292 47 190 113 q 526 -19 393 -19 m 525 106 q 359 155 431 106 q 249 294 288 204 q 210 501 210 383 q 249 710 210 621 q 360 848 289 799 q 526 897 432 897 q 692 848 621 897 q 801 710 763 799 q 840 501 840 621 q 801 294 840 383 q 692 155 763 204 q 525 106 621 106 m 832 1582 l 676 1390 q 713 1341 688 1363 q 768 1310 738 1319 l 929 1508 q 890 1556 917 1536 q 832 1582 863 1576 m 572 1351 q 475 1351 524 1364 q 400 1288 432 1314 q 338 1241 368 1261 q 274 1199 308 1221 q 333 1101 282 1136 q 525 1239 419 1140 q 621 1157 571 1193 q 714 1101 671 1121 q 774 1199 767 1138 q 715 1237 742 1219 q 657 1281 689 1254 q 572 1351 625 1307 "},"Ộ":{"ha":1050,"x_min":76,"x_max":974,"o":"m 526 -19 q 760 47 660 -19 q 917 230 861 113 q 974 501 974 347 q 917 774 974 657 q 760 956 861 890 q 526 1022 660 1022 q 292 956 393 1022 q 133 773 190 890 q 76 501 76 656 q 133 230 76 347 q 292 47 190 113 q 526 -19 393 -19 m 525 106 q 359 155 431 106 q 249 294 288 204 q 210 501 210 383 q 249 710 210 621 q 360 848 289 799 q 526 897 432 897 q 692 848 621 897 q 801 710 763 799 q 840 501 840 621 q 801 294 840 383 q 692 155 763 204 q 525 106 621 106 m 525 -393 q 592 -366 565 -393 q 619 -299 619 -339 q 593 -231 619 -257 q 525 -204 567 -204 q 458 -231 485 -204 q 431 -299 431 -257 q 458 -365 431 -337 q 525 -393 486 -393 m 572 1351 q 475 1351 524 1364 q 400 1288 432 1314 q 338 1241 368 1261 q 274 1199 308 1221 q 333 1101 282 1136 q 525 1239 419 1140 q 621 1157 571 1193 q 714 1101 671 1121 q 774 1199 767 1138 q 715 1237 742 1219 q 657 1281 689 1254 q 572 1351 625 1307 "},"Ồ":{"ha":1050,"x_min":76,"x_max":974,"o":"m 526 -19 q 760 47 660 -19 q 917 230 861 113 q 974 501 974 347 q 917 774 974 657 q 760 956 861 890 q 526 1022 660 1022 q 292 956 393 1022 q 133 773 190 890 q 76 501 76 656 q 133 230 76 347 q 292 47 190 113 q 526 -19 393 -19 m 525 106 q 359 155 431 106 q 249 294 288 204 q 210 501 210 383 q 249 710 210 621 q 360 848 289 799 q 526 897 432 897 q 692 848 621 897 q 801 710 763 799 q 840 501 840 621 q 801 294 840 383 q 692 155 763 204 q 525 106 621 106 m 703 1582 q 645 1556 672 1576 q 606 1508 618 1536 l 767 1310 q 823 1341 797 1319 q 858 1390 849 1363 l 703 1582 m 572 1351 q 475 1351 524 1364 q 400 1288 432 1314 q 338 1241 368 1261 q 274 1199 308 1221 q 333 1101 282 1136 q 525 1239 419 1140 q 621 1157 571 1193 q 714 1101 671 1121 q 774 1199 767 1138 q 715 1237 742 1219 q 657 1281 689 1254 q 572 1351 625 1307 "},"Ổ":{"ha":1050,"x_min":76,"x_max":974,"o":"m 526 -19 q 760 47 660 -19 q 917 230 861 113 q 974 501 974 347 q 917 774 974 657 q 760 956 861 890 q 526 1022 660 1022 q 292 956 393 1022 q 133 773 190 890 q 76 501 76 656 q 133 230 76 347 q 292 47 190 113 q 526 -19 393 -19 m 525 106 q 359 155 431 106 q 249 294 288 204 q 210 501 210 383 q 249 710 210 621 q 360 848 289 799 q 526 897 432 897 q 692 848 621 897 q 801 710 763 799 q 840 501 840 621 q 801 294 840 383 q 692 155 763 204 q 525 106 621 106 m 722 1392 q 731 1338 722 1364 q 757 1293 740 1311 q 838 1327 800 1306 q 900 1383 876 1349 q 924 1465 924 1418 q 878 1569 924 1529 q 742 1608 832 1608 q 649 1599 690 1608 q 579 1575 607 1590 q 587 1519 578 1546 q 610 1474 596 1492 q 673 1492 640 1486 q 732 1499 706 1499 q 800 1454 800 1499 q 783 1419 800 1435 q 722 1392 765 1404 m 572 1351 q 475 1351 524 1364 q 400 1288 432 1314 q 338 1241 368 1261 q 274 1199 308 1221 q 333 1101 282 1136 q 525 1239 419 1140 q 621 1157 571 1193 q 714 1101 671 1121 q 774 1199 767 1138 q 715 1237 742 1219 q 657 1281 689 1254 q 572 1351 625 1307 "},"Ỗ":{"ha":1050,"x_min":76,"x_max":974,"o":"m 526 -19 q 760 47 660 -19 q 917 230 861 113 q 974 501 974 347 q 917 774 974 657 q 760 956 861 890 q 526 1022 660 1022 q 292 956 393 1022 q 133 773 190 890 q 76 501 76 656 q 133 230 76 347 q 292 47 190 113 q 526 -19 393 -19 m 525 106 q 359 155 431 106 q 249 294 288 204 q 210 501 210 383 q 249 710 210 621 q 360 848 289 799 q 526 897 432 897 q 692 848 621 897 q 801 710 763 799 q 840 501 840 621 q 801 294 840 383 q 692 155 763 204 q 525 106 621 106 m 619 1439 q 706 1472 669 1439 q 765 1567 743 1506 q 675 1610 732 1610 q 645 1568 663 1579 q 608 1557 628 1557 q 580 1563 596 1557 q 536 1585 564 1569 q 490 1609 510 1600 q 439 1618 469 1618 q 347 1585 386 1618 q 285 1492 307 1553 q 375 1449 318 1449 q 406 1490 389 1478 q 442 1501 424 1501 q 470 1495 456 1501 q 519 1471 485 1489 q 575 1447 553 1454 q 619 1439 597 1439 m 572 1351 q 475 1351 524 1364 q 400 1288 432 1314 q 338 1241 368 1261 q 274 1199 308 1221 q 333 1101 282 1136 q 525 1239 419 1140 q 621 1157 571 1193 q 714 1101 671 1121 q 774 1199 767 1138 q 715 1237 742 1219 q 657 1281 689 1254 q 572 1351 625 1307 "},"Ö":{"ha":1050,"x_min":76,"x_max":974,"o":"m 526 -19 q 760 47 660 -19 q 917 230 861 113 q 974 501 974 347 q 917 774 974 657 q 760 956 861 890 q 526 1022 660 1022 q 292 956 393 1022 q 133 773 190 890 q 76 501 76 656 q 133 230 76 347 q 292 47 190 113 q 526 -19 393 -19 m 525 106 q 359 155 431 106 q 249 294 288 204 q 210 501 210 383 q 249 710 210 621 q 360 848 289 799 q 526 897 432 897 q 692 848 621 897 q 801 710 763 799 q 840 501 840 621 q 801 294 840 383 q 692 155 763 204 q 525 106 621 106 m 664 1129 q 726 1154 700 1129 q 751 1217 751 1179 q 726 1278 751 1253 q 664 1304 700 1304 q 602 1278 628 1304 q 576 1217 576 1253 q 602 1155 576 1181 q 664 1129 628 1129 m 376 1129 q 439 1154 413 1129 q 465 1217 465 1179 q 439 1278 465 1253 q 376 1304 413 1304 q 316 1278 342 1304 q 290 1217 290 1253 q 316 1155 290 1181 q 376 1129 342 1129 "},"Ọ":{"ha":1050,"x_min":76,"x_max":974,"o":"m 526 -19 q 760 47 660 -19 q 917 230 861 113 q 974 501 974 347 q 917 774 974 657 q 760 956 861 890 q 526 1022 660 1022 q 292 956 393 1022 q 133 773 190 890 q 76 501 76 656 q 133 230 76 347 q 292 47 190 113 q 526 -19 393 -19 m 525 106 q 359 155 431 106 q 249 294 288 204 q 210 501 210 383 q 249 710 210 621 q 360 848 289 799 q 526 897 432 897 q 692 848 621 897 q 801 710 763 799 q 840 501 840 621 q 801 294 840 383 q 692 155 763 204 q 525 106 621 106 m 525 -393 q 592 -366 565 -393 q 619 -299 619 -339 q 593 -231 619 -257 q 525 -204 567 -204 q 458 -231 485 -204 q 431 -299 431 -257 q 458 -365 431 -337 q 525 -393 486 -393 "},"Ò":{"ha":1050,"x_min":76,"x_max":974,"o":"m 526 -19 q 760 47 660 -19 q 917 230 861 113 q 974 501 974 347 q 917 774 974 657 q 760 956 861 890 q 526 1022 660 1022 q 292 956 393 1022 q 133 773 190 890 q 76 501 76 656 q 133 230 76 347 q 292 47 190 113 q 526 -19 393 -19 m 525 106 q 359 155 431 106 q 249 294 288 204 q 210 501 210 383 q 249 710 210 621 q 360 848 289 799 q 526 897 432 897 q 692 848 621 897 q 801 710 763 799 q 840 501 840 621 q 801 294 840 383 q 692 155 763 204 q 525 106 621 106 m 636 1101 q 666 1156 656 1125 q 675 1217 676 1186 q 567 1256 625 1232 q 459 1308 510 1281 q 379 1358 408 1336 q 314 1257 318 1319 q 394 1203 342 1233 q 511 1144 447 1172 q 636 1101 575 1117 "},"Ỏ":{"ha":1050,"x_min":76,"x_max":974,"o":"m 526 -19 q 760 47 660 -19 q 917 230 861 113 q 974 501 974 347 q 917 774 974 657 q 760 956 861 890 q 526 1022 660 1022 q 292 956 393 1022 q 133 773 190 890 q 76 501 76 656 q 133 230 76 347 q 292 47 190 113 q 526 -19 393 -19 m 525 106 q 359 155 431 106 q 249 294 288 204 q 210 501 210 383 q 249 710 210 621 q 360 848 289 799 q 526 897 432 897 q 692 848 621 897 q 801 710 763 799 q 840 501 840 621 q 801 294 840 383 q 692 155 763 204 q 525 106 621 106 m 478 1176 q 504 1078 475 1115 q 657 1140 601 1090 q 713 1256 713 1189 q 661 1356 713 1319 q 511 1393 610 1393 q 416 1383 460 1393 q 338 1360 372 1374 q 344 1301 336 1329 q 367 1256 353 1274 q 429 1272 394 1264 q 507 1281 464 1281 q 585 1246 585 1281 q 558 1208 585 1224 q 478 1176 531 1193 "},"Ơ":{"ha":1050,"x_min":76,"x_max":974,"o":"m 526 -19 q 760 47 660 -19 q 917 230 861 113 q 974 501 974 347 q 935 733 974 629 q 825 904 896 836 q 949 1119 949 960 q 944 1176 949 1147 q 885 1185 915 1189 q 826 1168 854 1182 q 830 1142 829 1154 q 831 1114 831 1131 q 808 1032 831 1069 q 715 982 785 994 q 526 1022 629 1022 q 292 956 393 1022 q 133 773 190 890 q 76 501 76 656 q 133 230 76 347 q 292 47 190 113 q 526 -19 393 -19 m 525 106 q 359 155 431 106 q 249 294 288 204 q 210 501 210 383 q 249 710 210 621 q 360 848 289 799 q 526 897 432 897 q 692 848 621 897 q 801 710 763 799 q 840 501 840 621 q 801 294 840 383 q 692 155 763 204 q 525 106 621 106 "},"Ớ":{"ha":1050,"x_min":76,"x_max":974,"o":"m 526 -19 q 760 47 660 -19 q 917 230 861 113 q 974 501 974 347 q 935 733 974 629 q 825 904 896 836 q 949 1119 949 960 q 944 1176 949 1147 q 885 1185 915 1189 q 826 1168 854 1182 q 830 1142 829 1154 q 831 1114 831 1131 q 808 1032 831 1069 q 715 982 785 994 q 526 1022 629 1022 q 292 956 393 1022 q 133 773 190 890 q 76 501 76 656 q 133 230 76 347 q 292 47 190 113 q 526 -19 393 -19 m 525 106 q 359 155 431 106 q 249 294 288 204 q 210 501 210 383 q 249 710 210 621 q 360 848 289 799 q 526 897 432 897 q 692 848 621 897 q 801 710 763 799 q 840 501 840 621 q 801 294 840 383 q 692 155 763 204 q 525 106 621 106 m 414 1101 q 539 1144 475 1117 q 656 1203 603 1172 q 736 1257 708 1233 q 671 1358 732 1319 q 592 1308 643 1336 q 483 1256 540 1281 q 375 1217 425 1232 q 384 1156 374 1186 q 414 1101 394 1125 "},"Ợ":{"ha":1050,"x_min":76,"x_max":974,"o":"m 526 -19 q 760 47 660 -19 q 917 230 861 113 q 974 501 974 347 q 935 733 974 629 q 825 904 896 836 q 949 1119 949 960 q 944 1176 949 1147 q 885 1185 915 1189 q 826 1168 854 1182 q 830 1142 829 1154 q 831 1114 831 1131 q 808 1032 831 1069 q 715 982 785 994 q 526 1022 629 1022 q 292 956 393 1022 q 133 773 190 890 q 76 501 76 656 q 133 230 76 347 q 292 47 190 113 q 526 -19 393 -19 m 525 106 q 359 155 431 106 q 249 294 288 204 q 210 501 210 383 q 249 710 210 621 q 360 848 289 799 q 526 897 432 897 q 692 848 621 897 q 801 710 763 799 q 840 501 840 621 q 801 294 840 383 q 692 155 763 204 q 525 106 621 106 m 525 -393 q 592 -366 565 -393 q 619 -299 619 -339 q 593 -231 619 -257 q 525 -204 567 -204 q 458 -231 485 -204 q 431 -299 431 -257 q 458 -365 431 -337 q 525 -393 486 -393 "},"Ờ":{"ha":1050,"x_min":76,"x_max":974,"o":"m 526 -19 q 760 47 660 -19 q 917 230 861 113 q 974 501 974 347 q 935 733 974 629 q 825 904 896 836 q 949 1119 949 960 q 944 1176 949 1147 q 885 1185 915 1189 q 826 1168 854 1182 q 830 1142 829 1154 q 831 1114 831 1131 q 808 1032 831 1069 q 715 982 785 994 q 526 1022 629 1022 q 292 956 393 1022 q 133 773 190 890 q 76 501 76 656 q 133 230 76 347 q 292 47 190 113 q 526 -19 393 -19 m 525 106 q 359 155 431 106 q 249 294 288 204 q 210 501 210 383 q 249 710 210 621 q 360 848 289 799 q 526 897 432 897 q 692 848 621 897 q 801 710 763 799 q 840 501 840 621 q 801 294 840 383 q 692 155 763 204 q 525 106 621 106 m 636 1101 q 666 1156 656 1125 q 675 1217 676 1186 q 567 1256 625 1232 q 459 1308 510 1281 q 379 1358 408 1336 q 314 1257 318 1319 q 394 1203 342 1233 q 511 1144 447 1172 q 636 1101 575 1117 "},"Ở":{"ha":1050,"x_min":76,"x_max":974,"o":"m 526 -19 q 760 47 660 -19 q 917 230 861 113 q 974 501 974 347 q 935 733 974 629 q 825 904 896 836 q 949 1119 949 960 q 944 1176 949 1147 q 885 1185 915 1189 q 826 1168 854 1182 q 830 1142 829 1154 q 831 1114 831 1131 q 808 1032 831 1069 q 715 982 785 994 q 526 1022 629 1022 q 292 956 393 1022 q 133 773 190 890 q 76 501 76 656 q 133 230 76 347 q 292 47 190 113 q 526 -19 393 -19 m 525 106 q 359 155 431 106 q 249 294 288 204 q 210 501 210 383 q 249 710 210 621 q 360 848 289 799 q 526 897 432 897 q 692 848 621 897 q 801 710 763 799 q 840 501 840 621 q 801 294 840 383 q 692 155 763 204 q 525 106 621 106 m 486 1242 q 513 1143 483 1181 q 665 1202 610 1156 q 721 1318 721 1249 q 670 1432 721 1392 q 519 1472 619 1472 q 424 1463 468 1472 q 346 1439 381 1453 q 353 1381 344 1408 q 375 1335 361 1353 q 438 1351 403 1343 q 511 1360 472 1360 q 593 1314 593 1360 q 486 1242 593 1269 "},"Ỡ":{"ha":1050,"x_min":76,"x_max":974,"o":"m 526 -19 q 760 47 660 -19 q 917 230 861 113 q 974 501 974 347 q 935 733 974 629 q 825 904 896 836 q 949 1119 949 960 q 944 1176 949 1147 q 885 1185 915 1189 q 826 1168 854 1182 q 830 1142 829 1154 q 831 1114 831 1131 q 808 1032 831 1069 q 715 982 785 994 q 526 1022 629 1022 q 292 956 393 1022 q 133 773 190 890 q 76 501 76 656 q 133 230 76 347 q 292 47 190 113 q 526 -19 393 -19 m 525 106 q 359 155 431 106 q 249 294 288 204 q 210 501 210 383 q 249 710 210 621 q 360 848 289 799 q 526 897 432 897 q 692 848 621 897 q 801 710 763 799 q 840 501 840 621 q 801 294 840 383 q 692 155 763 204 q 525 106 621 106 m 626 1250 q 581 1263 604 1250 q 536 1286 557 1275 q 481 1312 508 1301 q 424 1322 454 1322 q 319 1282 364 1322 q 261 1178 274 1242 q 299 1153 276 1160 q 349 1146 322 1147 q 383 1194 368 1178 q 424 1210 399 1210 q 469 1198 444 1210 q 524 1171 494 1186 q 590 1142 568 1149 q 631 1136 613 1136 q 736 1177 694 1136 q 792 1282 778 1218 q 704 1314 761 1314 q 672 1266 686 1282 q 626 1250 657 1250 "},"Ø":{"ha":1050,"x_min":76,"x_max":974,"o":"m 526 -19 q 760 47 660 -19 q 917 230 861 113 q 974 501 974 347 q 917 774 974 657 q 760 956 861 890 q 526 1022 660 1022 q 292 956 393 1022 q 133 773 190 890 q 76 501 76 656 q 133 230 76 347 q 292 47 190 113 q 526 -19 393 -19 m 525 106 q 359 155 431 106 q 249 294 288 204 q 210 501 210 383 q 249 710 210 621 q 360 848 289 799 q 526 897 432 897 q 692 848 621 897 q 801 710 763 799 q 840 501 840 621 q 801 294 840 383 q 692 155 763 204 q 525 106 621 106 m 201 -31 l 947 967 q 908 1007 938 986 q 851 1032 878 1028 l 104 38 q 142 -3 119 14 q 201 -31 165 -21 "},"Õ":{"ha":1050,"x_min":76,"x_max":974,"o":"m 526 -19 q 760 47 660 -19 q 917 230 861 113 q 974 501 974 347 q 917 774 974 657 q 760 956 861 890 q 526 1022 660 1022 q 292 956 393 1022 q 133 773 190 890 q 76 501 76 656 q 133 230 76 347 q 292 47 190 113 q 526 -19 393 -19 m 525 106 q 359 155 431 106 q 249 294 288 204 q 210 501 210 383 q 249 710 210 621 q 360 848 289 799 q 526 897 432 897 q 692 848 621 897 q 801 710 763 799 q 840 501 840 621 q 801 294 840 383 q 692 155 763 204 q 525 106 621 106 m 626 1250 q 581 1263 604 1250 q 536 1286 557 1275 q 481 1312 508 1301 q 424 1322 454 1322 q 319 1282 364 1322 q 261 1178 274 1242 q 299 1153 276 1160 q 349 1146 322 1147 q 383 1194 368 1178 q 424 1210 399 1210 q 469 1198 444 1210 q 524 1171 494 1186 q 590 1142 568 1149 q 631 1136 613 1136 q 736 1177 694 1136 q 792 1282 778 1218 q 704 1314 761 1314 q 672 1266 686 1282 q 626 1250 657 1250 "},"Œ":{"ha":1324,"x_min":76,"x_max":1233,"o":"m 1225 0 q 1233 63 1233 28 q 1225 121 1233 97 l 803 121 l 803 444 l 1199 444 q 1206 510 1206 476 q 1199 565 1206 543 l 803 565 l 803 882 l 1215 882 q 1224 947 1224 913 q 1215 1003 1224 981 l 682 1003 q 540 1022 615 1022 q 299 956 403 1022 q 135 773 194 890 q 76 501 76 656 q 135 230 76 347 q 299 47 194 113 q 540 -19 403 -19 q 681 0 614 -19 l 1225 0 m 208 501 q 250 711 208 622 q 366 849 292 800 q 540 899 440 899 q 674 872 613 899 l 674 131 q 539 104 610 104 q 365 153 439 104 q 249 292 290 203 q 208 501 208 382 "},"P":{"ha":900,"x_min":139,"x_max":817,"o":"m 268 0 l 268 376 l 439 376 q 715 463 613 376 q 817 703 817 549 q 723 924 817 844 q 451 1003 629 1003 l 139 1003 l 139 0 q 203 -10 168 -10 q 268 0 235 -10 m 451 883 q 683 699 683 883 q 618 546 683 597 q 426 494 553 494 l 268 494 l 268 883 l 451 883 "},"Q":{"ha":1050,"x_min":76,"x_max":974,"o":"m 526 -19 q 689 10 614 -19 l 813 -172 q 875 -147 849 -167 q 914 -100 901 -126 l 796 72 q 926 251 879 140 q 974 501 974 361 q 917 774 974 657 q 760 956 861 890 q 526 1022 660 1022 q 292 956 393 1022 q 133 773 190 890 q 76 501 76 656 q 133 230 76 347 q 292 47 190 113 q 526 -19 393 -19 m 525 106 q 359 155 431 106 q 249 294 288 204 q 210 501 210 383 q 249 710 210 621 q 360 848 289 799 q 526 897 432 897 q 692 848 621 897 q 801 710 763 799 q 840 501 840 621 q 810 315 840 397 q 722 181 779 232 l 556 426 q 499 401 524 419 q 454 357 474 383 l 615 118 q 525 106 572 106 "},"R":{"ha":931,"x_min":139,"x_max":850,"o":"m 203 -10 q 268 0 235 -10 l 268 392 l 433 392 q 463 393 447 392 l 749 -8 q 810 22 782 -1 q 850 75 839 46 l 601 424 q 708 481 658 444 q 790 576 758 518 q 822 714 822 633 q 773 882 822 818 q 644 974 724 946 q 471 1003 564 1003 l 139 1003 l 139 0 q 203 -10 168 -10 m 482 883 q 631 839 572 883 q 689 710 689 794 q 665 611 689 650 q 604 551 642 572 q 522 520 567 529 q 433 511 476 511 l 268 511 l 268 883 l 482 883 "},"S":{"ha":825,"x_min":79,"x_max":746,"o":"m 411 -18 q 583 17 507 -18 q 702 119 658 53 q 746 275 746 186 q 690 444 746 375 q 536 543 633 513 l 358 600 q 229 747 229 642 q 283 857 229 815 q 424 899 338 899 q 638 781 569 899 q 699 813 671 792 q 740 857 728 835 q 620 976 706 931 q 428 1021 535 1021 q 258 985 332 1021 q 141 885 183 949 q 99 739 99 821 q 154 581 99 646 q 307 483 210 515 l 492 424 q 583 368 551 406 q 615 274 615 331 q 561 151 615 196 q 418 104 507 106 q 276 142 335 103 q 193 256 218 181 q 128 242 163 258 q 79 200 94 226 q 192 42 107 101 q 411 -18 276 -17 "},"Ş":{"ha":825,"x_min":79,"x_max":746,"o":"m 411 -18 q 583 17 507 -18 q 702 119 658 53 q 746 275 746 186 q 690 444 746 375 q 536 543 633 513 l 358 600 q 229 747 229 642 q 283 857 229 815 q 424 899 338 899 q 638 781 569 899 q 699 813 671 792 q 740 857 728 835 q 620 976 706 931 q 428 1021 535 1021 q 258 985 332 1021 q 141 885 183 949 q 99 739 99 821 q 154 581 99 646 q 307 483 210 515 l 492 424 q 583 368 551 406 q 615 274 615 331 q 561 151 615 196 q 418 104 507 106 q 276 142 335 103 q 193 256 218 181 q 128 242 163 258 q 79 200 94 226 q 192 42 107 101 q 411 -18 276 -17 m 400 -361 q 544 -321 490 -361 q 599 -212 599 -281 q 563 -124 599 -160 q 464 -74 528 -89 l 469 10 l 358 10 l 349 -147 q 482 -210 482 -157 q 459 -247 482 -235 q 396 -260 436 -260 q 352 -257 374 -260 q 315 -250 331 -254 q 300 -349 283 -293 q 347 -358 319 -354 q 400 -361 374 -361 "},"ẞ":{"ha":1044,"x_min":125,"x_max":968,"o":"m 586 588 q 613 481 576 519 q 724 460 674 481 q 806 397 775 439 q 838 289 838 354 q 783 156 838 207 q 631 106 729 106 q 520 123 575 106 q 401 171 465 140 q 361 122 374 153 q 350 57 349 90 q 483 1 406 22 q 636 -19 561 -19 q 817 21 743 -19 q 929 132 890 61 q 968 292 968 203 q 905 481 968 407 q 733 588 842 554 l 913 900 q 738 992 835 963 q 538 1022 642 1022 q 230 919 335 1022 q 125 632 125 815 l 125 0 q 156 -4 140 -3 q 189 -6 171 -6 q 224 -4 208 -6 q 254 0 240 -3 l 254 642 q 535 897 254 897 q 649 886 599 897 q 740 856 699 875 l 586 588 "},"T":{"ha":896,"x_min":32,"x_max":853,"o":"m 447 -7 q 479 -5 463 -7 q 514 0 496 -3 l 514 886 l 842 886 q 853 947 853 914 q 842 1003 853 981 l 54 1003 q 54 886 32 951 l 383 886 l 383 0 q 417 -5 401 -3 q 447 -7 433 -7 "},"U":{"ha":1010,"x_min":125,"x_max":885,"o":"m 506 -19 q 789 90 693 -19 q 885 411 885 199 l 885 1003 q 821 1013 851 1013 q 756 1003 785 1013 l 756 421 q 506 106 756 106 q 254 421 254 106 l 254 1003 q 189 1013 225 1013 q 125 1003 158 1013 l 125 411 q 222 90 125 199 q 506 -19 318 -19 "},"Ú":{"ha":1010,"x_min":125,"x_max":885,"o":"m 506 -19 q 789 90 693 -19 q 885 411 885 199 l 885 1003 q 821 1013 851 1013 q 756 1003 785 1013 l 756 421 q 506 106 756 106 q 254 421 254 106 l 254 1003 q 189 1013 225 1013 q 125 1003 158 1013 l 125 411 q 222 90 125 199 q 506 -19 318 -19 m 394 1101 q 519 1144 456 1117 q 636 1203 583 1172 q 717 1257 689 1233 q 651 1358 713 1319 q 572 1308 624 1336 q 463 1256 521 1281 q 356 1217 406 1232 q 365 1156 354 1186 q 394 1101 375 1125 "},"Û":{"ha":1010,"x_min":125,"x_max":885,"o":"m 506 -19 q 789 90 693 -19 q 885 411 885 199 l 885 1003 q 821 1013 851 1013 q 756 1003 785 1013 l 756 421 q 506 106 756 106 q 254 421 254 106 l 254 1003 q 189 1013 225 1013 q 125 1003 158 1013 l 125 411 q 222 90 125 199 q 506 -19 318 -19 m 553 1351 q 456 1351 504 1364 q 381 1288 413 1314 q 319 1241 349 1261 q 254 1199 289 1221 q 314 1101 263 1136 q 506 1239 400 1140 q 601 1157 551 1193 q 694 1101 651 1121 q 754 1199 747 1138 q 696 1237 722 1219 q 638 1281 669 1254 q 553 1351 606 1307 "},"Ü":{"ha":1010,"x_min":125,"x_max":885,"o":"m 506 -19 q 789 90 693 -19 q 885 411 885 199 l 885 1003 q 821 1013 851 1013 q 756 1003 785 1013 l 756 421 q 506 106 756 106 q 254 421 254 106 l 254 1003 q 189 1013 225 1013 q 125 1003 158 1013 l 125 411 q 222 90 125 199 q 506 -19 318 -19 m 644 1129 q 706 1154 681 1129 q 732 1217 732 1179 q 706 1278 732 1253 q 644 1304 681 1304 q 583 1278 608 1304 q 557 1217 557 1253 q 583 1155 557 1181 q 644 1129 608 1129 m 357 1129 q 419 1154 393 1129 q 446 1217 446 1179 q 419 1278 446 1253 q 357 1304 393 1304 q 297 1278 322 1304 q 271 1217 271 1253 q 297 1155 271 1181 q 357 1129 322 1129 "},"Ụ":{"ha":1010,"x_min":125,"x_max":885,"o":"m 506 -19 q 789 90 693 -19 q 885 411 885 199 l 885 1003 q 821 1013 851 1013 q 756 1003 785 1013 l 756 421 q 506 106 756 106 q 254 421 254 106 l 254 1003 q 189 1013 225 1013 q 125 1003 158 1013 l 125 411 q 222 90 125 199 q 506 -19 318 -19 m 506 -393 q 573 -366 546 -393 q 600 -299 600 -339 q 574 -231 600 -257 q 506 -204 547 -204 q 438 -231 465 -204 q 411 -299 411 -257 q 439 -365 411 -337 q 506 -393 467 -393 "},"Ù":{"ha":1010,"x_min":125,"x_max":885,"o":"m 506 -19 q 789 90 693 -19 q 885 411 885 199 l 885 1003 q 821 1013 851 1013 q 756 1003 785 1013 l 756 421 q 506 106 756 106 q 254 421 254 106 l 254 1003 q 189 1013 225 1013 q 125 1003 158 1013 l 125 411 q 222 90 125 199 q 506 -19 318 -19 m 617 1101 q 647 1156 636 1125 q 656 1217 657 1186 q 548 1256 606 1232 q 440 1308 490 1281 q 360 1358 389 1336 q 294 1257 299 1319 q 375 1203 322 1233 q 492 1144 428 1172 q 617 1101 556 1117 "},"Ủ":{"ha":1010,"x_min":125,"x_max":885,"o":"m 506 -19 q 789 90 693 -19 q 885 411 885 199 l 885 1003 q 821 1013 851 1013 q 756 1003 785 1013 l 756 421 q 506 106 756 106 q 254 421 254 106 l 254 1003 q 189 1013 225 1013 q 125 1003 158 1013 l 125 411 q 222 90 125 199 q 506 -19 318 -19 m 458 1176 q 485 1078 456 1115 q 638 1140 582 1090 q 693 1256 693 1189 q 642 1356 693 1319 q 492 1393 590 1393 q 397 1383 440 1393 q 318 1360 353 1374 q 325 1301 317 1329 q 347 1256 333 1274 q 410 1272 375 1264 q 488 1281 444 1281 q 565 1246 565 1281 q 538 1208 565 1224 q 458 1176 511 1193 "},"Ư":{"ha":1010,"x_min":125,"x_max":1032,"o":"m 506 -19 q 789 90 693 -19 q 885 411 885 199 l 885 1003 q 821 1013 851 1013 q 756 1003 785 1013 l 756 421 q 506 106 756 106 q 254 421 254 106 l 254 1003 q 189 1013 225 1013 q 125 1003 158 1013 l 125 411 q 222 90 125 199 q 506 -19 318 -19 m 792 1007 l 804 896 q 972 963 911 900 q 1032 1133 1032 1025 q 1028 1190 1032 1161 q 910 1182 972 1214 q 913 1156 913 1167 q 914 1131 914 1146 q 884 1041 914 1071 q 792 1007 854 1011 "},"Ứ":{"ha":1010,"x_min":125,"x_max":1032,"o":"m 506 -19 q 789 90 693 -19 q 885 411 885 199 l 885 1003 q 821 1013 851 1013 q 756 1003 785 1013 l 756 421 q 506 106 756 106 q 254 421 254 106 l 254 1003 q 189 1013 225 1013 q 125 1003 158 1013 l 125 411 q 222 90 125 199 q 506 -19 318 -19 m 792 1007 l 804 896 q 972 963 911 900 q 1032 1133 1032 1025 q 1028 1190 1032 1161 q 910 1182 972 1214 q 913 1156 913 1167 q 914 1131 914 1146 q 884 1041 914 1071 q 792 1007 854 1011 m 394 1101 q 519 1144 456 1117 q 636 1203 583 1172 q 717 1257 689 1233 q 651 1358 713 1319 q 572 1308 624 1336 q 463 1256 521 1281 q 356 1217 406 1232 q 365 1156 354 1186 q 394 1101 375 1125 "},"Ự":{"ha":1010,"x_min":125,"x_max":1032,"o":"m 506 -19 q 789 90 693 -19 q 885 411 885 199 l 885 1003 q 821 1013 851 1013 q 756 1003 785 1013 l 756 421 q 506 106 756 106 q 254 421 254 106 l 254 1003 q 189 1013 225 1013 q 125 1003 158 1013 l 125 411 q 222 90 125 199 q 506 -19 318 -19 m 792 1007 l 804 896 q 972 963 911 900 q 1032 1133 1032 1025 q 1028 1190 1032 1161 q 910 1182 972 1214 q 913 1156 913 1167 q 914 1131 914 1146 q 884 1041 914 1071 q 792 1007 854 1011 m 506 -393 q 573 -366 546 -393 q 600 -299 600 -339 q 574 -231 600 -257 q 506 -204 547 -204 q 438 -231 465 -204 q 411 -299 411 -257 q 439 -365 411 -337 q 506 -393 467 -393 "},"Ừ":{"ha":1010,"x_min":125,"x_max":1032,"o":"m 506 -19 q 789 90 693 -19 q 885 411 885 199 l 885 1003 q 821 1013 851 1013 q 756 1003 785 1013 l 756 421 q 506 106 756 106 q 254 421 254 106 l 254 1003 q 189 1013 225 1013 q 125 1003 158 1013 l 125 411 q 222 90 125 199 q 506 -19 318 -19 m 792 1007 l 804 896 q 972 963 911 900 q 1032 1133 1032 1025 q 1028 1190 1032 1161 q 910 1182 972 1214 q 913 1156 913 1167 q 914 1131 914 1146 q 884 1041 914 1071 q 792 1007 854 1011 m 617 1101 q 647 1156 636 1125 q 656 1217 657 1186 q 548 1256 606 1232 q 440 1308 490 1281 q 360 1358 389 1336 q 294 1257 299 1319 q 375 1203 322 1233 q 492 1144 428 1172 q 617 1101 556 1117 "},"Ử":{"ha":1010,"x_min":125,"x_max":1032,"o":"m 506 -19 q 789 90 693 -19 q 885 411 885 199 l 885 1003 q 821 1013 851 1013 q 756 1003 785 1013 l 756 421 q 506 106 756 106 q 254 421 254 106 l 254 1003 q 189 1013 225 1013 q 125 1003 158 1013 l 125 411 q 222 90 125 199 q 506 -19 318 -19 m 792 1007 l 804 896 q 972 963 911 900 q 1032 1133 1032 1025 q 1028 1190 1032 1161 q 910 1182 972 1214 q 913 1156 913 1167 q 914 1131 914 1146 q 884 1041 914 1071 q 792 1007 854 1011 m 458 1176 q 485 1078 456 1115 q 638 1140 582 1090 q 693 1256 693 1189 q 642 1356 693 1319 q 492 1393 590 1393 q 397 1383 440 1393 q 318 1360 353 1374 q 325 1301 317 1329 q 347 1256 333 1274 q 410 1272 375 1264 q 488 1281 444 1281 q 565 1246 565 1281 q 538 1208 565 1224 q 458 1176 511 1193 "},"Ữ":{"ha":1010,"x_min":125,"x_max":1032,"o":"m 506 -19 q 789 90 693 -19 q 885 411 885 199 l 885 1003 q 821 1013 851 1013 q 756 1003 785 1013 l 756 421 q 506 106 756 106 q 254 421 254 106 l 254 1003 q 189 1013 225 1013 q 125 1003 158 1013 l 125 411 q 222 90 125 199 q 506 -19 318 -19 m 792 1007 l 804 896 q 972 963 911 900 q 1032 1133 1032 1025 q 1028 1190 1032 1161 q 910 1182 972 1214 q 913 1156 913 1167 q 914 1131 914 1146 q 884 1041 914 1071 q 792 1007 854 1011 m 607 1250 q 561 1263 585 1250 q 517 1286 538 1275 q 462 1312 489 1301 q 404 1322 435 1322 q 299 1282 344 1322 q 242 1178 254 1242 q 280 1153 257 1160 q 329 1146 303 1147 q 364 1194 349 1178 q 404 1210 379 1210 q 450 1198 425 1210 q 504 1171 475 1186 q 571 1142 549 1149 q 611 1136 593 1136 q 717 1177 675 1136 q 772 1282 758 1218 q 685 1314 742 1314 q 652 1266 667 1282 q 607 1250 638 1250 "},"Ũ":{"ha":1010,"x_min":125,"x_max":885,"o":"m 506 -19 q 789 90 693 -19 q 885 411 885 199 l 885 1003 q 821 1013 851 1013 q 756 1003 785 1013 l 756 421 q 506 106 756 106 q 254 421 254 106 l 254 1003 q 189 1013 225 1013 q 125 1003 158 1013 l 125 411 q 222 90 125 199 q 506 -19 318 -19 m 607 1250 q 561 1263 585 1250 q 517 1286 538 1275 q 462 1312 489 1301 q 404 1322 435 1322 q 299 1282 344 1322 q 242 1178 254 1242 q 280 1153 257 1160 q 329 1146 303 1147 q 364 1194 349 1178 q 404 1210 379 1210 q 450 1198 425 1210 q 504 1171 475 1186 q 571 1142 549 1149 q 611 1136 593 1136 q 717 1177 675 1136 q 772 1282 758 1218 q 685 1314 742 1314 q 652 1266 667 1282 q 607 1250 638 1250 "},"V":{"ha":964,"x_min":42,"x_max":922,"o":"m 429 0 q 454 -7 440 -4 q 488 -10 468 -10 q 520 -7 507 -10 q 544 0 533 -4 l 922 974 q 871 1003 904 990 q 804 1017 838 1015 l 488 197 l 161 1017 q 42 974 94 1010 l 429 0 "},"W":{"ha":1382,"x_min":60,"x_max":1322,"o":"m 383 -10 q 443 0 413 -10 l 692 646 l 942 0 q 1000 -10 969 -10 q 1060 0 1029 -10 l 1322 988 q 1271 1010 1304 1001 q 1201 1015 1238 1019 l 986 211 l 750 822 q 693 832 721 832 q 633 822 661 832 l 399 214 l 183 1015 q 117 1010 156 1019 q 60 988 79 1001 l 325 0 q 383 -10 353 -10 "},"X":{"ha":943,"x_min":63,"x_max":881,"o":"m 163 -19 l 468 410 l 776 -19 q 840 1 811 -17 q 881 53 868 19 l 553 508 l 860 944 q 821 991 846 972 q 757 1017 796 1010 l 475 618 l 188 1017 q 85 944 114 1001 l 390 518 l 63 58 q 99 6 69 29 q 163 -19 129 -17 "},"Y":{"ha":913,"x_min":36,"x_max":876,"o":"m 458 -10 q 522 0 493 -10 l 522 382 l 876 954 q 833 999 867 981 q 768 1015 800 1017 l 458 518 l 146 1017 q 85 999 118 1017 q 36 953 51 982 l 393 383 l 393 0 q 458 -10 426 -10 "},"Ý":{"ha":913,"x_min":36,"x_max":876,"o":"m 458 -10 q 522 0 493 -10 l 522 382 l 876 954 q 833 999 867 981 q 768 1015 800 1017 l 458 518 l 146 1017 q 85 999 118 1017 q 36 953 51 982 l 393 383 l 393 0 q 458 -10 426 -10 m 346 1101 q 471 1144 407 1117 q 588 1203 535 1172 q 668 1257 640 1233 q 603 1358 664 1319 q 524 1308 575 1336 q 415 1256 472 1281 q 307 1217 357 1232 q 316 1156 306 1186 q 346 1101 326 1125 "},"Ÿ":{"ha":913,"x_min":36,"x_max":876,"o":"m 458 -10 q 522 0 493 -10 l 522 382 l 876 954 q 833 999 867 981 q 768 1015 800 1017 l 458 518 l 146 1017 q 85 999 118 1017 q 36 953 51 982 l 393 383 l 393 0 q 458 -10 426 -10 m 596 1129 q 658 1154 632 1129 q 683 1217 683 1179 q 658 1278 683 1253 q 596 1304 632 1304 q 534 1278 560 1304 q 508 1217 508 1253 q 534 1155 508 1181 q 596 1129 560 1129 m 308 1129 q 371 1154 344 1129 q 397 1217 397 1179 q 371 1278 397 1253 q 308 1304 344 1304 q 248 1278 274 1304 q 222 1217 222 1253 q 248 1155 222 1181 q 308 1129 274 1129 "},"Ỵ":{"ha":913,"x_min":36,"x_max":876,"o":"m 458 -10 q 522 0 493 -10 l 522 382 l 876 954 q 833 999 867 981 q 768 1015 800 1017 l 458 518 l 146 1017 q 85 999 118 1017 q 36 953 51 982 l 393 383 l 393 0 q 458 -10 426 -10 m 457 -393 q 524 -366 497 -393 q 551 -299 551 -339 q 525 -231 551 -257 q 457 -204 499 -204 q 390 -231 417 -204 q 363 -299 363 -257 q 390 -365 363 -337 q 457 -393 418 -393 "},"Ỳ":{"ha":913,"x_min":36,"x_max":876,"o":"m 458 -10 q 522 0 493 -10 l 522 382 l 876 954 q 833 999 867 981 q 768 1015 800 1017 l 458 518 l 146 1017 q 85 999 118 1017 q 36 953 51 982 l 393 383 l 393 0 q 458 -10 426 -10 m 568 1101 q 598 1156 588 1125 q 607 1217 608 1186 q 499 1256 557 1232 q 391 1308 442 1281 q 311 1358 340 1336 q 246 1257 250 1319 q 326 1203 274 1233 q 443 1144 379 1172 q 568 1101 507 1117 "},"Ỷ":{"ha":913,"x_min":36,"x_max":876,"o":"m 458 -10 q 522 0 493 -10 l 522 382 l 876 954 q 833 999 867 981 q 768 1015 800 1017 l 458 518 l 146 1017 q 85 999 118 1017 q 36 953 51 982 l 393 383 l 393 0 q 458 -10 426 -10 m 410 1176 q 436 1078 407 1115 q 589 1140 533 1090 q 644 1256 644 1189 q 593 1356 644 1319 q 443 1393 542 1393 q 348 1383 392 1393 q 269 1360 304 1374 q 276 1301 268 1329 q 299 1256 285 1274 q 361 1272 326 1264 q 439 1281 396 1281 q 517 1246 517 1281 q 490 1208 517 1224 q 410 1176 463 1193 "},"Ỹ":{"ha":913,"x_min":36,"x_max":876,"o":"m 458 -10 q 522 0 493 -10 l 522 382 l 876 954 q 833 999 867 981 q 768 1015 800 1017 l 458 518 l 146 1017 q 85 999 118 1017 q 36 953 51 982 l 393 383 l 393 0 q 458 -10 426 -10 m 558 1250 q 513 1263 536 1250 q 468 1286 489 1275 q 413 1312 440 1301 q 356 1322 386 1322 q 251 1282 296 1322 q 193 1178 206 1242 q 231 1153 208 1160 q 281 1146 254 1147 q 315 1194 300 1178 q 356 1210 331 1210 q 401 1198 376 1210 q 456 1171 426 1186 q 522 1142 500 1149 q 563 1136 544 1136 q 668 1177 626 1136 q 724 1282 710 1218 q 636 1314 693 1314 q 603 1266 618 1282 q 558 1250 589 1250 "},"Z":{"ha":879,"x_min":82,"x_max":836,"o":"m 119 0 l 824 0 q 836 61 836 24 q 824 119 836 99 l 256 119 l 811 900 q 802 960 814 931 q 765 1003 790 990 l 104 1003 q 93 944 92 982 q 104 883 94 907 l 644 883 l 85 96 q 90 46 82 72 q 119 0 99 19 "},"a":{"ha":886,"x_min":-51,"x_max":925,"o":"m -1 100 q -51 40 -51 100 q -40 -3 -51 14 q -11 -19 -29 -19 q 215 114 129 -19 q 316 16 254 51 q 458 -19 378 -19 q 592 13 532 -19 q 693 103 653 46 q 875 -19 739 -19 q 913 -1 901 -19 q 925 39 925 17 q 917 81 925 61 q 885 100 908 100 q 808 141 831 100 q 785 256 785 182 l 785 663 q 722 672 756 672 q 688 669 704 672 q 658 663 671 667 l 658 606 q 579 656 626 638 q 483 675 532 675 q 320 628 392 675 q 207 499 249 581 q 165 311 165 417 q 167 272 165 292 q 91 147 136 193 q -1 100 46 100 m 294 311 q 321 437 294 382 q 393 524 347 492 q 499 556 439 556 q 588 533 544 556 q 658 472 631 510 l 658 317 q 605 160 658 219 q 464 100 551 100 q 340 156 385 100 q 294 311 294 213 "},"á":{"ha":886,"x_min":-51,"x_max":925,"o":"m -1 100 q -51 40 -51 100 q -40 -3 -51 14 q -11 -19 -29 -19 q 215 114 129 -19 q 316 16 254 51 q 458 -19 378 -19 q 592 13 532 -19 q 693 103 653 46 q 875 -19 739 -19 q 913 -1 901 -19 q 925 39 925 17 q 917 81 925 61 q 885 100 908 100 q 808 141 831 100 q 785 256 785 182 l 785 663 q 722 672 756 672 q 688 669 704 672 q 658 663 671 667 l 658 606 q 579 656 626 638 q 483 675 532 675 q 320 628 392 675 q 207 499 249 581 q 165 311 165 417 q 167 272 165 292 q 91 147 136 193 q -1 100 46 100 m 294 311 q 321 437 294 382 q 393 524 347 492 q 499 556 439 556 q 588 533 544 556 q 658 472 631 510 l 658 317 q 605 160 658 219 q 464 100 551 100 q 340 156 385 100 q 294 311 294 213 m 417 796 q 519 872 471 829 q 605 956 567 914 q 663 1028 643 997 q 626 1076 650 1056 q 569 1104 601 1096 q 513 1038 549 1075 q 433 963 476 1000 q 346 894 389 925 q 417 796 361 831 "},"ă":{"ha":886,"x_min":-51,"x_max":925,"o":"m -1 100 q -51 40 -51 100 q -40 -3 -51 14 q -11 -19 -29 -19 q 215 114 129 -19 q 316 16 254 51 q 458 -19 378 -19 q 592 13 532 -19 q 693 103 653 46 q 875 -19 739 -19 q 913 -1 901 -19 q 925 39 925 17 q 917 81 925 61 q 885 100 908 100 q 808 141 831 100 q 785 256 785 182 l 785 663 q 722 672 756 672 q 688 669 704 672 q 658 663 671 667 l 658 606 q 579 656 626 638 q 483 675 532 675 q 320 628 392 675 q 207 499 249 581 q 165 311 165 417 q 167 272 165 292 q 91 147 136 193 q -1 100 46 100 m 294 311 q 321 437 294 382 q 393 524 347 492 q 499 556 439 556 q 588 533 544 556 q 658 472 631 510 l 658 317 q 605 160 658 219 q 464 100 551 100 q 340 156 385 100 q 294 311 294 213 m 503 796 q 679 860 614 796 q 756 1046 744 925 q 700 1066 733 1061 q 638 1064 667 1071 q 595 952 628 990 q 503 914 563 914 q 411 952 443 914 q 368 1064 379 990 q 306 1066 339 1071 q 250 1046 274 1061 q 327 860 261 925 q 503 796 393 796 "},"ắ":{"ha":886,"x_min":-51,"x_max":925,"o":"m -1 100 q -51 40 -51 100 q -40 -3 -51 14 q -11 -19 -29 -19 q 215 114 129 -19 q 316 16 254 51 q 458 -19 378 -19 q 592 13 532 -19 q 693 103 653 46 q 875 -19 739 -19 q 913 -1 901 -19 q 925 39 925 17 q 917 81 925 61 q 885 100 908 100 q 808 141 831 100 q 785 256 785 182 l 785 663 q 722 672 756 672 q 688 669 704 672 q 658 663 671 667 l 658 606 q 579 656 626 638 q 483 675 532 675 q 320 628 392 675 q 207 499 249 581 q 165 311 165 417 q 167 272 165 292 q 91 147 136 193 q -1 100 46 100 m 294 311 q 321 437 294 382 q 393 524 347 492 q 499 556 439 556 q 588 533 544 556 q 658 472 631 510 l 658 317 q 605 160 658 219 q 464 100 551 100 q 340 156 385 100 q 294 311 294 213 m 586 1388 l 431 1196 q 467 1147 442 1168 q 522 1115 492 1125 l 683 1314 q 644 1362 671 1342 q 586 1388 617 1382 m 503 796 q 679 860 614 796 q 756 1046 744 925 q 700 1066 733 1061 q 638 1064 667 1071 q 595 952 628 990 q 503 914 563 914 q 411 952 443 914 q 368 1064 379 990 q 306 1066 339 1071 q 250 1046 274 1061 q 327 860 261 925 q 503 796 393 796 "},"ặ":{"ha":886,"x_min":-51,"x_max":925,"o":"m -1 100 q -51 40 -51 100 q -40 -3 -51 14 q -11 -19 -29 -19 q 215 114 129 -19 q 316 16 254 51 q 458 -19 378 -19 q 592 13 532 -19 q 693 103 653 46 q 875 -19 739 -19 q 913 -1 901 -19 q 925 39 925 17 q 917 81 925 61 q 885 100 908 100 q 808 141 831 100 q 785 256 785 182 l 785 663 q 722 672 756 672 q 688 669 704 672 q 658 663 671 667 l 658 606 q 579 656 626 638 q 483 675 532 675 q 320 628 392 675 q 207 499 249 581 q 165 311 165 417 q 167 272 165 292 q 91 147 136 193 q -1 100 46 100 m 294 311 q 321 437 294 382 q 393 524 347 492 q 499 556 439 556 q 588 533 544 556 q 658 472 631 510 l 658 317 q 605 160 658 219 q 464 100 551 100 q 340 156 385 100 q 294 311 294 213 m 501 -393 q 569 -366 542 -393 q 596 -299 596 -339 q 569 -231 596 -257 q 501 -204 543 -204 q 434 -231 461 -204 q 407 -299 407 -257 q 435 -365 407 -337 q 501 -393 463 -393 m 503 796 q 679 860 614 796 q 756 1046 744 925 q 700 1066 733 1061 q 638 1064 667 1071 q 595 952 628 990 q 503 914 563 914 q 411 952 443 914 q 368 1064 379 990 q 306 1066 339 1071 q 250 1046 274 1061 q 327 860 261 925 q 503 796 393 796 "},"ằ":{"ha":886,"x_min":-51,"x_max":925,"o":"m -1 100 q -51 40 -51 100 q -40 -3 -51 14 q -11 -19 -29 -19 q 215 114 129 -19 q 316 16 254 51 q 458 -19 378 -19 q 592 13 532 -19 q 693 103 653 46 q 875 -19 739 -19 q 913 -1 901 -19 q 925 39 925 17 q 917 81 925 61 q 885 100 908 100 q 808 141 831 100 q 785 256 785 182 l 785 663 q 722 672 756 672 q 688 669 704 672 q 658 663 671 667 l 658 606 q 579 656 626 638 q 483 675 532 675 q 320 628 392 675 q 207 499 249 581 q 165 311 165 417 q 167 272 165 292 q 91 147 136 193 q -1 100 46 100 m 294 311 q 321 437 294 382 q 393 524 347 492 q 499 556 439 556 q 588 533 544 556 q 658 472 631 510 l 658 317 q 605 160 658 219 q 464 100 551 100 q 340 156 385 100 q 294 311 294 213 m 432 1385 q 374 1359 401 1379 q 335 1311 347 1339 l 496 1113 q 552 1144 526 1122 q 588 1193 578 1165 l 432 1385 m 503 796 q 679 860 614 796 q 756 1046 744 925 q 700 1066 733 1061 q 638 1064 667 1071 q 595 952 628 990 q 503 914 563 914 q 411 952 443 914 q 368 1064 379 990 q 306 1066 339 1071 q 250 1046 274 1061 q 327 860 261 925 q 503 796 393 796 "},"ẳ":{"ha":886,"x_min":-51,"x_max":925,"o":"m -1 100 q -51 40 -51 100 q -40 -3 -51 14 q -11 -19 -29 -19 q 215 114 129 -19 q 316 16 254 51 q 458 -19 378 -19 q 592 13 532 -19 q 693 103 653 46 q 875 -19 739 -19 q 913 -1 901 -19 q 925 39 925 17 q 917 81 925 61 q 885 100 908 100 q 808 141 831 100 q 785 256 785 182 l 785 663 q 722 672 756 672 q 688 669 704 672 q 658 663 671 667 l 658 606 q 579 656 626 638 q 483 675 532 675 q 320 628 392 675 q 207 499 249 581 q 165 311 165 417 q 167 272 165 292 q 91 147 136 193 q -1 100 46 100 m 294 311 q 321 437 294 382 q 393 524 347 492 q 499 556 439 556 q 588 533 544 556 q 658 472 631 510 l 658 317 q 605 160 658 219 q 464 100 551 100 q 340 156 385 100 q 294 311 294 213 m 456 1201 q 465 1147 456 1174 q 490 1103 474 1121 q 572 1137 533 1115 q 633 1193 610 1158 q 657 1275 657 1228 q 611 1378 657 1339 q 475 1418 565 1418 q 382 1409 424 1418 q 313 1385 340 1400 q 320 1328 311 1356 q 343 1283 329 1301 q 406 1302 374 1296 q 465 1308 439 1308 q 533 1264 533 1308 q 516 1229 533 1244 q 456 1201 499 1214 m 503 796 q 679 860 614 796 q 756 1046 744 925 q 700 1066 733 1061 q 638 1064 667 1071 q 595 952 628 990 q 503 914 563 914 q 411 952 443 914 q 368 1064 379 990 q 306 1066 339 1071 q 250 1046 274 1061 q 327 860 261 925 q 503 796 393 796 "},"ẵ":{"ha":886,"x_min":-51,"x_max":925,"o":"m -1 100 q -51 40 -51 100 q -40 -3 -51 14 q -11 -19 -29 -19 q 215 114 129 -19 q 316 16 254 51 q 458 -19 378 -19 q 592 13 532 -19 q 693 103 653 46 q 875 -19 739 -19 q 913 -1 901 -19 q 925 39 925 17 q 917 81 925 61 q 885 100 908 100 q 808 141 831 100 q 785 256 785 182 l 785 663 q 722 672 756 672 q 688 669 704 672 q 658 663 671 667 l 658 606 q 579 656 626 638 q 483 675 532 675 q 320 628 392 675 q 207 499 249 581 q 165 311 165 417 q 167 272 165 292 q 91 147 136 193 q -1 100 46 100 m 294 311 q 321 437 294 382 q 393 524 347 492 q 499 556 439 556 q 588 533 544 556 q 658 472 631 510 l 658 317 q 605 160 658 219 q 464 100 551 100 q 340 156 385 100 q 294 311 294 213 m 597 1186 q 684 1219 647 1186 q 743 1314 721 1253 q 653 1357 710 1357 q 623 1315 640 1326 q 586 1304 606 1304 q 558 1310 574 1304 q 514 1332 542 1317 q 467 1356 488 1347 q 417 1365 447 1365 q 324 1333 364 1365 q 263 1239 285 1300 q 353 1196 296 1196 q 384 1237 367 1225 q 419 1249 401 1249 q 448 1242 433 1249 q 497 1218 463 1236 q 553 1194 531 1201 q 597 1186 575 1186 m 503 796 q 679 860 614 796 q 756 1046 744 925 q 700 1066 733 1061 q 638 1064 667 1071 q 595 952 628 990 q 503 914 563 914 q 411 952 443 914 q 368 1064 379 990 q 306 1066 339 1071 q 250 1046 274 1061 q 327 860 261 925 q 503 796 393 796 "},"â":{"ha":886,"x_min":-51,"x_max":925,"o":"m -1 100 q -51 40 -51 100 q -40 -3 -51 14 q -11 -19 -29 -19 q 215 114 129 -19 q 316 16 254 51 q 458 -19 378 -19 q 592 13 532 -19 q 693 103 653 46 q 875 -19 739 -19 q 913 -1 901 -19 q 925 39 925 17 q 917 81 925 61 q 885 100 908 100 q 808 141 831 100 q 785 256 785 182 l 785 663 q 722 672 756 672 q 688 669 704 672 q 658 663 671 667 l 658 606 q 579 656 626 638 q 483 675 532 675 q 320 628 392 675 q 207 499 249 581 q 165 311 165 417 q 167 272 165 292 q 91 147 136 193 q -1 100 46 100 m 294 311 q 321 437 294 382 q 393 524 347 492 q 499 556 439 556 q 588 533 544 556 q 658 472 631 510 l 658 317 q 605 160 658 219 q 464 100 551 100 q 340 156 385 100 q 294 311 294 213 m 338 796 q 414 867 367 817 q 503 967 461 917 q 560 901 529 935 q 619 839 590 867 q 669 796 649 811 q 717 829 693 803 q 750 882 742 856 q 653 981 707 924 q 546 1104 600 1039 q 461 1104 504 1111 q 353 981 407 1039 q 257 882 300 922 q 290 829 265 856 q 338 796 314 803 "},"ấ":{"ha":886,"x_min":-51,"x_max":925,"o":"m -1 100 q -51 40 -51 100 q -40 -3 -51 14 q -11 -19 -29 -19 q 215 114 129 -19 q 316 16 254 51 q 458 -19 378 -19 q 592 13 532 -19 q 693 103 653 46 q 875 -19 739 -19 q 913 -1 901 -19 q 925 39 925 17 q 917 81 925 61 q 885 100 908 100 q 808 141 831 100 q 785 256 785 182 l 785 663 q 722 672 756 672 q 688 669 704 672 q 658 663 671 667 l 658 606 q 579 656 626 638 q 483 675 532 675 q 320 628 392 675 q 207 499 249 581 q 165 311 165 417 q 167 272 165 292 q 91 147 136 193 q -1 100 46 100 m 294 311 q 321 437 294 382 q 393 524 347 492 q 499 556 439 556 q 588 533 544 556 q 658 472 631 510 l 658 317 q 605 160 658 219 q 464 100 551 100 q 340 156 385 100 q 294 311 294 213 m 824 1324 l 668 1132 q 704 1083 679 1104 q 760 1051 729 1061 l 921 1250 q 881 1298 908 1278 q 824 1324 854 1318 m 338 796 q 414 867 367 817 q 503 967 461 917 q 560 901 529 935 q 619 839 590 867 q 669 796 649 811 q 717 829 693 803 q 750 882 742 856 q 653 981 707 924 q 546 1104 600 1039 q 461 1104 504 1111 q 353 981 407 1039 q 257 882 300 922 q 290 829 265 856 q 338 796 314 803 "},"ậ":{"ha":886,"x_min":-51,"x_max":925,"o":"m -1 100 q -51 40 -51 100 q -40 -3 -51 14 q -11 -19 -29 -19 q 215 114 129 -19 q 316 16 254 51 q 458 -19 378 -19 q 592 13 532 -19 q 693 103 653 46 q 875 -19 739 -19 q 913 -1 901 -19 q 925 39 925 17 q 917 81 925 61 q 885 100 908 100 q 808 141 831 100 q 785 256 785 182 l 785 663 q 722 672 756 672 q 688 669 704 672 q 658 663 671 667 l 658 606 q 579 656 626 638 q 483 675 532 675 q 320 628 392 675 q 207 499 249 581 q 165 311 165 417 q 167 272 165 292 q 91 147 136 193 q -1 100 46 100 m 294 311 q 321 437 294 382 q 393 524 347 492 q 499 556 439 556 q 588 533 544 556 q 658 472 631 510 l 658 317 q 605 160 658 219 q 464 100 551 100 q 340 156 385 100 q 294 311 294 213 m 501 -393 q 569 -366 542 -393 q 596 -299 596 -339 q 569 -231 596 -257 q 501 -204 543 -204 q 434 -231 461 -204 q 407 -299 407 -257 q 435 -365 407 -337 q 501 -393 463 -393 m 338 796 q 414 867 367 817 q 503 967 461 917 q 560 901 529 935 q 619 839 590 867 q 669 796 649 811 q 717 829 693 803 q 750 882 742 856 q 653 981 707 924 q 546 1104 600 1039 q 461 1104 504 1111 q 353 981 407 1039 q 257 882 300 922 q 290 829 265 856 q 338 796 314 803 "},"ầ":{"ha":886,"x_min":-51,"x_max":925,"o":"m -1 100 q -51 40 -51 100 q -40 -3 -51 14 q -11 -19 -29 -19 q 215 114 129 -19 q 316 16 254 51 q 458 -19 378 -19 q 592 13 532 -19 q 693 103 653 46 q 875 -19 739 -19 q 913 -1 901 -19 q 925 39 925 17 q 917 81 925 61 q 885 100 908 100 q 808 141 831 100 q 785 256 785 182 l 785 663 q 722 672 756 672 q 688 669 704 672 q 658 663 671 667 l 658 606 q 579 656 626 638 q 483 675 532 675 q 320 628 392 675 q 207 499 249 581 q 165 311 165 417 q 167 272 165 292 q 91 147 136 193 q -1 100 46 100 m 294 311 q 321 437 294 382 q 393 524 347 492 q 499 556 439 556 q 588 533 544 556 q 658 472 631 510 l 658 317 q 605 160 658 219 q 464 100 551 100 q 340 156 385 100 q 294 311 294 213 m 694 1324 q 637 1298 664 1318 q 597 1250 610 1278 l 758 1051 q 815 1083 789 1061 q 850 1132 840 1104 l 694 1324 m 338 796 q 414 867 367 817 q 503 967 461 917 q 560 901 529 935 q 619 839 590 867 q 669 796 649 811 q 717 829 693 803 q 750 882 742 856 q 653 981 707 924 q 546 1104 600 1039 q 461 1104 504 1111 q 353 981 407 1039 q 257 882 300 922 q 290 829 265 856 q 338 796 314 803 "},"ẩ":{"ha":886,"x_min":-51,"x_max":925,"o":"m -1 100 q -51 40 -51 100 q -40 -3 -51 14 q -11 -19 -29 -19 q 215 114 129 -19 q 316 16 254 51 q 458 -19 378 -19 q 592 13 532 -19 q 693 103 653 46 q 875 -19 739 -19 q 913 -1 901 -19 q 925 39 925 17 q 917 81 925 61 q 885 100 908 100 q 808 141 831 100 q 785 256 785 182 l 785 663 q 722 672 756 672 q 688 669 704 672 q 658 663 671 667 l 658 606 q 579 656 626 638 q 483 675 532 675 q 320 628 392 675 q 207 499 249 581 q 165 311 165 417 q 167 272 165 292 q 91 147 136 193 q -1 100 46 100 m 294 311 q 321 437 294 382 q 393 524 347 492 q 499 556 439 556 q 588 533 544 556 q 658 472 631 510 l 658 317 q 605 160 658 219 q 464 100 551 100 q 340 156 385 100 q 294 311 294 213 m 714 1133 q 723 1079 714 1106 q 749 1035 732 1053 q 830 1069 792 1047 q 892 1125 868 1090 q 915 1207 915 1160 q 869 1310 915 1271 q 733 1350 824 1350 q 640 1341 682 1350 q 571 1317 599 1332 q 578 1260 569 1288 q 601 1215 588 1233 q 665 1234 632 1228 q 724 1240 697 1240 q 792 1196 792 1240 q 774 1161 792 1176 q 714 1133 757 1146 m 338 796 q 414 867 367 817 q 503 967 461 917 q 560 901 529 935 q 619 839 590 867 q 669 796 649 811 q 717 829 693 803 q 750 882 742 856 q 653 981 707 924 q 546 1104 600 1039 q 461 1104 504 1111 q 353 981 407 1039 q 257 882 300 922 q 290 829 265 856 q 338 796 314 803 "},"ẫ":{"ha":886,"x_min":-51,"x_max":925,"o":"m -1 100 q -51 40 -51 100 q -40 -3 -51 14 q -11 -19 -29 -19 q 215 114 129 -19 q 316 16 254 51 q 458 -19 378 -19 q 592 13 532 -19 q 693 103 653 46 q 875 -19 739 -19 q 913 -1 901 -19 q 925 39 925 17 q 917 81 925 61 q 885 100 908 100 q 808 141 831 100 q 785 256 785 182 l 785 663 q 722 672 756 672 q 688 669 704 672 q 658 663 671 667 l 658 606 q 579 656 626 638 q 483 675 532 675 q 320 628 392 675 q 207 499 249 581 q 165 311 165 417 q 167 272 165 292 q 91 147 136 193 q -1 100 46 100 m 294 311 q 321 437 294 382 q 393 524 347 492 q 499 556 439 556 q 588 533 544 556 q 658 472 631 510 l 658 317 q 605 160 658 219 q 464 100 551 100 q 340 156 385 100 q 294 311 294 213 m 597 1186 q 684 1219 647 1186 q 743 1314 721 1253 q 653 1357 710 1357 q 623 1315 640 1326 q 586 1304 606 1304 q 558 1310 574 1304 q 514 1332 542 1317 q 467 1356 488 1347 q 417 1365 447 1365 q 324 1333 364 1365 q 263 1239 285 1300 q 353 1196 296 1196 q 384 1237 367 1225 q 419 1249 401 1249 q 448 1242 433 1249 q 497 1218 463 1236 q 553 1194 531 1201 q 597 1186 575 1186 m 336 796 q 413 867 365 817 q 501 967 460 917 q 558 901 528 935 q 618 839 589 867 q 668 796 647 811 q 716 829 692 803 q 749 882 740 856 q 652 981 706 924 q 544 1104 599 1039 q 460 1104 503 1111 q 352 981 406 1039 q 256 882 299 922 q 288 829 264 856 q 336 796 313 803 "},"ä":{"ha":886,"x_min":-51,"x_max":925,"o":"m -1 100 q -51 40 -51 100 q -40 -3 -51 14 q -11 -19 -29 -19 q 215 114 129 -19 q 316 16 254 51 q 458 -19 378 -19 q 592 13 532 -19 q 693 103 653 46 q 875 -19 739 -19 q 913 -1 901 -19 q 925 39 925 17 q 917 81 925 61 q 885 100 908 100 q 808 141 831 100 q 785 256 785 182 l 785 663 q 722 672 756 672 q 688 669 704 672 q 658 663 671 667 l 658 606 q 579 656 626 638 q 483 675 532 675 q 320 628 392 675 q 207 499 249 581 q 165 311 165 417 q 167 272 165 292 q 91 147 136 193 q -1 100 46 100 m 294 311 q 321 437 294 382 q 393 524 347 492 q 499 556 439 556 q 588 533 544 556 q 658 472 631 510 l 658 317 q 605 160 658 219 q 464 100 551 100 q 340 156 385 100 q 294 311 294 213 m 375 856 q 440 883 417 856 q 463 950 463 911 q 440 1017 463 990 q 375 1044 417 1044 q 310 1017 333 1044 q 288 950 288 990 q 310 883 288 911 q 375 856 333 856 m 622 856 q 687 883 664 856 q 710 950 710 911 q 687 1017 710 990 q 622 1044 664 1044 q 558 1017 581 1044 q 535 950 535 990 q 558 883 535 911 q 622 856 581 856 "},"ạ":{"ha":886,"x_min":-51,"x_max":925,"o":"m -1 100 q -51 40 -51 100 q -40 -3 -51 14 q -11 -19 -29 -19 q 215 114 129 -19 q 316 16 254 51 q 458 -19 378 -19 q 592 13 532 -19 q 693 103 653 46 q 875 -19 739 -19 q 913 -1 901 -19 q 925 39 925 17 q 917 81 925 61 q 885 100 908 100 q 808 141 831 100 q 785 256 785 182 l 785 663 q 722 672 756 672 q 688 669 704 672 q 658 663 671 667 l 658 606 q 579 656 626 638 q 483 675 532 675 q 320 628 392 675 q 207 499 249 581 q 165 311 165 417 q 167 272 165 292 q 91 147 136 193 q -1 100 46 100 m 294 311 q 321 437 294 382 q 393 524 347 492 q 499 556 439 556 q 588 533 544 556 q 658 472 631 510 l 658 317 q 605 160 658 219 q 464 100 551 100 q 340 156 385 100 q 294 311 294 213 m 501 -393 q 569 -366 542 -393 q 596 -299 596 -339 q 569 -231 596 -257 q 501 -204 543 -204 q 434 -231 461 -204 q 407 -299 407 -257 q 435 -365 407 -337 q 501 -393 463 -393 "},"à":{"ha":886,"x_min":-51,"x_max":925,"o":"m -1 100 q -51 40 -51 100 q -40 -3 -51 14 q -11 -19 -29 -19 q 215 114 129 -19 q 316 16 254 51 q 458 -19 378 -19 q 592 13 532 -19 q 693 103 653 46 q 875 -19 739 -19 q 913 -1 901 -19 q 925 39 925 17 q 917 81 925 61 q 885 100 908 100 q 808 141 831 100 q 785 256 785 182 l 785 663 q 722 672 756 672 q 688 669 704 672 q 658 663 671 667 l 658 606 q 579 656 626 638 q 483 675 532 675 q 320 628 392 675 q 207 499 249 581 q 165 311 165 417 q 167 272 165 292 q 91 147 136 193 q -1 100 46 100 m 294 311 q 321 437 294 382 q 393 524 347 492 q 499 556 439 556 q 588 533 544 556 q 658 472 631 510 l 658 317 q 605 160 658 219 q 464 100 551 100 q 340 156 385 100 q 294 311 294 213 m 581 796 q 626 839 607 813 q 653 894 644 865 q 565 963 610 925 q 482 1038 519 1000 q 424 1104 444 1075 q 367 1076 392 1096 q 329 1028 342 1056 q 389 956 350 997 q 478 872 428 914 q 581 796 528 829 "},"ả":{"ha":886,"x_min":-51,"x_max":925,"o":"m -1 100 q -51 40 -51 100 q -40 -3 -51 14 q -11 -19 -29 -19 q 215 114 129 -19 q 316 16 254 51 q 458 -19 378 -19 q 592 13 532 -19 q 693 103 653 46 q 875 -19 739 -19 q 913 -1 901 -19 q 925 39 925 17 q 917 81 925 61 q 885 100 908 100 q 808 141 831 100 q 785 256 785 182 l 785 663 q 722 672 756 672 q 688 669 704 672 q 658 663 671 667 l 658 606 q 579 656 626 638 q 483 675 532 675 q 320 628 392 675 q 207 499 249 581 q 165 311 165 417 q 167 272 165 292 q 91 147 136 193 q -1 100 46 100 m 294 311 q 321 437 294 382 q 393 524 347 492 q 499 556 439 556 q 588 533 544 556 q 658 472 631 510 l 658 317 q 605 160 658 219 q 464 100 551 100 q 340 156 385 100 q 294 311 294 213 m 465 894 q 492 796 463 833 q 644 855 589 808 q 700 971 700 901 q 649 1085 700 1044 q 499 1125 599 1125 q 403 1115 447 1125 q 325 1092 360 1106 q 332 1033 324 1061 q 354 988 340 1006 q 417 1004 382 996 q 490 1013 451 1013 q 572 967 572 1013 q 465 894 572 922 "},"å":{"ha":886,"x_min":-51,"x_max":925,"o":"m -1 100 q -51 40 -51 100 q -40 -3 -51 14 q -11 -19 -29 -19 q 215 114 129 -19 q 316 16 254 51 q 458 -19 378 -19 q 592 13 532 -19 q 693 103 653 46 q 875 -19 739 -19 q 913 -1 901 -19 q 925 39 925 17 q 917 81 925 61 q 885 100 908 100 q 808 141 831 100 q 785 256 785 182 l 785 663 q 722 672 756 672 q 688 669 704 672 q 658 663 671 667 l 658 606 q 579 656 626 638 q 483 675 532 675 q 320 628 392 675 q 207 499 249 581 q 165 311 165 417 q 167 272 165 292 q 91 147 136 193 q -1 100 46 100 m 294 311 q 321 437 294 382 q 393 524 347 492 q 499 556 439 556 q 588 533 544 556 q 658 472 631 510 l 658 317 q 605 160 658 219 q 464 100 551 100 q 340 156 385 100 q 294 311 294 213 m 504 789 q 617 835 572 789 q 661 950 661 882 q 616 1065 661 1019 q 504 1110 571 1110 q 391 1064 436 1110 q 346 950 346 1018 q 391 835 346 882 q 504 789 436 789 m 504 890 q 462 908 479 890 q 444 950 444 926 q 462 992 444 975 q 504 1010 479 1010 q 547 992 529 1010 q 564 950 564 975 q 547 908 564 926 q 504 890 529 890 "},"ã":{"ha":886,"x_min":-51,"x_max":925,"o":"m -1 100 q -51 40 -51 100 q -40 -3 -51 14 q -11 -19 -29 -19 q 215 114 129 -19 q 316 16 254 51 q 458 -19 378 -19 q 592 13 532 -19 q 693 103 653 46 q 875 -19 739 -19 q 913 -1 901 -19 q 925 39 925 17 q 917 81 925 61 q 885 100 908 100 q 808 141 831 100 q 785 256 785 182 l 785 663 q 722 672 756 672 q 688 669 704 672 q 658 663 671 667 l 658 606 q 579 656 626 638 q 483 675 532 675 q 320 628 392 675 q 207 499 249 581 q 165 311 165 417 q 167 272 165 292 q 91 147 136 193 q -1 100 46 100 m 294 311 q 321 437 294 382 q 393 524 347 492 q 499 556 439 556 q 588 533 544 556 q 658 472 631 510 l 658 317 q 605 160 658 219 q 464 100 551 100 q 340 156 385 100 q 294 311 294 213 m 603 956 q 557 968 581 956 q 513 992 533 981 q 458 1017 485 1007 q 400 1028 431 1028 q 295 988 340 1028 q 238 883 250 947 q 276 859 253 865 q 325 851 299 853 q 360 899 344 883 q 400 915 375 915 q 446 903 421 915 q 500 876 471 892 q 567 848 544 854 q 607 842 589 842 q 713 883 671 842 q 768 988 754 924 q 681 1019 738 1019 q 648 972 663 988 q 603 956 633 956 "},"æ":{"ha":1157,"x_min":-51,"x_max":1160,"o":"m -1 100 q -51 40 -51 100 q -40 -3 -51 14 q -11 -19 -29 -19 q 215 114 129 -19 q 316 16 254 51 q 458 -19 378 -19 q 614 26 546 -19 q 718 149 682 71 q 833 25 758 69 q 1007 -19 907 -19 q 1058 39 1058 -19 q 1047 82 1058 65 q 1017 99 1036 99 q 879 141 938 99 q 797 254 821 183 q 838 253 818 253 q 1072 317 985 253 q 1160 488 1160 382 q 1132 585 1160 542 q 1057 652 1104 628 q 949 676 1010 676 q 785 615 854 676 l 785 663 q 722 672 756 672 q 688 669 704 672 q 658 663 671 667 l 658 606 q 579 656 626 638 q 483 675 532 675 q 320 628 392 675 q 207 499 249 581 q 165 311 165 417 q 167 272 165 292 q 91 147 136 193 q -1 100 46 100 m 949 561 q 1013 538 986 561 q 1040 481 1040 515 q 984 397 1040 429 q 838 364 928 364 q 786 368 813 364 q 835 508 792 456 q 949 561 879 561 m 294 311 q 321 437 294 382 q 393 524 347 492 q 499 556 439 556 q 588 533 544 556 q 658 472 631 510 l 658 317 q 605 160 658 219 q 464 100 551 100 q 340 156 385 100 q 294 311 294 213 "},"b":{"ha":942,"x_min":-51,"x_max":835,"o":"m -11 -19 q 246 103 128 -19 q 261 81 253 92 q 465 -14 335 -14 q 658 49 575 -14 q 788 224 740 113 q 835 482 835 336 q 815 603 835 567 q 750 640 794 640 q 667 610 707 640 q 613 535 628 581 q 711 447 639 496 q 674 272 707 350 q 589 149 642 194 q 472 104 536 104 q 350 168 388 104 q 338 194 343 179 q 501 459 433 318 q 603 747 568 600 q 638 1029 638 893 q 581 1277 638 1185 q 418 1369 525 1369 q 297 1331 350 1369 q 219 1225 243 1292 q 199 1100 201 1174 q 196 921 196 1026 l 196 363 q 203 233 196 286 q 99 135 153 171 q -3 100 44 100 q -38 84 -25 100 q -51 40 -51 68 q -40 -3 -51 14 q -11 -19 -29 -19 m 333 1178 q 413 1254 357 1254 q 514 1031 514 1254 q 464 699 514 872 q 318 360 414 526 l 318 938 q 320 1085 318 1029 q 333 1178 322 1140 "},"c":{"ha":664,"x_min":-51,"x_max":672,"o":"m -1 100 q -51 40 -51 100 q -40 -3 -51 14 q -11 -19 -29 -19 q 218 118 132 -19 q 340 17 264 53 q 515 -19 417 -19 q 552 -4 539 -19 q 565 38 565 11 q 553 81 565 64 q 524 99 542 99 q 348 163 410 99 q 286 332 286 226 q 335 495 286 435 q 465 556 385 556 q 592 493 546 556 q 672 575 656 518 q 583 649 638 624 q 461 675 528 675 q 303 630 372 675 q 196 506 235 585 q 157 325 157 428 q 163 260 157 292 q 87 143 131 186 q -1 100 43 100 "},"ç":{"ha":664,"x_min":-51,"x_max":672,"o":"m -1 100 q -51 40 -51 100 q -40 -3 -51 14 q -11 -19 -29 -19 q 218 118 132 -19 q 340 17 264 53 q 515 -19 417 -19 q 552 -4 539 -19 q 565 38 565 11 q 553 81 565 64 q 524 99 542 99 q 348 163 410 99 q 286 332 286 226 q 335 495 286 435 q 465 556 385 556 q 592 493 546 556 q 672 575 656 518 q 583 649 638 624 q 461 675 528 675 q 303 630 372 675 q 196 506 235 585 q 157 325 157 428 q 163 260 157 292 q 87 143 131 186 q -1 100 43 100 m 450 -361 q 594 -321 540 -361 q 649 -212 649 -281 q 613 -124 649 -160 q 514 -74 578 -89 l 519 10 l 408 10 l 399 -147 q 532 -210 532 -157 q 509 -247 532 -235 q 446 -260 486 -260 q 402 -257 424 -260 q 365 -250 381 -254 q 350 -349 333 -293 q 397 -358 369 -354 q 450 -361 424 -361 "},"d":{"ha":871,"x_min":-51,"x_max":910,"o":"m -1 100 q -51 40 -51 100 q -40 -3 -51 14 q -11 -19 -29 -19 q 215 114 129 -19 q 316 16 254 51 q 458 -19 378 -19 q 585 9 528 -19 q 682 89 642 38 q 860 -19 728 -19 q 898 -1 886 -19 q 910 39 910 17 q 899 83 910 67 q 869 100 889 100 q 805 133 825 100 q 785 243 785 167 l 785 1185 q 722 1196 758 1196 q 658 1185 686 1196 l 658 606 q 579 656 626 638 q 483 675 532 675 q 320 628 392 675 q 207 499 249 581 q 165 311 165 417 q 167 272 165 292 q 91 147 136 193 q -1 100 46 100 m 294 311 q 321 437 294 382 q 393 524 347 492 q 499 556 439 556 q 588 533 544 556 q 658 472 631 510 l 658 317 q 605 160 658 219 q 464 100 551 100 q 340 156 385 100 q 294 311 294 213 "},"đ":{"ha":871,"x_min":-51,"x_max":910,"o":"m -1 100 q -51 40 -51 100 q -40 -3 -51 14 q -11 -19 -29 -19 q 215 114 129 -19 q 316 16 254 51 q 458 -19 378 -19 q 585 9 528 -19 q 682 89 642 38 q 860 -19 728 -19 q 898 -1 886 -19 q 910 39 910 17 q 899 83 910 67 q 869 100 889 100 q 805 133 825 100 q 785 243 785 167 l 785 892 l 899 892 q 910 947 910 914 q 899 1003 910 981 l 785 1003 l 785 1185 q 721 1195 756 1194 q 658 1185 686 1196 l 658 1003 l 447 1003 q 438 947 438 981 q 447 892 438 914 l 658 892 l 658 606 q 579 656 626 638 q 483 675 532 675 q 320 628 392 675 q 207 499 249 581 q 165 311 165 417 q 167 272 165 292 q 91 147 136 193 q -1 100 46 100 m 294 311 q 321 437 294 382 q 393 524 347 492 q 499 556 439 556 q 588 533 544 556 q 658 472 631 510 l 658 317 q 605 160 658 219 q 464 100 551 100 q 340 156 385 100 q 294 311 294 213 "},"e":{"ha":614,"x_min":-51,"x_max":582,"o":"m -11 -19 q 244 64 111 -19 q 342 3 283 25 q 467 -19 400 -19 q 503 -4 490 -19 q 515 38 515 11 q 504 82 515 65 q 474 99 493 99 q 354 131 399 99 q 530 290 478 217 q 582 453 582 364 q 556 568 582 518 q 482 647 529 618 q 374 675 435 675 q 244 637 301 675 q 156 533 188 599 q 124 381 124 467 q 178 158 124 253 q 81 113 122 126 q -1 100 39 100 q -51 40 -51 100 q -40 -3 -51 14 q -11 -19 -29 -19 m 244 392 q 280 511 244 463 q 369 560 315 560 q 437 531 413 560 q 461 453 461 503 q 417 339 461 399 q 283 217 374 279 q 244 392 244 282 "},"é":{"ha":614,"x_min":-51,"x_max":582,"o":"m -11 -19 q 244 64 111 -19 q 342 3 283 25 q 467 -19 400 -19 q 503 -4 490 -19 q 515 38 515 11 q 504 82 515 65 q 474 99 493 99 q 354 131 399 99 q 530 290 478 217 q 582 453 582 364 q 556 568 582 518 q 482 647 529 618 q 374 675 435 675 q 244 637 301 675 q 156 533 188 599 q 124 381 124 467 q 178 158 124 253 q 81 113 122 126 q -1 100 39 100 q -51 40 -51 100 q -40 -3 -51 14 q -11 -19 -29 -19 m 244 392 q 280 511 244 463 q 369 560 315 560 q 437 531 413 560 q 461 453 461 503 q 417 339 461 399 q 283 217 374 279 q 244 392 244 282 m 271 796 q 373 872 325 829 q 459 956 421 914 q 517 1028 497 997 q 480 1076 504 1056 q 424 1104 456 1096 q 367 1038 403 1075 q 287 963 331 1000 q 200 894 243 925 q 271 796 215 831 "},"ĕ":{"ha":614,"x_min":-51,"x_max":610,"o":"m -11 -19 q 244 64 111 -19 q 342 3 283 25 q 467 -19 400 -19 q 503 -4 490 -19 q 515 38 515 11 q 504 82 515 65 q 474 99 493 99 q 354 131 399 99 q 530 290 478 217 q 582 453 582 364 q 556 568 582 518 q 482 647 529 618 q 374 675 435 675 q 244 637 301 675 q 156 533 188 599 q 124 381 124 467 q 178 158 124 253 q 81 113 122 126 q -1 100 39 100 q -51 40 -51 100 q -40 -3 -51 14 q -11 -19 -29 -19 m 244 392 q 280 511 244 463 q 369 560 315 560 q 437 531 413 560 q 461 453 461 503 q 417 339 461 399 q 283 217 374 279 q 244 392 244 282 m 357 796 q 533 860 468 796 q 610 1046 599 925 q 554 1066 588 1061 q 492 1064 521 1071 q 449 952 482 990 q 357 914 417 914 q 265 952 297 914 q 222 1064 233 990 q 160 1066 193 1071 q 104 1046 128 1061 q 181 860 115 925 q 357 796 247 796 "},"ê":{"ha":614,"x_min":-51,"x_max":604,"o":"m -11 -19 q 244 64 111 -19 q 342 3 283 25 q 467 -19 400 -19 q 503 -4 490 -19 q 515 38 515 11 q 504 82 515 65 q 474 99 493 99 q 354 131 399 99 q 530 290 478 217 q 582 453 582 364 q 556 568 582 518 q 482 647 529 618 q 374 675 435 675 q 244 637 301 675 q 156 533 188 599 q 124 381 124 467 q 178 158 124 253 q 81 113 122 126 q -1 100 39 100 q -51 40 -51 100 q -40 -3 -51 14 q -11 -19 -29 -19 m 244 392 q 280 511 244 463 q 369 560 315 560 q 437 531 413 560 q 461 453 461 503 q 417 339 461 399 q 283 217 374 279 q 244 392 244 282 m 192 796 q 268 867 221 817 q 357 967 315 917 q 414 901 383 935 q 474 839 444 867 q 524 796 503 811 q 572 829 547 803 q 604 882 596 856 q 508 981 561 924 q 400 1104 454 1039 q 315 1104 358 1111 q 208 981 261 1039 q 111 882 154 922 q 144 829 119 856 q 192 796 168 803 "},"ế":{"ha":614,"x_min":-51,"x_max":775,"o":"m -11 -19 q 244 64 111 -19 q 342 3 283 25 q 467 -19 400 -19 q 503 -4 490 -19 q 515 38 515 11 q 504 82 515 65 q 474 99 493 99 q 354 131 399 99 q 530 290 478 217 q 582 453 582 364 q 556 568 582 518 q 482 647 529 618 q 374 675 435 675 q 244 637 301 675 q 156 533 188 599 q 124 381 124 467 q 178 158 124 253 q 81 113 122 126 q -1 100 39 100 q -51 40 -51 100 q -40 -3 -51 14 q -11 -19 -29 -19 m 244 392 q 280 511 244 463 q 369 560 315 560 q 437 531 413 560 q 461 453 461 503 q 417 339 461 399 q 283 217 374 279 q 244 392 244 282 m 678 1324 l 522 1132 q 558 1083 533 1104 q 614 1051 583 1061 l 775 1250 q 735 1298 763 1278 q 678 1324 708 1318 m 192 796 q 268 867 221 817 q 357 967 315 917 q 414 901 383 935 q 474 839 444 867 q 524 796 503 811 q 572 829 547 803 q 604 882 596 856 q 508 981 561 924 q 400 1104 454 1039 q 315 1104 358 1111 q 208 981 261 1039 q 111 882 154 922 q 144 829 119 856 q 192 796 168 803 "},"ệ":{"ha":614,"x_min":-51,"x_max":604,"o":"m -11 -19 q 244 64 111 -19 q 342 3 283 25 q 467 -19 400 -19 q 503 -4 490 -19 q 515 38 515 11 q 504 82 515 65 q 474 99 493 99 q 354 131 399 99 q 530 290 478 217 q 582 453 582 364 q 556 568 582 518 q 482 647 529 618 q 374 675 435 675 q 244 637 301 675 q 156 533 188 599 q 124 381 124 467 q 178 158 124 253 q 81 113 122 126 q -1 100 39 100 q -51 40 -51 100 q -40 -3 -51 14 q -11 -19 -29 -19 m 244 392 q 280 511 244 463 q 369 560 315 560 q 437 531 413 560 q 461 453 461 503 q 417 339 461 399 q 283 217 374 279 q 244 392 244 282 m 325 -393 q 392 -366 365 -393 q 419 -299 419 -339 q 393 -231 419 -257 q 325 -204 367 -204 q 258 -231 285 -204 q 231 -299 231 -257 q 258 -365 231 -337 q 325 -393 286 -393 m 192 796 q 268 867 221 817 q 357 967 315 917 q 414 901 383 935 q 474 839 444 867 q 524 796 503 811 q 572 829 547 803 q 604 882 596 856 q 508 981 561 924 q 400 1104 454 1039 q 315 1104 358 1111 q 208 981 261 1039 q 111 882 154 922 q 144 829 119 856 q 192 796 168 803 "},"ề":{"ha":614,"x_min":-51,"x_max":704,"o":"m -11 -19 q 244 64 111 -19 q 342 3 283 25 q 467 -19 400 -19 q 503 -4 490 -19 q 515 38 515 11 q 504 82 515 65 q 474 99 493 99 q 354 131 399 99 q 530 290 478 217 q 582 453 582 364 q 556 568 582 518 q 482 647 529 618 q 374 675 435 675 q 244 637 301 675 q 156 533 188 599 q 124 381 124 467 q 178 158 124 253 q 81 113 122 126 q -1 100 39 100 q -51 40 -51 100 q -40 -3 -51 14 q -11 -19 -29 -19 m 244 392 q 280 511 244 463 q 369 560 315 560 q 437 531 413 560 q 461 453 461 503 q 417 339 461 399 q 283 217 374 279 q 244 392 244 282 m 549 1324 q 491 1298 518 1318 q 451 1250 464 1278 l 613 1051 q 669 1083 643 1061 q 704 1132 694 1104 l 549 1324 m 192 796 q 268 867 221 817 q 357 967 315 917 q 414 901 383 935 q 474 839 444 867 q 524 796 503 811 q 572 829 547 803 q 604 882 596 856 q 508 981 561 924 q 400 1104 454 1039 q 315 1104 358 1111 q 208 981 261 1039 q 111 882 154 922 q 144 829 119 856 q 192 796 168 803 "},"ể":{"ha":614,"x_min":-51,"x_max":769,"o":"m -11 -19 q 244 64 111 -19 q 342 3 283 25 q 467 -19 400 -19 q 503 -4 490 -19 q 515 38 515 11 q 504 82 515 65 q 474 99 493 99 q 354 131 399 99 q 530 290 478 217 q 582 453 582 364 q 556 568 582 518 q 482 647 529 618 q 374 675 435 675 q 244 637 301 675 q 156 533 188 599 q 124 381 124 467 q 178 158 124 253 q 81 113 122 126 q -1 100 39 100 q -51 40 -51 100 q -40 -3 -51 14 q -11 -19 -29 -19 m 244 392 q 280 511 244 463 q 369 560 315 560 q 437 531 413 560 q 461 453 461 503 q 417 339 461 399 q 283 217 374 279 q 244 392 244 282 m 568 1133 q 577 1079 568 1106 q 603 1035 586 1053 q 684 1069 646 1047 q 746 1125 722 1090 q 769 1207 769 1160 q 724 1310 769 1271 q 588 1350 678 1350 q 494 1341 536 1350 q 425 1317 453 1332 q 433 1260 424 1288 q 456 1215 442 1233 q 519 1234 486 1228 q 578 1240 551 1240 q 646 1196 646 1240 q 628 1161 646 1176 q 568 1133 611 1146 m 192 796 q 268 867 221 817 q 357 967 315 917 q 414 901 383 935 q 474 839 444 867 q 524 796 503 811 q 572 829 547 803 q 604 882 596 856 q 508 981 561 924 q 400 1104 454 1039 q 315 1104 358 1111 q 208 981 261 1039 q 111 882 154 922 q 144 829 119 856 q 192 796 168 803 "},"ễ":{"ha":614,"x_min":-51,"x_max":603,"o":"m -11 -19 q 244 64 111 -19 q 342 3 283 25 q 467 -19 400 -19 q 503 -4 490 -19 q 515 38 515 11 q 504 82 515 65 q 474 99 493 99 q 354 131 399 99 q 530 290 478 217 q 582 453 582 364 q 556 568 582 518 q 482 647 529 618 q 374 675 435 675 q 244 637 301 675 q 156 533 188 599 q 124 381 124 467 q 178 158 124 253 q 81 113 122 126 q -1 100 39 100 q -51 40 -51 100 q -40 -3 -51 14 q -11 -19 -29 -19 m 244 392 q 280 511 244 463 q 369 560 315 560 q 437 531 413 560 q 461 453 461 503 q 417 339 461 399 q 283 217 374 279 q 244 392 244 282 m 451 1186 q 538 1219 501 1186 q 597 1314 575 1253 q 507 1357 564 1357 q 477 1315 494 1326 q 440 1304 460 1304 q 412 1310 428 1304 q 368 1332 396 1317 q 322 1356 342 1347 q 271 1365 301 1365 q 178 1333 218 1365 q 117 1239 139 1300 q 207 1196 150 1196 q 238 1237 221 1225 q 274 1249 256 1249 q 302 1242 288 1249 q 351 1218 317 1236 q 407 1194 385 1201 q 451 1186 429 1186 m 190 796 q 267 867 219 817 q 356 967 314 917 q 413 901 382 935 q 472 839 443 867 q 522 796 501 811 q 570 829 546 803 q 603 882 594 856 q 506 981 560 924 q 399 1104 453 1039 q 314 1104 357 1111 q 206 981 260 1039 q 110 882 153 922 q 142 829 118 856 q 190 796 167 803 "},"ë":{"ha":614,"x_min":-51,"x_max":582,"o":"m -11 -19 q 244 64 111 -19 q 342 3 283 25 q 467 -19 400 -19 q 503 -4 490 -19 q 515 38 515 11 q 504 82 515 65 q 474 99 493 99 q 354 131 399 99 q 530 290 478 217 q 582 453 582 364 q 556 568 582 518 q 482 647 529 618 q 374 675 435 675 q 244 637 301 675 q 156 533 188 599 q 124 381 124 467 q 178 158 124 253 q 81 113 122 126 q -1 100 39 100 q -51 40 -51 100 q -40 -3 -51 14 q -11 -19 -29 -19 m 244 392 q 280 511 244 463 q 369 560 315 560 q 437 531 413 560 q 461 453 461 503 q 417 339 461 399 q 283 217 374 279 q 244 392 244 282 m 229 856 q 294 883 271 856 q 317 950 317 911 q 294 1017 317 990 q 229 1044 271 1044 q 165 1017 188 1044 q 142 950 142 990 q 165 883 142 911 q 229 856 188 856 m 476 856 q 541 883 518 856 q 564 950 564 911 q 541 1017 564 990 q 476 1044 518 1044 q 412 1017 435 1044 q 389 950 389 990 q 412 883 389 911 q 476 856 435 856 "},"ẹ":{"ha":614,"x_min":-51,"x_max":582,"o":"m -11 -19 q 244 64 111 -19 q 342 3 283 25 q 467 -19 400 -19 q 503 -4 490 -19 q 515 38 515 11 q 504 82 515 65 q 474 99 493 99 q 354 131 399 99 q 530 290 478 217 q 582 453 582 364 q 556 568 582 518 q 482 647 529 618 q 374 675 435 675 q 244 637 301 675 q 156 533 188 599 q 124 381 124 467 q 178 158 124 253 q 81 113 122 126 q -1 100 39 100 q -51 40 -51 100 q -40 -3 -51 14 q -11 -19 -29 -19 m 244 392 q 280 511 244 463 q 369 560 315 560 q 437 531 413 560 q 461 453 461 503 q 417 339 461 399 q 283 217 374 279 q 244 392 244 282 m 325 -393 q 392 -366 365 -393 q 419 -299 419 -339 q 393 -231 419 -257 q 325 -204 367 -204 q 258 -231 285 -204 q 231 -299 231 -257 q 258 -365 231 -337 q 325 -393 286 -393 "},"è":{"ha":614,"x_min":-51,"x_max":582,"o":"m -11 -19 q 244 64 111 -19 q 342 3 283 25 q 467 -19 400 -19 q 503 -4 490 -19 q 515 38 515 11 q 504 82 515 65 q 474 99 493 99 q 354 131 399 99 q 530 290 478 217 q 582 453 582 364 q 556 568 582 518 q 482 647 529 618 q 374 675 435 675 q 244 637 301 675 q 156 533 188 599 q 124 381 124 467 q 178 158 124 253 q 81 113 122 126 q -1 100 39 100 q -51 40 -51 100 q -40 -3 -51 14 q -11 -19 -29 -19 m 244 392 q 280 511 244 463 q 369 560 315 560 q 437 531 413 560 q 461 453 461 503 q 417 339 461 399 q 283 217 374 279 q 244 392 244 282 m 435 796 q 480 839 461 813 q 507 894 499 865 q 419 963 464 925 q 336 1038 374 1000 q 278 1104 299 1075 q 221 1076 246 1096 q 183 1028 196 1056 q 243 956 204 997 q 332 872 282 914 q 435 796 382 829 "},"ẻ":{"ha":614,"x_min":-51,"x_max":582,"o":"m -11 -19 q 244 64 111 -19 q 342 3 283 25 q 467 -19 400 -19 q 503 -4 490 -19 q 515 38 515 11 q 504 82 515 65 q 474 99 493 99 q 354 131 399 99 q 530 290 478 217 q 582 453 582 364 q 556 568 582 518 q 482 647 529 618 q 374 675 435 675 q 244 637 301 675 q 156 533 188 599 q 124 381 124 467 q 178 158 124 253 q 81 113 122 126 q -1 100 39 100 q -51 40 -51 100 q -40 -3 -51 14 q -11 -19 -29 -19 m 244 392 q 280 511 244 463 q 369 560 315 560 q 437 531 413 560 q 461 453 461 503 q 417 339 461 399 q 283 217 374 279 q 244 392 244 282 m 319 894 q 346 796 317 833 q 499 855 443 808 q 554 971 554 901 q 503 1085 554 1044 q 353 1125 453 1125 q 258 1115 301 1125 q 179 1092 214 1106 q 186 1033 178 1061 q 208 988 194 1006 q 271 1004 236 996 q 344 1013 306 1013 q 426 967 426 1013 q 319 894 426 922 "},"ẽ":{"ha":614,"x_min":-51,"x_max":622,"o":"m -11 -19 q 244 64 111 -19 q 342 3 283 25 q 467 -19 400 -19 q 503 -4 490 -19 q 515 38 515 11 q 504 82 515 65 q 474 99 493 99 q 354 131 399 99 q 530 290 478 217 q 582 453 582 364 q 556 568 582 518 q 482 647 529 618 q 374 675 435 675 q 244 637 301 675 q 156 533 188 599 q 124 381 124 467 q 178 158 124 253 q 81 113 122 126 q -1 100 39 100 q -51 40 -51 100 q -40 -3 -51 14 q -11 -19 -29 -19 m 244 392 q 280 511 244 463 q 369 560 315 560 q 437 531 413 560 q 461 453 461 503 q 417 339 461 399 q 283 217 374 279 q 244 392 244 282 m 457 956 q 411 968 435 956 q 367 992 388 981 q 312 1017 339 1007 q 254 1028 285 1028 q 149 988 194 1028 q 92 883 104 947 q 130 859 107 865 q 179 851 153 853 q 214 899 199 883 q 254 915 229 915 q 300 903 275 915 q 354 876 325 892 q 421 848 399 854 q 461 842 443 842 q 567 883 525 842 q 622 988 608 924 q 535 1019 592 1019 q 502 972 517 988 q 457 956 488 956 "},"f":{"ha":636,"x_min":-50,"x_max":675,"o":"m -1 100 q -37 84 -24 100 q -50 40 -50 68 q -39 -3 -50 14 q -10 -19 -28 -19 q 101 1 51 -19 q 197 71 150 22 l 197 -410 q 252 -635 197 -557 q 417 -714 307 -714 q 593 -620 533 -714 q 653 -346 653 -526 q 641 -172 653 -254 q 607 -19 629 -89 q 625 -19 615 -19 q 662 -3 649 -19 q 675 39 675 13 q 664 83 675 67 q 635 100 653 100 q 538 131 585 100 q 381 261 472 231 q 640 997 640 574 q 583 1272 640 1175 q 415 1369 525 1369 q 316 1347 356 1369 q 251 1286 276 1324 q 209 1179 221 1242 q 197 1042 197 1117 l 197 238 q 94 133 142 165 q -1 100 47 100 m 415 1254 q 491 1189 465 1254 q 517 999 517 1124 q 466 667 517 828 q 321 378 415 507 l 321 1071 q 415 1254 321 1254 m 321 -422 l 321 118 q 385 63 346 89 q 471 17 425 36 q 531 -336 531 -117 q 503 -531 531 -462 q 424 -600 476 -600 q 345 -553 369 -600 q 321 -422 321 -507 "},"g":{"ha":963,"x_min":-51,"x_max":785,"o":"m -1 100 q -51 40 -51 100 q -40 -3 -51 14 q -11 -19 -29 -19 q 215 114 129 -19 q 316 16 254 51 q 458 -19 378 -19 q 571 3 519 -19 q 661 65 622 25 l 661 7 q 314 -469 314 -215 q 376 -649 314 -583 q 547 -714 438 -714 q 785 -389 785 -714 l 785 663 q 722 672 756 672 q 688 669 704 672 q 658 663 671 667 l 658 606 q 579 656 626 638 q 483 675 532 675 q 320 628 392 675 q 207 499 249 581 q 165 311 165 417 q 167 272 165 292 q 91 147 136 193 q -1 100 46 100 m 294 311 q 321 437 294 382 q 393 524 347 492 q 499 556 439 556 q 588 533 544 556 q 658 472 631 510 l 658 317 q 605 160 658 219 q 464 100 551 100 q 340 156 385 100 q 294 311 294 213 m 439 -467 q 661 -140 439 -297 l 661 -389 q 543 -594 661 -594 q 467 -560 494 -594 q 439 -467 439 -526 "},"ğ":{"ha":963,"x_min":-51,"x_max":785,"o":"m -1 100 q -51 40 -51 100 q -40 -3 -51 14 q -11 -19 -29 -19 q 215 114 129 -19 q 316 16 254 51 q 458 -19 378 -19 q 571 3 519 -19 q 661 65 622 25 l 661 7 q 314 -469 314 -215 q 376 -649 314 -583 q 547 -714 438 -714 q 785 -389 785 -714 l 785 663 q 722 672 756 672 q 688 669 704 672 q 658 663 671 667 l 658 606 q 579 656 626 638 q 483 675 532 675 q 320 628 392 675 q 207 499 249 581 q 165 311 165 417 q 167 272 165 292 q 91 147 136 193 q -1 100 46 100 m 294 311 q 321 437 294 382 q 393 524 347 492 q 499 556 439 556 q 588 533 544 556 q 658 472 631 510 l 658 317 q 605 160 658 219 q 464 100 551 100 q 340 156 385 100 q 294 311 294 213 m 439 -467 q 661 -140 439 -297 l 661 -389 q 543 -594 661 -594 q 467 -560 494 -594 q 439 -467 439 -526 m 503 796 q 679 860 614 796 q 756 1046 744 925 q 700 1066 733 1061 q 638 1064 667 1071 q 595 952 628 990 q 503 914 563 914 q 411 952 443 914 q 368 1064 379 990 q 306 1066 339 1071 q 250 1046 274 1061 q 327 860 261 925 q 503 796 393 796 "},"h":{"ha":904,"x_min":-51,"x_max":943,"o":"m -11 -19 q 124 10 65 -19 q 240 114 183 40 l 240 0 q 306 -10 274 -10 q 338 -7 321 -10 q 368 0 354 -4 l 368 240 q 396 388 369 324 q 467 488 422 451 q 567 525 511 525 q 655 485 624 525 q 686 375 686 446 l 686 228 q 740 45 686 110 q 893 -19 793 -19 q 930 -3 917 -19 q 943 39 943 13 q 933 83 943 65 q 901 100 924 100 q 834 136 854 100 q 814 253 814 172 l 814 372 q 752 569 814 496 q 586 643 690 643 q 557 642 571 643 q 653 874 617 753 q 689 1093 689 994 q 631 1292 689 1215 q 471 1369 574 1368 q 299 1296 358 1371 q 240 1082 240 1221 l 240 339 q 115 155 171 210 q -3 100 58 100 q -38 84 -25 100 q -51 40 -51 68 q -40 -3 -51 14 q -11 -19 -29 -19 m 364 1083 q 465 1254 364 1254 q 540 1213 514 1254 q 565 1094 565 1172 q 541 928 565 1019 q 472 740 517 838 q 364 547 426 643 l 364 1083 "},"i":{"ha":422,"x_min":-51,"x_max":461,"o":"m -1 100 q -40 82 -28 100 q -51 40 -51 64 q -41 -1 -51 18 q -11 -19 -31 -19 q 95 3 46 -19 q 182 63 144 25 q 224 117 204 85 q 411 -19 267 -19 q 449 -1 438 -19 q 461 39 461 17 q 453 81 461 61 q 421 100 444 100 q 344 141 367 100 q 321 256 321 182 l 321 656 q 258 665 290 665 q 224 663 240 665 q 194 656 207 660 l 194 406 q 174 282 190 343 q 124 174 158 221 q 61 118 94 136 q -1 100 28 100 m 260 856 q 327 883 300 856 q 354 950 354 910 q 328 1018 354 992 q 260 1044 301 1044 q 192 1018 219 1044 q 165 950 165 992 q 193 883 165 911 q 260 856 221 856 "},"ı":{"ha":422,"x_min":-51,"x_max":461,"o":"m -1 100 q -40 82 -28 100 q -51 40 -51 64 q -41 -1 -51 18 q -11 -19 -31 -19 q 95 3 46 -19 q 182 63 144 25 q 224 117 204 85 q 411 -19 267 -19 q 449 -1 438 -19 q 461 39 461 17 q 453 81 461 61 q 421 100 444 100 q 344 141 367 100 q 321 256 321 182 l 321 656 q 258 665 290 665 q 224 663 240 665 q 194 656 207 660 l 194 406 q 174 282 190 343 q 124 174 158 221 q 61 118 94 136 q -1 100 28 100 "},"í":{"ha":422,"x_min":-51,"x_max":461,"o":"m -1 100 q -40 82 -28 100 q -51 40 -51 64 q -41 -1 -51 18 q -11 -19 -31 -19 q 95 3 46 -19 q 182 63 144 25 q 224 117 204 85 q 411 -19 267 -19 q 449 -1 438 -19 q 461 39 461 17 q 453 81 461 61 q 421 100 444 100 q 344 141 367 100 q 321 256 321 182 l 321 656 q 258 665 290 665 q 224 663 240 665 q 194 656 207 660 l 194 406 q 174 282 190 343 q 124 174 158 221 q 61 118 94 136 q -1 100 28 100 m 171 796 q 273 872 225 829 q 359 956 321 914 q 417 1028 397 997 q 380 1076 404 1056 q 324 1104 356 1096 q 267 1038 303 1075 q 187 963 231 1000 q 100 894 143 925 q 171 796 115 831 "},"î":{"ha":422,"x_min":-51,"x_max":504,"o":"m -1 100 q -40 82 -28 100 q -51 40 -51 64 q -41 -1 -51 18 q -11 -19 -31 -19 q 95 3 46 -19 q 182 63 144 25 q 224 117 204 85 q 411 -19 267 -19 q 449 -1 438 -19 q 461 39 461 17 q 453 81 461 61 q 421 100 444 100 q 344 141 367 100 q 321 256 321 182 l 321 656 q 258 665 290 665 q 224 663 240 665 q 194 656 207 660 l 194 406 q 174 282 190 343 q 124 174 158 221 q 61 118 94 136 q -1 100 28 100 m 92 796 q 168 867 121 817 q 257 967 215 917 q 314 901 283 935 q 374 839 344 867 q 424 796 403 811 q 472 829 447 803 q 504 882 496 856 q 408 981 461 924 q 300 1104 354 1039 q 215 1104 258 1111 q 108 981 161 1039 q 11 882 54 922 q 44 829 19 856 q 92 796 68 803 "},"ï":{"ha":422,"x_min":-51,"x_max":464,"o":"m -1 100 q -40 82 -28 100 q -51 40 -51 64 q -41 -1 -51 18 q -11 -19 -31 -19 q 95 3 46 -19 q 182 63 144 25 q 224 117 204 85 q 411 -19 267 -19 q 449 -1 438 -19 q 461 39 461 17 q 453 81 461 61 q 421 100 444 100 q 344 141 367 100 q 321 256 321 182 l 321 656 q 258 665 290 665 q 224 663 240 665 q 194 656 207 660 l 194 406 q 174 282 190 343 q 124 174 158 221 q 61 118 94 136 q -1 100 28 100 m 129 856 q 194 883 171 856 q 217 950 217 911 q 194 1017 217 990 q 129 1044 171 1044 q 65 1017 88 1044 q 42 950 42 990 q 65 883 42 911 q 129 856 88 856 m 376 856 q 441 883 418 856 q 464 950 464 911 q 441 1017 464 990 q 376 1044 418 1044 q 312 1017 335 1044 q 289 950 289 990 q 312 883 289 911 q 376 856 335 856 "},"ị":{"ha":422,"x_min":-51,"x_max":461,"o":"m -1 100 q -40 82 -28 100 q -51 40 -51 64 q -41 -1 -51 18 q -11 -19 -31 -19 q 95 3 46 -19 q 182 63 144 25 q 224 117 204 85 q 411 -19 267 -19 q 449 -1 438 -19 q 461 39 461 17 q 453 81 461 61 q 421 100 444 100 q 344 141 367 100 q 321 256 321 182 l 321 656 q 258 665 290 665 q 224 663 240 665 q 194 656 207 660 l 194 406 q 174 282 190 343 q 124 174 158 221 q 61 118 94 136 q -1 100 28 100 m 260 856 q 327 883 300 856 q 354 950 354 910 q 328 1018 354 992 q 260 1044 301 1044 q 192 1018 219 1044 q 165 950 165 992 q 193 883 165 911 q 260 856 221 856 m 258 -393 q 326 -366 299 -393 q 353 -299 353 -339 q 326 -231 353 -257 q 258 -204 300 -204 q 191 -231 218 -204 q 164 -299 164 -257 q 192 -365 164 -337 q 258 -393 219 -393 "},"ì":{"ha":422,"x_min":-51,"x_max":461,"o":"m -1 100 q -40 82 -28 100 q -51 40 -51 64 q -41 -1 -51 18 q -11 -19 -31 -19 q 95 3 46 -19 q 182 63 144 25 q 224 117 204 85 q 411 -19 267 -19 q 449 -1 438 -19 q 461 39 461 17 q 453 81 461 61 q 421 100 444 100 q 344 141 367 100 q 321 256 321 182 l 321 656 q 258 665 290 665 q 224 663 240 665 q 194 656 207 660 l 194 406 q 174 282 190 343 q 124 174 158 221 q 61 118 94 136 q -1 100 28 100 m 335 796 q 380 839 361 813 q 407 894 399 865 q 319 963 364 925 q 236 1038 274 1000 q 178 1104 199 1075 q 121 1076 146 1096 q 83 1028 96 1056 q 143 956 104 997 q 232 872 182 914 q 335 796 282 829 "},"ỉ":{"ha":422,"x_min":-51,"x_max":461,"o":"m -1 100 q -40 82 -28 100 q -51 40 -51 64 q -41 -1 -51 18 q -11 -19 -31 -19 q 95 3 46 -19 q 182 63 144 25 q 224 117 204 85 q 411 -19 267 -19 q 449 -1 438 -19 q 461 39 461 17 q 453 81 461 61 q 421 100 444 100 q 344 141 367 100 q 321 256 321 182 l 321 656 q 258 665 290 665 q 224 663 240 665 q 194 656 207 660 l 194 406 q 174 282 190 343 q 124 174 158 221 q 61 118 94 136 q -1 100 28 100 m 219 894 q 246 796 217 833 q 399 855 343 808 q 454 971 454 901 q 403 1085 454 1044 q 253 1125 353 1125 q 158 1115 201 1125 q 79 1092 114 1106 q 86 1033 78 1061 q 108 988 94 1006 q 171 1004 136 996 q 244 1013 206 1013 q 326 967 326 1013 q 219 894 326 922 "},"ĩ":{"ha":422,"x_min":-51,"x_max":522,"o":"m -1 100 q -40 82 -28 100 q -51 40 -51 64 q -41 -1 -51 18 q -11 -19 -31 -19 q 95 3 46 -19 q 182 63 144 25 q 224 117 204 85 q 411 -19 267 -19 q 449 -1 438 -19 q 461 39 461 17 q 453 81 461 61 q 421 100 444 100 q 344 141 367 100 q 321 256 321 182 l 321 656 q 258 665 290 665 q 224 663 240 665 q 194 656 207 660 l 194 406 q 174 282 190 343 q 124 174 158 221 q 61 118 94 136 q -1 100 28 100 m 357 956 q 311 968 335 956 q 267 992 288 981 q 212 1017 239 1007 q 154 1028 185 1028 q 49 988 94 1028 q -8 883 4 947 q 30 859 7 865 q 79 851 53 853 q 114 899 99 883 q 154 915 129 915 q 200 903 175 915 q 254 876 225 892 q 321 848 299 854 q 361 842 343 842 q 467 883 425 842 q 522 988 508 924 q 435 1019 492 1019 q 402 972 417 988 q 357 956 388 956 "},"j":{"ha":617,"x_min":-54,"x_max":475,"o":"m -12 -19 q 246 171 153 -19 q 313 329 286 256 l 313 4 q -32 -469 -32 -217 q 30 -649 -32 -583 q 201 -714 92 -714 q 439 -389 439 -714 l 439 650 q 383 669 418 665 q 315 665 349 674 q 254 482 285 565 q 181 300 224 399 q 92 147 133 193 q 0 100 50 100 q -40 84 -25 100 q -54 40 -54 68 q -42 -2 -54 15 q -12 -19 -31 -19 m 93 -467 q 315 -140 93 -297 l 315 -389 q 197 -594 315 -594 q 121 -560 149 -594 q 93 -467 93 -526 m 381 856 q 448 883 421 856 q 475 950 475 910 q 449 1018 475 992 q 381 1044 422 1044 q 313 1018 340 1044 q 286 950 286 992 q 314 883 286 911 q 381 856 342 856 "},"ȷ":{"ha":617,"x_min":-54,"x_max":439,"o":"m -12 -19 q 246 171 153 -19 q 313 329 286 256 l 313 4 q -32 -469 -32 -217 q 30 -649 -32 -583 q 201 -714 92 -714 q 439 -389 439 -714 l 439 650 q 383 669 418 665 q 315 665 349 674 q 254 482 285 565 q 181 300 224 399 q 92 147 133 193 q 0 100 50 100 q -40 84 -25 100 q -54 40 -54 68 q -42 -2 -54 15 q -12 -19 -31 -19 m 93 -467 q 315 -140 93 -297 l 315 -389 q 197 -594 315 -594 q 121 -560 149 -594 q 93 -467 93 -526 "},"k":{"ha":847,"x_min":-51,"x_max":886,"o":"m -11 -19 q 124 10 65 -19 q 240 114 183 40 l 240 0 q 306 -10 274 -10 q 338 -7 321 -10 q 368 0 354 -4 l 368 182 q 369 226 368 204 q 469 219 431 226 q 536 191 507 211 q 599 135 565 171 l 657 72 q 744 5 699 29 q 835 -19 789 -19 q 886 39 886 -19 q 875 83 886 67 q 846 100 864 100 q 719 168 779 100 l 674 221 q 622 267 650 247 q 760 350 708 294 q 811 478 811 406 q 757 621 811 567 q 613 675 703 675 q 572 672 592 675 q 658 889 626 778 q 689 1093 689 1000 q 631 1292 689 1215 q 471 1369 574 1368 q 299 1296 358 1371 q 240 1082 240 1221 l 240 339 q 115 155 171 210 q -3 100 58 100 q -38 84 -25 100 q -51 40 -51 68 q -40 -3 -51 14 q -11 -19 -29 -19 m 364 1083 q 465 1254 364 1254 q 540 1213 514 1254 q 565 1094 565 1172 q 541 928 565 1019 q 472 740 517 838 q 364 547 426 643 l 364 1083 m 590 565 q 662 540 635 565 q 689 472 689 514 q 656 397 689 431 q 567 344 624 364 q 438 325 510 325 q 383 328 407 325 q 462 500 407 435 q 590 565 517 565 "},"l":{"ha":613,"x_min":-51,"x_max":633,"o":"m -11 -19 q 113 10 54 -19 q 224 89 172 39 q 465 -19 296 -19 q 514 39 514 -19 q 503 83 514 67 q 474 99 493 99 q 314 181 356 99 q 633 1007 633 586 q 572 1277 633 1185 q 394 1369 510 1369 q 224 1288 283 1369 q 164 1053 164 1206 l 164 400 q 176 213 164 282 q 85 130 132 160 q -3 100 38 100 q -51 36 -51 100 q -38 -6 -51 7 q -11 -19 -25 -19 m 396 1250 q 510 1013 510 1250 q 487 792 510 900 q 415 572 464 683 q 289 338 367 461 q 288 406 288 365 l 288 1079 q 316 1206 288 1161 q 396 1250 344 1250 "},"ŀ":{"ha":613,"x_min":-51,"x_max":733,"o":"m -11 -19 q 113 10 54 -19 q 224 89 172 39 q 465 -19 296 -19 q 514 39 514 -19 q 503 83 514 67 q 474 99 493 99 q 314 181 356 99 q 633 1007 633 586 q 572 1277 633 1185 q 394 1369 510 1369 q 224 1288 283 1369 q 164 1053 164 1206 l 164 400 q 176 213 164 282 q 85 130 132 160 q -3 100 38 100 q -51 36 -51 100 q -38 -6 -51 7 q -11 -19 -25 -19 m 396 1250 q 510 1013 510 1250 q 487 792 510 900 q 415 572 464 683 q 289 338 367 461 q 288 406 288 365 l 288 1079 q 316 1206 288 1161 q 396 1250 344 1250 m 638 329 q 705 358 676 329 q 733 425 733 386 q 705 492 733 464 q 638 519 676 519 q 571 492 599 519 q 543 425 543 464 q 571 358 543 386 q 638 329 599 329 "},"m":{"ha":1463,"x_min":-51,"x_max":1501,"o":"m -11 -19 q 156 44 92 -19 q 256 244 219 107 l 307 444 q 343 529 322 503 q 393 556 364 556 q 457 443 457 556 l 457 0 q 519 -10 485 -10 q 551 -7 535 -10 q 582 0 568 -4 l 582 239 q 603 405 582 333 q 663 516 625 476 q 751 556 700 556 q 835 512 807 556 q 864 386 864 468 l 864 0 q 928 -10 894 -10 q 960 -7 943 -10 q 990 0 976 -4 l 990 239 q 1033 472 990 388 q 1149 556 1075 556 q 1224 517 1197 556 q 1250 406 1250 478 l 1250 228 q 1451 -19 1250 -19 q 1490 -1 1478 -19 q 1501 39 1501 17 q 1491 83 1501 67 q 1461 100 1481 100 q 1397 133 1417 100 q 1376 243 1376 167 l 1376 436 q 1324 613 1376 550 q 1172 675 1271 675 q 1043 638 1100 675 q 953 535 986 601 q 768 675 904 675 q 651 642 703 675 q 567 547 599 608 q 506 641 549 607 q 404 675 464 675 q 182 458 240 675 l 140 296 q 78 145 114 190 q -1 100 43 100 q -51 40 -51 100 q -40 -3 -51 14 q -11 -19 -29 -19 "},"n":{"ha":1118,"x_min":-51,"x_max":1157,"o":"m -11 -19 q 156 44 92 -19 q 256 244 219 107 l 307 444 q 343 529 322 503 q 393 556 364 556 q 443 526 429 556 q 457 443 457 497 l 457 0 q 519 -10 486 -10 q 551 -7 535 -10 q 582 0 568 -4 l 582 172 q 608 372 582 286 q 680 507 633 458 q 788 556 726 556 q 906 406 906 556 l 906 228 q 1107 -19 906 -19 q 1145 -1 1133 -19 q 1157 39 1157 17 q 1147 83 1157 67 q 1117 100 1136 100 q 1052 133 1072 100 q 1032 243 1032 167 l 1032 406 q 973 604 1032 533 q 806 675 914 675 q 669 640 731 675 q 569 539 608 604 q 510 638 553 601 q 404 675 467 675 q 182 458 240 675 l 140 296 q 78 145 114 190 q -1 100 43 100 q -51 40 -51 100 q -40 -3 -51 14 q -11 -19 -29 -19 "},"ñ":{"ha":1118,"x_min":-51,"x_max":1157,"o":"m -11 -19 q 156 44 92 -19 q 256 244 219 107 l 307 444 q 343 529 322 503 q 393 556 364 556 q 443 526 429 556 q 457 443 457 497 l 457 0 q 519 -10 486 -10 q 551 -7 535 -10 q 582 0 568 -4 l 582 172 q 608 372 582 286 q 680 507 633 458 q 788 556 726 556 q 906 406 906 556 l 906 228 q 1107 -19 906 -19 q 1145 -1 1133 -19 q 1157 39 1157 17 q 1147 83 1157 67 q 1117 100 1136 100 q 1052 133 1072 100 q 1032 243 1032 167 l 1032 406 q 973 604 1032 533 q 806 675 914 675 q 669 640 731 675 q 569 539 608 604 q 510 638 553 601 q 404 675 467 675 q 182 458 240 675 l 140 296 q 78 145 114 190 q -1 100 43 100 q -51 40 -51 100 q -40 -3 -51 14 q -11 -19 -29 -19 m 736 956 q 690 968 714 956 q 646 992 667 981 q 591 1017 618 1007 q 533 1028 564 1028 q 428 988 474 1028 q 371 883 383 947 q 409 859 386 865 q 458 851 432 853 q 493 899 478 883 q 533 915 508 915 q 579 903 554 915 q 633 876 604 892 q 700 848 678 854 q 740 842 722 842 q 846 883 804 842 q 901 988 888 924 q 814 1019 871 1019 q 781 972 796 988 q 736 956 767 956 "},"o":{"ha":876,"x_min":-51,"x_max":810,"o":"m -1 100 q -51 40 -51 100 q -40 -3 -51 14 q -11 -19 -29 -19 q 218 118 132 -19 q 331 17 263 54 q 485 -19 400 -19 q 652 26 579 -19 q 767 150 725 71 q 810 329 810 229 q 767 507 810 429 q 651 630 725 585 q 485 675 578 675 q 317 630 392 675 q 200 507 243 585 q 157 329 157 429 q 163 261 157 294 q 88 144 132 188 q -1 100 44 100 m 483 100 q 341 163 394 100 q 288 326 288 225 q 319 460 288 404 q 407 540 351 517 q 513 457 446 488 q 664 424 581 426 q 679 329 679 381 q 626 163 679 225 q 483 100 572 100 "},"ó":{"ha":876,"x_min":-51,"x_max":810,"o":"m -1 100 q -51 40 -51 100 q -40 -3 -51 14 q -11 -19 -29 -19 q 218 118 132 -19 q 331 17 263 54 q 485 -19 400 -19 q 652 26 579 -19 q 767 150 725 71 q 810 329 810 229 q 767 507 810 429 q 651 630 725 585 q 485 675 578 675 q 317 630 392 675 q 200 507 243 585 q 157 329 157 429 q 163 261 157 294 q 88 144 132 188 q -1 100 44 100 m 483 100 q 341 163 394 100 q 288 326 288 225 q 319 460 288 404 q 407 540 351 517 q 513 457 446 488 q 664 424 581 426 q 679 329 679 381 q 626 163 679 225 q 483 100 572 100 m 397 796 q 499 872 451 829 q 585 956 547 914 q 643 1028 624 997 q 606 1076 631 1056 q 550 1104 582 1096 q 493 1038 529 1075 q 413 963 457 1000 q 326 894 369 925 q 397 796 342 831 "},"ô":{"ha":876,"x_min":-51,"x_max":810,"o":"m -1 100 q -51 40 -51 100 q -40 -3 -51 14 q -11 -19 -29 -19 q 218 118 132 -19 q 331 17 263 54 q 485 -19 400 -19 q 652 26 579 -19 q 767 150 725 71 q 810 329 810 229 q 767 507 810 429 q 651 630 725 585 q 485 675 578 675 q 317 630 392 675 q 200 507 243 585 q 157 329 157 429 q 163 261 157 294 q 88 144 132 188 q -1 100 44 100 m 483 100 q 341 163 394 100 q 288 326 288 225 q 319 460 288 404 q 407 540 351 517 q 513 457 446 488 q 664 424 581 426 q 679 329 679 381 q 626 163 679 225 q 483 100 572 100 m 318 796 q 394 867 347 817 q 483 967 442 917 q 540 901 510 935 q 600 839 571 867 q 650 796 629 811 q 698 829 674 803 q 731 882 722 856 q 634 981 688 924 q 526 1104 581 1039 q 442 1104 485 1111 q 334 981 388 1039 q 238 882 281 922 q 270 829 246 856 q 318 796 294 803 "},"ố":{"ha":876,"x_min":-51,"x_max":901,"o":"m -1 100 q -51 40 -51 100 q -40 -3 -51 14 q -11 -19 -29 -19 q 218 118 132 -19 q 331 17 263 54 q 485 -19 400 -19 q 652 26 579 -19 q 767 150 725 71 q 810 329 810 229 q 767 507 810 429 q 651 630 725 585 q 485 675 578 675 q 317 630 392 675 q 200 507 243 585 q 157 329 157 429 q 163 261 157 294 q 88 144 132 188 q -1 100 44 100 m 483 100 q 341 163 394 100 q 288 326 288 225 q 319 460 288 404 q 407 540 351 517 q 513 457 446 488 q 664 424 581 426 q 679 329 679 381 q 626 163 679 225 q 483 100 572 100 m 804 1324 l 649 1132 q 685 1083 660 1104 q 740 1051 710 1061 l 901 1250 q 862 1298 889 1278 q 804 1324 835 1318 m 318 796 q 394 867 347 817 q 483 967 442 917 q 540 901 510 935 q 600 839 571 867 q 650 796 629 811 q 698 829 674 803 q 731 882 722 856 q 634 981 688 924 q 526 1104 581 1039 q 442 1104 485 1111 q 334 981 388 1039 q 238 882 281 922 q 270 829 246 856 q 318 796 294 803 "},"ộ":{"ha":876,"x_min":-51,"x_max":810,"o":"m -1 100 q -51 40 -51 100 q -40 -3 -51 14 q -11 -19 -29 -19 q 218 118 132 -19 q 331 17 263 54 q 485 -19 400 -19 q 652 26 579 -19 q 767 150 725 71 q 810 329 810 229 q 767 507 810 429 q 651 630 725 585 q 485 675 578 675 q 317 630 392 675 q 200 507 243 585 q 157 329 157 429 q 163 261 157 294 q 88 144 132 188 q -1 100 44 100 m 483 100 q 341 163 394 100 q 288 326 288 225 q 319 460 288 404 q 407 540 351 517 q 513 457 446 488 q 664 424 581 426 q 679 329 679 381 q 626 163 679 225 q 483 100 572 100 m 485 -393 q 552 -366 525 -393 q 579 -299 579 -339 q 553 -231 579 -257 q 485 -204 526 -204 q 417 -231 444 -204 q 390 -299 390 -257 q 418 -365 390 -337 q 485 -393 446 -393 m 318 796 q 394 867 347 817 q 483 967 442 917 q 540 901 510 935 q 600 839 571 867 q 650 796 629 811 q 698 829 674 803 q 731 882 722 856 q 634 981 688 924 q 526 1104 581 1039 q 442 1104 485 1111 q 334 981 388 1039 q 238 882 281 922 q 270 829 246 856 q 318 796 294 803 "},"ồ":{"ha":876,"x_min":-51,"x_max":831,"o":"m -1 100 q -51 40 -51 100 q -40 -3 -51 14 q -11 -19 -29 -19 q 218 118 132 -19 q 331 17 263 54 q 485 -19 400 -19 q 652 26 579 -19 q 767 150 725 71 q 810 329 810 229 q 767 507 810 429 q 651 630 725 585 q 485 675 578 675 q 317 630 392 675 q 200 507 243 585 q 157 329 157 429 q 163 261 157 294 q 88 144 132 188 q -1 100 44 100 m 483 100 q 341 163 394 100 q 288 326 288 225 q 319 460 288 404 q 407 540 351 517 q 513 457 446 488 q 664 424 581 426 q 679 329 679 381 q 626 163 679 225 q 483 100 572 100 m 675 1324 q 617 1298 644 1318 q 578 1250 590 1278 l 739 1051 q 795 1083 769 1061 q 831 1132 821 1104 l 675 1324 m 318 796 q 394 867 347 817 q 483 967 442 917 q 540 901 510 935 q 600 839 571 867 q 650 796 629 811 q 698 829 674 803 q 731 882 722 856 q 634 981 688 924 q 526 1104 581 1039 q 442 1104 485 1111 q 334 981 388 1039 q 238 882 281 922 q 270 829 246 856 q 318 796 294 803 "},"ổ":{"ha":876,"x_min":-51,"x_max":896,"o":"m -1 100 q -51 40 -51 100 q -40 -3 -51 14 q -11 -19 -29 -19 q 218 118 132 -19 q 331 17 263 54 q 485 -19 400 -19 q 652 26 579 -19 q 767 150 725 71 q 810 329 810 229 q 767 507 810 429 q 651 630 725 585 q 485 675 578 675 q 317 630 392 675 q 200 507 243 585 q 157 329 157 429 q 163 261 157 294 q 88 144 132 188 q -1 100 44 100 m 483 100 q 341 163 394 100 q 288 326 288 225 q 319 460 288 404 q 407 540 351 517 q 513 457 446 488 q 664 424 581 426 q 679 329 679 381 q 626 163 679 225 q 483 100 572 100 m 694 1133 q 703 1079 694 1106 q 729 1035 713 1053 q 810 1069 772 1047 q 872 1125 849 1090 q 896 1207 896 1160 q 850 1310 896 1271 q 714 1350 804 1350 q 621 1341 663 1350 q 551 1317 579 1332 q 559 1260 550 1288 q 582 1215 568 1233 q 645 1234 613 1228 q 704 1240 678 1240 q 772 1196 772 1240 q 755 1161 772 1176 q 694 1133 738 1146 m 318 796 q 394 867 347 817 q 483 967 442 917 q 540 901 510 935 q 600 839 571 867 q 650 796 629 811 q 698 829 674 803 q 731 882 722 856 q 634 981 688 924 q 526 1104 581 1039 q 442 1104 485 1111 q 334 981 388 1039 q 238 882 281 922 q 270 829 246 856 q 318 796 294 803 "},"ỗ":{"ha":876,"x_min":-51,"x_max":810,"o":"m -1 100 q -51 40 -51 100 q -40 -3 -51 14 q -11 -19 -29 -19 q 218 118 132 -19 q 331 17 263 54 q 485 -19 400 -19 q 652 26 579 -19 q 767 150 725 71 q 810 329 810 229 q 767 507 810 429 q 651 630 725 585 q 485 675 578 675 q 317 630 392 675 q 200 507 243 585 q 157 329 157 429 q 163 261 157 294 q 88 144 132 188 q -1 100 44 100 m 483 100 q 341 163 394 100 q 288 326 288 225 q 319 460 288 404 q 407 540 351 517 q 513 457 446 488 q 664 424 581 426 q 679 329 679 381 q 626 163 679 225 q 483 100 572 100 m 578 1186 q 665 1219 628 1186 q 724 1314 701 1253 q 633 1357 690 1357 q 603 1315 621 1326 q 567 1304 586 1304 q 538 1310 554 1304 q 494 1332 522 1317 q 448 1356 468 1347 q 397 1365 428 1365 q 305 1333 344 1365 q 243 1239 265 1300 q 333 1196 276 1196 q 365 1237 347 1225 q 400 1249 382 1249 q 428 1242 414 1249 q 478 1218 443 1236 q 533 1194 511 1201 q 578 1186 556 1186 m 317 796 q 393 867 346 817 q 482 967 440 917 q 539 901 508 935 q 599 839 569 867 q 649 796 628 811 q 697 829 672 803 q 729 882 721 856 q 633 981 686 924 q 525 1104 579 1039 q 440 1104 483 1111 q 333 981 386 1039 q 236 882 279 922 q 269 829 244 856 q 317 796 293 803 "},"ö":{"ha":876,"x_min":-51,"x_max":810,"o":"m -1 100 q -51 40 -51 100 q -40 -3 -51 14 q -11 -19 -29 -19 q 218 118 132 -19 q 331 17 263 54 q 485 -19 400 -19 q 652 26 579 -19 q 767 150 725 71 q 810 329 810 229 q 767 507 810 429 q 651 630 725 585 q 485 675 578 675 q 317 630 392 675 q 200 507 243 585 q 157 329 157 429 q 163 261 157 294 q 88 144 132 188 q -1 100 44 100 m 483 100 q 341 163 394 100 q 288 326 288 225 q 319 460 288 404 q 407 540 351 517 q 513 457 446 488 q 664 424 581 426 q 679 329 679 381 q 626 163 679 225 q 483 100 572 100 m 356 856 q 420 883 397 856 q 443 950 443 911 q 420 1017 443 990 q 356 1044 397 1044 q 291 1017 314 1044 q 268 950 268 990 q 291 883 268 911 q 356 856 314 856 m 603 856 q 667 883 644 856 q 690 950 690 911 q 667 1017 690 990 q 603 1044 644 1044 q 538 1017 561 1044 q 515 950 515 990 q 538 883 515 911 q 603 856 561 856 "},"ọ":{"ha":876,"x_min":-51,"x_max":810,"o":"m -1 100 q -51 40 -51 100 q -40 -3 -51 14 q -11 -19 -29 -19 q 218 118 132 -19 q 331 17 263 54 q 485 -19 400 -19 q 652 26 579 -19 q 767 150 725 71 q 810 329 810 229 q 767 507 810 429 q 651 630 725 585 q 485 675 578 675 q 317 630 392 675 q 200 507 243 585 q 157 329 157 429 q 163 261 157 294 q 88 144 132 188 q -1 100 44 100 m 483 100 q 341 163 394 100 q 288 326 288 225 q 319 460 288 404 q 407 540 351 517 q 513 457 446 488 q 664 424 581 426 q 679 329 679 381 q 626 163 679 225 q 483 100 572 100 m 485 -393 q 552 -366 525 -393 q 579 -299 579 -339 q 553 -231 579 -257 q 485 -204 526 -204 q 417 -231 444 -204 q 390 -299 390 -257 q 418 -365 390 -337 q 485 -393 446 -393 "},"ò":{"ha":876,"x_min":-51,"x_max":810,"o":"m -1 100 q -51 40 -51 100 q -40 -3 -51 14 q -11 -19 -29 -19 q 218 118 132 -19 q 331 17 263 54 q 485 -19 400 -19 q 652 26 579 -19 q 767 150 725 71 q 810 329 810 229 q 767 507 810 429 q 651 630 725 585 q 485 675 578 675 q 317 630 392 675 q 200 507 243 585 q 157 329 157 429 q 163 261 157 294 q 88 144 132 188 q -1 100 44 100 m 483 100 q 341 163 394 100 q 288 326 288 225 q 319 460 288 404 q 407 540 351 517 q 513 457 446 488 q 664 424 581 426 q 679 329 679 381 q 626 163 679 225 q 483 100 572 100 m 561 796 q 606 839 588 813 q 633 894 625 865 q 545 963 590 925 q 463 1038 500 1000 q 404 1104 425 1075 q 347 1076 372 1096 q 310 1028 322 1056 q 369 956 331 997 q 458 872 408 914 q 561 796 508 829 "},"ỏ":{"ha":876,"x_min":-51,"x_max":810,"o":"m -1 100 q -51 40 -51 100 q -40 -3 -51 14 q -11 -19 -29 -19 q 218 118 132 -19 q 331 17 263 54 q 485 -19 400 -19 q 652 26 579 -19 q 767 150 725 71 q 810 329 810 229 q 767 507 810 429 q 651 630 725 585 q 485 675 578 675 q 317 630 392 675 q 200 507 243 585 q 157 329 157 429 q 163 261 157 294 q 88 144 132 188 q -1 100 44 100 m 483 100 q 341 163 394 100 q 288 326 288 225 q 319 460 288 404 q 407 540 351 517 q 513 457 446 488 q 664 424 581 426 q 679 329 679 381 q 626 163 679 225 q 483 100 572 100 m 446 894 q 472 796 443 833 q 625 855 569 808 q 681 971 681 901 q 630 1085 681 1044 q 479 1125 579 1125 q 384 1115 428 1125 q 306 1092 340 1106 q 313 1033 304 1061 q 335 988 321 1006 q 397 1004 363 996 q 471 1013 432 1013 q 553 967 553 1013 q 446 894 553 922 "},"ơ":{"ha":876,"x_min":-51,"x_max":810,"o":"m -1 100 q -51 40 -51 100 q -40 -3 -51 14 q -11 -19 -29 -19 q 218 118 132 -19 q 331 17 263 54 q 485 -19 400 -19 q 652 26 579 -19 q 767 150 725 71 q 810 329 810 229 q 767 507 810 429 q 651 630 725 585 q 485 675 578 675 q 317 630 392 675 q 200 507 243 585 q 157 329 157 429 q 163 261 157 294 q 88 144 132 188 q -1 100 44 100 m 483 100 q 341 163 394 100 q 288 326 288 225 q 319 460 288 404 q 407 540 351 517 q 513 457 446 488 q 664 424 581 426 q 679 329 679 381 q 626 163 679 225 q 483 100 572 100 m 588 611 l 588 492 q 747 569 689 503 q 804 738 804 636 q 803 769 804 753 q 799 801 801 785 q 686 794 743 821 q 690 743 690 768 q 663 646 690 681 q 588 611 636 611 "},"ớ":{"ha":876,"x_min":-51,"x_max":810,"o":"m -1 100 q -51 40 -51 100 q -40 -3 -51 14 q -11 -19 -29 -19 q 218 118 132 -19 q 331 17 263 54 q 485 -19 400 -19 q 652 26 579 -19 q 767 150 725 71 q 810 329 810 229 q 767 507 810 429 q 651 630 725 585 q 485 675 578 675 q 317 630 392 675 q 200 507 243 585 q 157 329 157 429 q 163 261 157 294 q 88 144 132 188 q -1 100 44 100 m 483 100 q 341 163 394 100 q 288 326 288 225 q 319 460 288 404 q 407 540 351 517 q 513 457 446 488 q 664 424 581 426 q 679 329 679 381 q 626 163 679 225 q 483 100 572 100 m 588 611 l 588 492 q 747 569 689 503 q 804 738 804 636 q 803 769 804 753 q 799 801 801 785 q 686 794 743 821 q 690 743 690 768 q 663 646 690 681 q 588 611 636 611 m 397 796 q 499 872 451 829 q 585 956 547 914 q 643 1028 624 997 q 606 1076 631 1056 q 550 1104 582 1096 q 493 1038 529 1075 q 413 963 457 1000 q 326 894 369 925 q 397 796 342 831 "},"ợ":{"ha":876,"x_min":-51,"x_max":810,"o":"m -1 100 q -51 40 -51 100 q -40 -3 -51 14 q -11 -19 -29 -19 q 218 118 132 -19 q 331 17 263 54 q 485 -19 400 -19 q 652 26 579 -19 q 767 150 725 71 q 810 329 810 229 q 767 507 810 429 q 651 630 725 585 q 485 675 578 675 q 317 630 392 675 q 200 507 243 585 q 157 329 157 429 q 163 261 157 294 q 88 144 132 188 q -1 100 44 100 m 483 100 q 341 163 394 100 q 288 326 288 225 q 319 460 288 404 q 407 540 351 517 q 513 457 446 488 q 664 424 581 426 q 679 329 679 381 q 626 163 679 225 q 483 100 572 100 m 588 611 l 588 492 q 747 569 689 503 q 804 738 804 636 q 803 769 804 753 q 799 801 801 785 q 686 794 743 821 q 690 743 690 768 q 663 646 690 681 q 588 611 636 611 m 485 -393 q 552 -366 525 -393 q 579 -299 579 -339 q 553 -231 579 -257 q 485 -204 526 -204 q 417 -231 444 -204 q 390 -299 390 -257 q 418 -365 390 -337 q 485 -393 446 -393 "},"ờ":{"ha":876,"x_min":-51,"x_max":810,"o":"m -1 100 q -51 40 -51 100 q -40 -3 -51 14 q -11 -19 -29 -19 q 218 118 132 -19 q 331 17 263 54 q 485 -19 400 -19 q 652 26 579 -19 q 767 150 725 71 q 810 329 810 229 q 767 507 810 429 q 651 630 725 585 q 485 675 578 675 q 317 630 392 675 q 200 507 243 585 q 157 329 157 429 q 163 261 157 294 q 88 144 132 188 q -1 100 44 100 m 483 100 q 341 163 394 100 q 288 326 288 225 q 319 460 288 404 q 407 540 351 517 q 513 457 446 488 q 664 424 581 426 q 679 329 679 381 q 626 163 679 225 q 483 100 572 100 m 588 611 l 588 492 q 747 569 689 503 q 804 738 804 636 q 803 769 804 753 q 799 801 801 785 q 686 794 743 821 q 690 743 690 768 q 663 646 690 681 q 588 611 636 611 m 561 796 q 606 839 588 813 q 633 894 625 865 q 545 963 590 925 q 463 1038 500 1000 q 404 1104 425 1075 q 347 1076 372 1096 q 310 1028 322 1056 q 369 956 331 997 q 458 872 408 914 q 561 796 508 829 "},"ở":{"ha":876,"x_min":-51,"x_max":810,"o":"m -1 100 q -51 40 -51 100 q -40 -3 -51 14 q -11 -19 -29 -19 q 218 118 132 -19 q 331 17 263 54 q 485 -19 400 -19 q 652 26 579 -19 q 767 150 725 71 q 810 329 810 229 q 767 507 810 429 q 651 630 725 585 q 485 675 578 675 q 317 630 392 675 q 200 507 243 585 q 157 329 157 429 q 163 261 157 294 q 88 144 132 188 q -1 100 44 100 m 483 100 q 341 163 394 100 q 288 326 288 225 q 319 460 288 404 q 407 540 351 517 q 513 457 446 488 q 664 424 581 426 q 679 329 679 381 q 626 163 679 225 q 483 100 572 100 m 588 611 l 588 492 q 747 569 689 503 q 804 738 804 636 q 803 769 804 753 q 799 801 801 785 q 686 794 743 821 q 690 743 690 768 q 663 646 690 681 q 588 611 636 611 m 446 894 q 472 796 443 833 q 625 855 569 808 q 681 971 681 901 q 630 1085 681 1044 q 479 1125 579 1125 q 384 1115 428 1125 q 306 1092 340 1106 q 313 1033 304 1061 q 335 988 321 1006 q 397 1004 363 996 q 471 1013 432 1013 q 553 967 553 1013 q 446 894 553 922 "},"ỡ":{"ha":876,"x_min":-51,"x_max":810,"o":"m -1 100 q -51 40 -51 100 q -40 -3 -51 14 q -11 -19 -29 -19 q 218 118 132 -19 q 331 17 263 54 q 485 -19 400 -19 q 652 26 579 -19 q 767 150 725 71 q 810 329 810 229 q 767 507 810 429 q 651 630 725 585 q 485 675 578 675 q 317 630 392 675 q 200 507 243 585 q 157 329 157 429 q 163 261 157 294 q 88 144 132 188 q -1 100 44 100 m 483 100 q 341 163 394 100 q 288 326 288 225 q 319 460 288 404 q 407 540 351 517 q 513 457 446 488 q 664 424 581 426 q 679 329 679 381 q 626 163 679 225 q 483 100 572 100 m 588 611 l 588 492 q 747 569 689 503 q 804 738 804 636 q 803 769 804 753 q 799 801 801 785 q 686 794 743 821 q 690 743 690 768 q 663 646 690 681 q 588 611 636 611 m 583 956 q 538 968 561 956 q 493 992 514 981 q 438 1017 465 1007 q 381 1028 411 1028 q 276 988 321 1028 q 218 883 231 947 q 256 859 233 865 q 306 851 279 853 q 340 899 325 883 q 381 915 356 915 q 426 903 401 915 q 481 876 451 892 q 547 848 525 854 q 588 842 569 842 q 693 883 651 842 q 749 988 735 924 q 661 1019 718 1019 q 628 972 643 988 q 583 956 614 956 "},"ø":{"ha":876,"x_min":-51,"x_max":810,"o":"m -1 100 q -51 40 -51 100 q -40 -3 -51 14 q -11 -19 -29 -19 q 218 118 132 -19 q 331 17 263 54 q 485 -19 400 -19 q 652 26 579 -19 q 767 150 725 71 q 810 329 810 229 q 767 507 810 429 q 651 630 725 585 q 485 675 578 675 q 317 630 392 675 q 200 507 243 585 q 157 329 157 429 q 163 261 157 294 q 88 144 132 188 q -1 100 44 100 m 483 100 q 341 163 394 100 q 288 326 288 225 q 319 460 288 404 q 407 540 351 517 q 513 457 446 488 q 664 424 581 426 q 679 329 679 381 q 626 163 679 225 q 483 100 572 100 m 175 -28 q 218 -69 193 -54 q 274 -93 243 -85 l 790 688 q 752 727 776 711 q 692 746 728 743 l 175 -28 "},"õ":{"ha":876,"x_min":-51,"x_max":810,"o":"m -1 100 q -51 40 -51 100 q -40 -3 -51 14 q -11 -19 -29 -19 q 218 118 132 -19 q 331 17 263 54 q 485 -19 400 -19 q 652 26 579 -19 q 767 150 725 71 q 810 329 810 229 q 767 507 810 429 q 651 630 725 585 q 485 675 578 675 q 317 630 392 675 q 200 507 243 585 q 157 329 157 429 q 163 261 157 294 q 88 144 132 188 q -1 100 44 100 m 483 100 q 341 163 394 100 q 288 326 288 225 q 319 460 288 404 q 407 540 351 517 q 513 457 446 488 q 664 424 581 426 q 679 329 679 381 q 626 163 679 225 q 483 100 572 100 m 583 956 q 538 968 561 956 q 493 992 514 981 q 438 1017 465 1007 q 381 1028 411 1028 q 276 988 321 1028 q 218 883 231 947 q 256 859 233 865 q 306 851 279 853 q 340 899 325 883 q 381 915 356 915 q 426 903 401 915 q 481 876 451 892 q 547 848 525 854 q 588 842 569 842 q 693 883 651 842 q 749 988 735 924 q 661 1019 718 1019 q 628 972 643 988 q 583 956 614 956 "},"œ":{"ha":1157,"x_min":-51,"x_max":1160,"o":"m -1 100 q -51 40 -51 100 q -40 -3 -51 14 q -11 -19 -29 -19 q 217 117 132 -19 q 326 17 260 54 q 474 -19 392 -19 q 623 20 556 -19 q 731 128 690 60 q 844 19 772 58 q 1010 -19 915 -19 q 1057 39 1057 -19 q 1046 82 1057 65 q 1017 99 1035 99 q 878 141 938 99 q 796 254 819 183 q 838 253 818 253 q 1007 282 935 253 q 1119 364 1079 311 q 1160 488 1160 417 q 1132 585 1160 542 q 1056 652 1104 628 q 949 676 1008 676 q 817 640 875 676 q 725 540 760 604 q 619 640 683 603 q 475 676 554 676 q 313 631 385 676 q 199 508 240 586 q 157 329 157 429 q 163 261 157 294 q 88 144 132 188 q -1 100 44 100 m 949 561 q 1013 538 986 561 q 1039 481 1039 515 q 983 397 1039 429 q 838 364 928 364 q 785 368 813 364 q 835 509 790 457 q 949 561 879 561 m 474 100 q 338 163 389 100 q 286 329 286 225 q 334 488 286 426 q 460 557 382 550 q 497 452 467 506 q 570 354 526 399 q 660 288 614 310 q 599 151 650 201 q 474 100 549 100 "},"p":{"ha":957,"x_min":-51,"x_max":996,"o":"m -7 -19 q 142 28 82 -19 q 245 160 201 75 q 328 356 289 244 l 333 371 l 333 -540 q 399 -550 365 -550 q 460 -540 433 -550 l 460 281 q 483 419 460 357 q 546 518 506 481 q 635 556 586 556 q 744 406 744 556 l 744 228 q 946 -19 744 -19 q 984 -1 972 -19 q 996 39 996 17 q 985 83 996 67 q 956 100 975 100 q 891 133 911 100 q 871 243 871 167 l 871 406 q 811 603 871 532 q 649 675 751 675 q 449 560 524 675 l 440 656 q 378 668 415 667 q 313 663 340 669 q 268 526 294 596 q 219 393 242 457 q 160 251 193 318 q 88 142 128 185 q 1 100 49 100 q -39 82 -26 100 q -51 40 -51 64 q -40 -1 -51 18 q -7 -19 -29 -19 "},"q":{"ha":961,"x_min":-51,"x_max":783,"o":"m -1 100 q -51 40 -51 100 q -40 -3 -51 14 q -11 -19 -29 -19 q 215 113 129 -19 q 315 16 253 51 q 457 -19 378 -19 q 567 2 517 -19 q 657 63 618 24 l 657 -540 q 783 -540 721 -560 l 783 663 q 721 672 754 672 q 686 669 703 672 q 657 663 669 667 l 657 606 q 578 656 625 638 q 482 675 531 675 q 319 628 390 675 q 206 499 247 581 q 164 311 164 417 q 165 269 164 290 q 90 146 135 192 q -1 100 44 100 m 293 311 q 319 437 293 382 q 392 524 346 492 q 497 556 438 556 q 586 533 543 556 q 657 472 629 510 l 657 317 q 603 160 657 219 q 463 100 550 100 q 338 156 383 100 q 293 311 293 213 "},"r":{"ha":796,"x_min":-51,"x_max":835,"o":"m -11 -19 q 172 43 93 -19 q 293 218 250 106 q 336 481 336 331 q 335 525 336 503 q 438 542 369 528 q 492 553 476 550 q 519 556 507 556 q 569 531 556 556 q 583 443 583 506 l 583 228 q 785 -19 583 -19 q 823 -1 811 -19 q 835 39 835 17 q 824 83 835 67 q 794 100 814 100 q 730 133 750 100 q 710 243 710 167 l 710 467 q 667 619 710 563 q 549 675 624 675 q 502 672 529 675 q 431 658 475 668 q 318 640 360 642 q 275 763 301 714 q 194 755 231 769 q 140 714 157 740 q 151 663 140 694 q 176 604 161 632 q 203 564 190 576 q 210 529 207 550 q 213 483 213 508 q 184 289 213 376 q 108 151 156 201 q -1 100 60 100 q -51 40 -51 100 q -40 -3 -51 14 q -11 -19 -29 -19 "},"s":{"ha":843,"x_min":-51,"x_max":781,"o":"m -11 -19 q 149 35 79 -19 q 296 219 219 90 l 435 454 q 485 408 457 431 l 590 325 q 657 211 657 272 q 622 131 657 163 q 529 100 588 100 q 385 150 461 100 q 329 42 326 115 q 431 -5 382 10 q 528 -19 479 -19 q 607 -10 569 -19 q 653 -17 632 -14 q 696 -19 674 -19 q 733 -3 719 -19 q 746 39 746 13 q 739 75 746 60 q 781 206 781 132 q 752 316 781 267 q 667 411 724 365 l 561 497 q 524 531 539 515 q 499 561 508 546 q 547 654 532 619 q 568 714 563 689 q 538 747 560 733 q 488 767 515 761 q 438 768 461 774 q 395 728 421 761 q 369 625 369 694 q 372 583 369 603 l 224 332 q 97 155 151 210 q -1 100 43 100 q -51 40 -51 100 q -40 -3 -51 14 q -11 -19 -29 -19 "},"ş":{"ha":843,"x_min":-51,"x_max":781,"o":"m -11 -19 q 149 35 79 -19 q 296 219 219 90 l 435 454 q 485 408 457 431 l 590 325 q 657 211 657 272 q 622 131 657 163 q 529 100 588 100 q 385 150 461 100 q 329 42 326 115 q 431 -5 382 10 q 528 -19 479 -19 q 607 -10 569 -19 q 653 -17 632 -14 q 696 -19 674 -19 q 733 -3 719 -19 q 746 39 746 13 q 739 75 746 60 q 781 206 781 132 q 752 316 781 267 q 667 411 724 365 l 561 497 q 524 531 539 515 q 499 561 508 546 q 547 654 532 619 q 568 714 563 689 q 538 747 560 733 q 488 767 515 761 q 438 768 461 774 q 395 728 421 761 q 369 625 369 694 q 372 583 369 603 l 224 332 q 97 155 151 210 q -1 100 43 100 q -51 40 -51 100 q -40 -3 -51 14 q -11 -19 -29 -19 m 500 -361 q 644 -321 590 -361 q 699 -212 699 -281 q 663 -124 699 -160 q 564 -74 628 -89 l 569 10 l 458 10 l 449 -147 q 582 -210 582 -157 q 559 -247 582 -235 q 496 -260 536 -260 q 452 -257 474 -260 q 415 -250 431 -254 q 400 -349 383 -293 q 447 -358 419 -354 q 500 -361 474 -361 "},"ß":{"ha":1122,"x_min":-51,"x_max":1053,"o":"m -7 -19 q 142 28 82 -19 q 245 160 201 75 q 328 356 289 244 l 369 468 l 369 -540 q 496 -540 431 -560 l 496 624 q 517 868 496 756 q 574 1065 538 981 q 662 1195 611 1149 q 771 1242 713 1242 q 859 1198 828 1242 q 890 1076 890 1154 q 842 892 890 981 q 715 742 794 803 q 618 763 669 756 q 586 674 586 731 q 606 608 586 633 q 658 583 625 583 q 732 607 690 583 q 873 503 824 572 q 922 339 922 435 q 861 165 922 229 q 696 100 800 100 q 589 119 643 100 q 563 63 568 96 q 569 4 557 29 q 690 -19 625 -19 q 804 -4 751 -19 q 975 -19 878 -19 q 1012 -3 999 -19 q 1025 39 1025 13 q 1014 82 1025 65 q 985 99 1003 99 l 972 99 q 1032 204 1011 144 q 1053 335 1053 264 q 997 543 1053 451 q 838 692 940 635 q 972 878 925 778 q 1019 1083 1019 979 q 953 1286 1019 1211 q 774 1361 886 1361 q 567 1276 656 1361 q 426 1035 478 1190 q 369 668 375 879 q 313 663 336 669 q 268 526 294 596 q 219 393 242 457 q 160 251 193 318 q 88 142 128 185 q 1 100 49 100 q -39 82 -26 100 q -51 40 -51 64 q -40 -1 -51 18 q -7 -19 -29 -19 "},"t":{"ha":557,"x_min":-51,"x_max":613,"o":"m -1 100 q -39 83 -26 100 q -51 40 -51 67 q -40 -2 -51 15 q -11 -19 -29 -19 q 160 28 76 -19 q 303 176 244 75 q 395 32 333 83 q 546 -19 457 -19 q 583 -3 569 -19 q 596 39 596 13 q 556 100 596 100 q 435 174 478 100 q 393 388 393 249 l 393 675 l 601 675 q 613 731 613 697 q 601 786 613 764 l 393 786 l 393 1032 q 329 1042 363 1042 q 265 1032 292 1042 l 265 786 l 113 786 q 103 731 103 764 q 113 675 103 697 l 265 675 l 265 542 q 238 327 265 413 q 167 192 210 242 q 78 121 124 142 q -1 100 33 100 "},"u":{"ha":910,"x_min":-51,"x_max":949,"o":"m -1 100 q -40 82 -28 100 q -51 40 -51 64 q -41 -1 -51 18 q -11 -19 -31 -19 q 95 3 46 -19 q 182 63 144 25 q 232 131 210 90 q 476 -19 297 -19 q 717 103 638 -19 q 899 -19 763 -19 q 937 -1 925 -19 q 949 39 949 17 q 940 81 949 61 q 908 100 932 100 q 831 141 854 100 q 808 256 808 182 l 808 656 q 744 665 779 665 q 682 656 711 665 l 682 376 q 483 104 682 104 q 360 160 399 104 q 322 335 322 215 l 322 656 q 260 665 292 665 q 225 663 242 665 q 196 656 208 660 l 196 450 q 180 304 196 379 q 124 174 164 229 q 61 118 94 136 q -1 100 28 100 "},"ú":{"ha":910,"x_min":-51,"x_max":949,"o":"m -1 100 q -40 82 -28 100 q -51 40 -51 64 q -41 -1 -51 18 q -11 -19 -31 -19 q 95 3 46 -19 q 182 63 144 25 q 232 131 210 90 q 476 -19 297 -19 q 717 103 638 -19 q 899 -19 763 -19 q 937 -1 925 -19 q 949 39 949 17 q 940 81 949 61 q 908 100 932 100 q 831 141 854 100 q 808 256 808 182 l 808 656 q 744 665 779 665 q 682 656 711 665 l 682 376 q 483 104 682 104 q 360 160 399 104 q 322 335 322 215 l 322 656 q 260 665 292 665 q 225 663 242 665 q 196 656 208 660 l 196 450 q 180 304 196 379 q 124 174 164 229 q 61 118 94 136 q -1 100 28 100 m 417 796 q 519 872 471 829 q 605 956 567 914 q 663 1028 643 997 q 626 1076 650 1056 q 569 1104 601 1096 q 513 1038 549 1075 q 433 963 476 1000 q 346 894 389 925 q 417 796 361 831 "},"û":{"ha":910,"x_min":-51,"x_max":949,"o":"m -1 100 q -40 82 -28 100 q -51 40 -51 64 q -41 -1 -51 18 q -11 -19 -31 -19 q 95 3 46 -19 q 182 63 144 25 q 232 131 210 90 q 476 -19 297 -19 q 717 103 638 -19 q 899 -19 763 -19 q 937 -1 925 -19 q 949 39 949 17 q 940 81 949 61 q 908 100 932 100 q 831 141 854 100 q 808 256 808 182 l 808 656 q 744 665 779 665 q 682 656 711 665 l 682 376 q 483 104 682 104 q 360 160 399 104 q 322 335 322 215 l 322 656 q 260 665 292 665 q 225 663 242 665 q 196 656 208 660 l 196 450 q 180 304 196 379 q 124 174 164 229 q 61 118 94 136 q -1 100 28 100 m 338 796 q 414 867 367 817 q 503 967 461 917 q 560 901 529 935 q 619 839 590 867 q 669 796 649 811 q 717 829 693 803 q 750 882 742 856 q 653 981 707 924 q 546 1104 600 1039 q 461 1104 504 1111 q 353 981 407 1039 q 257 882 300 922 q 290 829 265 856 q 338 796 314 803 "},"ü":{"ha":910,"x_min":-51,"x_max":949,"o":"m -1 100 q -40 82 -28 100 q -51 40 -51 64 q -41 -1 -51 18 q -11 -19 -31 -19 q 95 3 46 -19 q 182 63 144 25 q 232 131 210 90 q 476 -19 297 -19 q 717 103 638 -19 q 899 -19 763 -19 q 937 -1 925 -19 q 949 39 949 17 q 940 81 949 61 q 908 100 932 100 q 831 141 854 100 q 808 256 808 182 l 808 656 q 744 665 779 665 q 682 656 711 665 l 682 376 q 483 104 682 104 q 360 160 399 104 q 322 335 322 215 l 322 656 q 260 665 292 665 q 225 663 242 665 q 196 656 208 660 l 196 450 q 180 304 196 379 q 124 174 164 229 q 61 118 94 136 q -1 100 28 100 m 375 856 q 440 883 417 856 q 463 950 463 911 q 440 1017 463 990 q 375 1044 417 1044 q 310 1017 333 1044 q 288 950 288 990 q 310 883 288 911 q 375 856 333 856 m 622 856 q 687 883 664 856 q 710 950 710 911 q 687 1017 710 990 q 622 1044 664 1044 q 558 1017 581 1044 q 535 950 535 990 q 558 883 535 911 q 622 856 581 856 "},"ụ":{"ha":910,"x_min":-51,"x_max":949,"o":"m -1 100 q -40 82 -28 100 q -51 40 -51 64 q -41 -1 -51 18 q -11 -19 -31 -19 q 95 3 46 -19 q 182 63 144 25 q 232 131 210 90 q 476 -19 297 -19 q 717 103 638 -19 q 899 -19 763 -19 q 937 -1 925 -19 q 949 39 949 17 q 940 81 949 61 q 908 100 932 100 q 831 141 854 100 q 808 256 808 182 l 808 656 q 744 665 779 665 q 682 656 711 665 l 682 376 q 483 104 682 104 q 360 160 399 104 q 322 335 322 215 l 322 656 q 260 665 292 665 q 225 663 242 665 q 196 656 208 660 l 196 450 q 180 304 196 379 q 124 174 164 229 q 61 118 94 136 q -1 100 28 100 m 503 -393 q 570 -366 543 -393 q 597 -299 597 -339 q 571 -231 597 -257 q 503 -204 544 -204 q 435 -231 463 -204 q 408 -299 408 -257 q 436 -365 408 -337 q 503 -393 464 -393 "},"ù":{"ha":910,"x_min":-51,"x_max":949,"o":"m -1 100 q -40 82 -28 100 q -51 40 -51 64 q -41 -1 -51 18 q -11 -19 -31 -19 q 95 3 46 -19 q 182 63 144 25 q 232 131 210 90 q 476 -19 297 -19 q 717 103 638 -19 q 899 -19 763 -19 q 937 -1 925 -19 q 949 39 949 17 q 940 81 949 61 q 908 100 932 100 q 831 141 854 100 q 808 256 808 182 l 808 656 q 744 665 779 665 q 682 656 711 665 l 682 376 q 483 104 682 104 q 360 160 399 104 q 322 335 322 215 l 322 656 q 260 665 292 665 q 225 663 242 665 q 196 656 208 660 l 196 450 q 180 304 196 379 q 124 174 164 229 q 61 118 94 136 q -1 100 28 100 m 581 796 q 626 839 607 813 q 653 894 644 865 q 565 963 610 925 q 482 1038 519 1000 q 424 1104 444 1075 q 367 1076 392 1096 q 329 1028 342 1056 q 389 956 350 997 q 478 872 428 914 q 581 796 528 829 "},"ủ":{"ha":910,"x_min":-51,"x_max":949,"o":"m -1 100 q -40 82 -28 100 q -51 40 -51 64 q -41 -1 -51 18 q -11 -19 -31 -19 q 95 3 46 -19 q 182 63 144 25 q 232 131 210 90 q 476 -19 297 -19 q 717 103 638 -19 q 899 -19 763 -19 q 937 -1 925 -19 q 949 39 949 17 q 940 81 949 61 q 908 100 932 100 q 831 141 854 100 q 808 256 808 182 l 808 656 q 744 665 779 665 q 682 656 711 665 l 682 376 q 483 104 682 104 q 360 160 399 104 q 322 335 322 215 l 322 656 q 260 665 292 665 q 225 663 242 665 q 196 656 208 660 l 196 450 q 180 304 196 379 q 124 174 164 229 q 61 118 94 136 q -1 100 28 100 m 465 894 q 492 796 463 833 q 644 855 589 808 q 700 971 700 901 q 649 1085 700 1044 q 499 1125 599 1125 q 403 1115 447 1125 q 325 1092 360 1106 q 332 1033 324 1061 q 354 988 340 1006 q 417 1004 382 996 q 490 1013 451 1013 q 572 967 572 1013 q 465 894 572 922 "},"ư":{"ha":910,"x_min":-51,"x_max":999,"o":"m -1 100 q -40 82 -28 100 q -51 40 -51 64 q -41 -1 -51 18 q -11 -19 -31 -19 q 95 3 46 -19 q 182 63 144 25 q 232 131 210 90 q 476 -19 297 -19 q 717 103 638 -19 q 899 -19 763 -19 q 937 -1 925 -19 q 949 39 949 17 q 940 81 949 61 q 908 100 932 100 q 831 141 854 100 q 808 256 808 182 l 808 496 q 948 578 897 513 q 999 738 999 643 q 997 769 999 753 q 993 801 996 785 q 881 794 938 821 q 885 743 885 768 q 808 614 885 633 l 808 656 q 744 665 779 665 q 682 656 711 665 l 682 376 q 483 104 682 104 q 360 160 399 104 q 322 335 322 215 l 322 656 q 260 665 292 665 q 225 663 242 665 q 196 656 208 660 l 196 450 q 180 304 196 379 q 124 174 164 229 q 61 118 94 136 q -1 100 28 100 "},"ứ":{"ha":910,"x_min":-51,"x_max":999,"o":"m -1 100 q -40 82 -28 100 q -51 40 -51 64 q -41 -1 -51 18 q -11 -19 -31 -19 q 95 3 46 -19 q 182 63 144 25 q 232 131 210 90 q 476 -19 297 -19 q 717 103 638 -19 q 899 -19 763 -19 q 937 -1 925 -19 q 949 39 949 17 q 940 81 949 61 q 908 100 932 100 q 831 141 854 100 q 808 256 808 182 l 808 496 q 948 578 897 513 q 999 738 999 643 q 997 769 999 753 q 993 801 996 785 q 881 794 938 821 q 885 743 885 768 q 808 614 885 633 l 808 656 q 744 665 779 665 q 682 656 711 665 l 682 376 q 483 104 682 104 q 360 160 399 104 q 322 335 322 215 l 322 656 q 260 665 292 665 q 225 663 242 665 q 196 656 208 660 l 196 450 q 180 304 196 379 q 124 174 164 229 q 61 118 94 136 q -1 100 28 100 m 417 796 q 519 872 471 829 q 605 956 567 914 q 663 1028 643 997 q 626 1076 650 1056 q 569 1104 601 1096 q 513 1038 549 1075 q 433 963 476 1000 q 346 894 389 925 q 417 796 361 831 "},"ự":{"ha":910,"x_min":-51,"x_max":999,"o":"m -1 100 q -40 82 -28 100 q -51 40 -51 64 q -41 -1 -51 18 q -11 -19 -31 -19 q 95 3 46 -19 q 182 63 144 25 q 232 131 210 90 q 476 -19 297 -19 q 717 103 638 -19 q 899 -19 763 -19 q 937 -1 925 -19 q 949 39 949 17 q 940 81 949 61 q 908 100 932 100 q 831 141 854 100 q 808 256 808 182 l 808 496 q 948 578 897 513 q 999 738 999 643 q 997 769 999 753 q 993 801 996 785 q 881 794 938 821 q 885 743 885 768 q 808 614 885 633 l 808 656 q 744 665 779 665 q 682 656 711 665 l 682 376 q 483 104 682 104 q 360 160 399 104 q 322 335 322 215 l 322 656 q 260 665 292 665 q 225 663 242 665 q 196 656 208 660 l 196 450 q 180 304 196 379 q 124 174 164 229 q 61 118 94 136 q -1 100 28 100 m 503 -393 q 570 -366 543 -393 q 597 -299 597 -339 q 571 -231 597 -257 q 503 -204 544 -204 q 435 -231 463 -204 q 408 -299 408 -257 q 436 -365 408 -337 q 503 -393 464 -393 "},"ừ":{"ha":910,"x_min":-51,"x_max":999,"o":"m -1 100 q -40 82 -28 100 q -51 40 -51 64 q -41 -1 -51 18 q -11 -19 -31 -19 q 95 3 46 -19 q 182 63 144 25 q 232 131 210 90 q 476 -19 297 -19 q 717 103 638 -19 q 899 -19 763 -19 q 937 -1 925 -19 q 949 39 949 17 q 940 81 949 61 q 908 100 932 100 q 831 141 854 100 q 808 256 808 182 l 808 496 q 948 578 897 513 q 999 738 999 643 q 997 769 999 753 q 993 801 996 785 q 881 794 938 821 q 885 743 885 768 q 808 614 885 633 l 808 656 q 744 665 779 665 q 682 656 711 665 l 682 376 q 483 104 682 104 q 360 160 399 104 q 322 335 322 215 l 322 656 q 260 665 292 665 q 225 663 242 665 q 196 656 208 660 l 196 450 q 180 304 196 379 q 124 174 164 229 q 61 118 94 136 q -1 100 28 100 m 581 796 q 626 839 607 813 q 653 894 644 865 q 565 963 610 925 q 482 1038 519 1000 q 424 1104 444 1075 q 367 1076 392 1096 q 329 1028 342 1056 q 389 956 350 997 q 478 872 428 914 q 581 796 528 829 "},"ử":{"ha":910,"x_min":-51,"x_max":999,"o":"m -1 100 q -40 82 -28 100 q -51 40 -51 64 q -41 -1 -51 18 q -11 -19 -31 -19 q 95 3 46 -19 q 182 63 144 25 q 232 131 210 90 q 476 -19 297 -19 q 717 103 638 -19 q 899 -19 763 -19 q 937 -1 925 -19 q 949 39 949 17 q 940 81 949 61 q 908 100 932 100 q 831 141 854 100 q 808 256 808 182 l 808 496 q 948 578 897 513 q 999 738 999 643 q 997 769 999 753 q 993 801 996 785 q 881 794 938 821 q 885 743 885 768 q 808 614 885 633 l 808 656 q 744 665 779 665 q 682 656 711 665 l 682 376 q 483 104 682 104 q 360 160 399 104 q 322 335 322 215 l 322 656 q 260 665 292 665 q 225 663 242 665 q 196 656 208 660 l 196 450 q 180 304 196 379 q 124 174 164 229 q 61 118 94 136 q -1 100 28 100 m 465 894 q 492 796 463 833 q 644 855 589 808 q 700 971 700 901 q 649 1085 700 1044 q 499 1125 599 1125 q 403 1115 447 1125 q 325 1092 360 1106 q 332 1033 324 1061 q 354 988 340 1006 q 417 1004 382 996 q 490 1013 451 1013 q 572 967 572 1013 q 465 894 572 922 "},"ữ":{"ha":910,"x_min":-51,"x_max":999,"o":"m -1 100 q -40 82 -28 100 q -51 40 -51 64 q -41 -1 -51 18 q -11 -19 -31 -19 q 95 3 46 -19 q 182 63 144 25 q 232 131 210 90 q 476 -19 297 -19 q 717 103 638 -19 q 899 -19 763 -19 q 937 -1 925 -19 q 949 39 949 17 q 940 81 949 61 q 908 100 932 100 q 831 141 854 100 q 808 256 808 182 l 808 496 q 948 578 897 513 q 999 738 999 643 q 997 769 999 753 q 993 801 996 785 q 881 794 938 821 q 885 743 885 768 q 808 614 885 633 l 808 656 q 744 665 779 665 q 682 656 711 665 l 682 376 q 483 104 682 104 q 360 160 399 104 q 322 335 322 215 l 322 656 q 260 665 292 665 q 225 663 242 665 q 196 656 208 660 l 196 450 q 180 304 196 379 q 124 174 164 229 q 61 118 94 136 q -1 100 28 100 m 603 956 q 557 968 581 956 q 513 992 533 981 q 458 1017 485 1007 q 400 1028 431 1028 q 295 988 340 1028 q 238 883 250 947 q 276 859 253 865 q 325 851 299 853 q 360 899 344 883 q 400 915 375 915 q 446 903 421 915 q 500 876 471 892 q 567 848 544 854 q 607 842 589 842 q 713 883 671 842 q 768 988 754 924 q 681 1019 738 1019 q 648 972 663 988 q 603 956 633 956 "},"ũ":{"ha":910,"x_min":-51,"x_max":949,"o":"m -1 100 q -40 82 -28 100 q -51 40 -51 64 q -41 -1 -51 18 q -11 -19 -31 -19 q 95 3 46 -19 q 182 63 144 25 q 232 131 210 90 q 476 -19 297 -19 q 717 103 638 -19 q 899 -19 763 -19 q 937 -1 925 -19 q 949 39 949 17 q 940 81 949 61 q 908 100 932 100 q 831 141 854 100 q 808 256 808 182 l 808 656 q 744 665 779 665 q 682 656 711 665 l 682 376 q 483 104 682 104 q 360 160 399 104 q 322 335 322 215 l 322 656 q 260 665 292 665 q 225 663 242 665 q 196 656 208 660 l 196 450 q 180 304 196 379 q 124 174 164 229 q 61 118 94 136 q -1 100 28 100 m 603 956 q 557 968 581 956 q 513 992 533 981 q 458 1017 485 1007 q 400 1028 431 1028 q 295 988 340 1028 q 238 883 250 947 q 276 859 253 865 q 325 851 299 853 q 360 899 344 883 q 400 915 375 915 q 446 903 421 915 q 500 876 471 892 q 567 848 544 854 q 607 842 589 842 q 713 883 671 842 q 768 988 754 924 q 681 1019 738 1019 q 648 972 663 988 q 603 956 633 956 "},"v":{"ha":1113,"x_min":-51,"x_max":1013,"o":"m -11 -19 q 156 44 92 -19 q 256 244 219 107 l 307 444 q 343 529 322 503 q 393 556 364 556 q 438 530 419 556 q 456 443 456 504 l 456 225 q 510 47 456 113 q 657 -19 564 -19 q 839 40 758 -19 q 966 203 919 100 q 1013 436 1013 307 q 984 608 1013 540 q 910 675 956 675 q 855 653 883 675 q 807 595 826 632 q 783 514 788 558 q 885 447 819 472 q 885 425 885 436 q 855 266 885 340 q 776 146 825 192 q 671 100 728 100 q 582 251 582 100 l 582 461 q 530 617 582 560 q 404 675 478 675 q 182 458 240 675 l 140 296 q 78 145 114 190 q -1 100 43 100 q -51 40 -51 100 q -40 -3 -51 14 q -11 -19 -29 -19 "},"w":{"ha":1428,"x_min":-51,"x_max":1328,"o":"m -11 -19 q 156 44 92 -19 q 256 244 219 107 l 307 444 q 343 529 322 503 q 393 556 364 556 q 441 526 426 556 q 456 443 456 496 l 456 282 q 514 60 456 139 q 678 -19 572 -19 q 796 10 743 -19 q 882 93 849 40 q 956 10 910 39 q 1058 -19 1001 -19 q 1206 38 1146 -19 q 1297 199 1267 96 q 1328 436 1328 301 q 1300 608 1328 542 q 1228 675 1272 675 q 1172 652 1200 675 q 1126 592 1144 629 q 1101 514 1107 556 q 1201 447 1133 472 q 1201 431 1201 439 q 1186 259 1201 333 q 1140 142 1171 185 q 1063 100 1110 100 q 976 167 1004 100 q 947 379 947 233 l 947 463 q 885 472 919 472 q 852 469 868 472 q 824 463 836 467 l 824 379 q 790 175 824 250 q 688 100 757 100 q 608 148 633 100 q 582 297 582 196 l 582 467 q 534 617 582 560 q 404 675 486 675 q 182 458 240 675 l 140 296 q 78 145 114 190 q -1 100 43 100 q -51 40 -51 100 q -40 -3 -51 14 q -11 -19 -29 -19 "},"x":{"ha":1114,"x_min":-51,"x_max":1093,"o":"m -1 100 q -40 82 -28 100 q -51 40 -51 64 q -41 -1 -51 18 q -11 -19 -31 -19 q 124 15 68 -19 q 216 103 179 49 q 278 219 253 158 l 382 463 q 432 535 404 515 q 494 556 460 556 q 574 526 539 556 q 631 448 610 497 q 653 339 653 399 q 608 186 653 251 q 456 100 553 100 q 332 146 396 100 q 293 103 308 132 q 276 42 278 74 q 357 -2 304 15 q 460 -19 410 -19 q 599 19 535 -19 q 708 121 664 57 q 811 17 746 53 q 964 -19 876 -19 q 1001 -4 988 -19 q 1014 38 1014 11 q 1003 82 1014 65 q 974 99 992 99 q 873 131 917 99 q 804 218 829 163 q 779 346 779 274 q 825 497 779 439 q 944 556 871 556 q 994 549 968 556 q 1054 531 1021 543 q 1081 577 1069 546 q 1093 635 1093 608 q 1024 664 1067 653 q 938 675 981 675 q 810 641 867 675 q 715 549 753 607 q 622 641 678 607 q 499 675 565 675 q 375 640 433 675 q 272 506 317 606 l 178 288 q 103 154 144 208 q -1 100 61 100 "},"y":{"ha":986,"x_min":-51,"x_max":808,"o":"m -1 100 q -40 82 -28 100 q -51 40 -51 64 q -41 -1 -51 18 q -11 -19 -31 -19 q 95 3 46 -19 q 182 63 144 25 q 231 129 208 89 q 474 -19 297 -19 q 685 72 606 -19 l 685 7 q 338 -469 338 -215 q 399 -649 338 -583 q 571 -714 461 -714 q 808 -389 808 -714 l 808 656 q 744 665 779 665 q 682 656 711 665 l 682 403 q 635 184 682 264 q 490 104 589 104 q 322 335 322 104 l 322 656 q 260 665 292 665 q 225 663 242 665 q 196 656 208 660 l 196 450 q 180 304 196 379 q 124 174 164 229 q 61 118 94 136 q -1 100 28 100 m 463 -467 q 685 -140 463 -297 l 685 -389 q 567 -594 685 -594 q 490 -560 518 -594 q 463 -467 463 -526 "},"ý":{"ha":986,"x_min":-51,"x_max":808,"o":"m -1 100 q -40 82 -28 100 q -51 40 -51 64 q -41 -1 -51 18 q -11 -19 -31 -19 q 95 3 46 -19 q 182 63 144 25 q 231 129 208 89 q 474 -19 297 -19 q 685 72 606 -19 l 685 7 q 338 -469 338 -215 q 399 -649 338 -583 q 571 -714 461 -714 q 808 -389 808 -714 l 808 656 q 744 665 779 665 q 682 656 711 665 l 682 403 q 635 184 682 264 q 490 104 589 104 q 322 335 322 104 l 322 656 q 260 665 292 665 q 225 663 242 665 q 196 656 208 660 l 196 450 q 180 304 196 379 q 124 174 164 229 q 61 118 94 136 q -1 100 28 100 m 463 -467 q 685 -140 463 -297 l 685 -389 q 567 -594 685 -594 q 490 -560 518 -594 q 463 -467 463 -526 m 415 796 q 517 872 469 829 q 603 956 565 914 q 661 1028 642 997 q 624 1076 649 1056 q 568 1104 600 1096 q 511 1038 547 1075 q 431 963 475 1000 q 344 894 388 925 q 415 796 360 831 "},"ÿ":{"ha":986,"x_min":-51,"x_max":808,"o":"m -1 100 q -40 82 -28 100 q -51 40 -51 64 q -41 -1 -51 18 q -11 -19 -31 -19 q 95 3 46 -19 q 182 63 144 25 q 231 129 208 89 q 474 -19 297 -19 q 685 72 606 -19 l 685 7 q 338 -469 338 -215 q 399 -649 338 -583 q 571 -714 461 -714 q 808 -389 808 -714 l 808 656 q 744 665 779 665 q 682 656 711 665 l 682 403 q 635 184 682 264 q 490 104 589 104 q 322 335 322 104 l 322 656 q 260 665 292 665 q 225 663 242 665 q 196 656 208 660 l 196 450 q 180 304 196 379 q 124 174 164 229 q 61 118 94 136 q -1 100 28 100 m 463 -467 q 685 -140 463 -297 l 685 -389 q 567 -594 685 -594 q 490 -560 518 -594 q 463 -467 463 -526 m 374 856 q 438 883 415 856 q 461 950 461 911 q 438 1017 461 990 q 374 1044 415 1044 q 309 1017 332 1044 q 286 950 286 990 q 309 883 286 911 q 374 856 332 856 m 621 856 q 685 883 663 856 q 708 950 708 911 q 685 1017 708 990 q 621 1044 663 1044 q 556 1017 579 1044 q 533 950 533 990 q 556 883 533 911 q 621 856 579 856 "},"ỵ":{"ha":986,"x_min":-51,"x_max":1051,"o":"m -1 100 q -40 82 -28 100 q -51 40 -51 64 q -41 -1 -51 18 q -11 -19 -31 -19 q 95 3 46 -19 q 182 63 144 25 q 231 129 208 89 q 474 -19 297 -19 q 685 72 606 -19 l 685 7 q 338 -469 338 -215 q 399 -649 338 -583 q 571 -714 461 -714 q 808 -389 808 -714 l 808 656 q 744 665 779 665 q 682 656 711 665 l 682 403 q 635 184 682 264 q 490 104 589 104 q 322 335 322 104 l 322 656 q 260 665 292 665 q 225 663 242 665 q 196 656 208 660 l 196 450 q 180 304 196 379 q 124 174 164 229 q 61 118 94 136 q -1 100 28 100 m 463 -467 q 685 -140 463 -297 l 685 -389 q 567 -594 685 -594 q 490 -560 518 -594 q 463 -467 463 -526 m 957 -393 q 1024 -366 997 -393 q 1051 -299 1051 -339 q 1025 -231 1051 -257 q 957 -204 999 -204 q 890 -231 917 -204 q 863 -299 863 -257 q 890 -365 863 -337 q 957 -393 918 -393 "},"ỳ":{"ha":986,"x_min":-51,"x_max":808,"o":"m -1 100 q -40 82 -28 100 q -51 40 -51 64 q -41 -1 -51 18 q -11 -19 -31 -19 q 95 3 46 -19 q 182 63 144 25 q 231 129 208 89 q 474 -19 297 -19 q 685 72 606 -19 l 685 7 q 338 -469 338 -215 q 399 -649 338 -583 q 571 -714 461 -714 q 808 -389 808 -714 l 808 656 q 744 665 779 665 q 682 656 711 665 l 682 403 q 635 184 682 264 q 490 104 589 104 q 322 335 322 104 l 322 656 q 260 665 292 665 q 225 663 242 665 q 196 656 208 660 l 196 450 q 180 304 196 379 q 124 174 164 229 q 61 118 94 136 q -1 100 28 100 m 463 -467 q 685 -140 463 -297 l 685 -389 q 567 -594 685 -594 q 490 -560 518 -594 q 463 -467 463 -526 m 579 796 q 624 839 606 813 q 651 894 643 865 q 563 963 608 925 q 481 1038 518 1000 q 422 1104 443 1075 q 365 1076 390 1096 q 328 1028 340 1056 q 388 956 349 997 q 476 872 426 914 q 579 796 526 829 "},"ỷ":{"ha":986,"x_min":-51,"x_max":808,"o":"m -1 100 q -40 82 -28 100 q -51 40 -51 64 q -41 -1 -51 18 q -11 -19 -31 -19 q 95 3 46 -19 q 182 63 144 25 q 231 129 208 89 q 474 -19 297 -19 q 685 72 606 -19 l 685 7 q 338 -469 338 -215 q 399 -649 338 -583 q 571 -714 461 -714 q 808 -389 808 -714 l 808 656 q 744 665 779 665 q 682 656 711 665 l 682 403 q 635 184 682 264 q 490 104 589 104 q 322 335 322 104 l 322 656 q 260 665 292 665 q 225 663 242 665 q 196 656 208 660 l 196 450 q 180 304 196 379 q 124 174 164 229 q 61 118 94 136 q -1 100 28 100 m 463 -467 q 685 -140 463 -297 l 685 -389 q 567 -594 685 -594 q 490 -560 518 -594 q 463 -467 463 -526 m 464 894 q 490 796 461 833 q 643 855 588 808 q 699 971 699 901 q 648 1085 699 1044 q 497 1125 597 1125 q 402 1115 446 1125 q 324 1092 358 1106 q 331 1033 322 1061 q 353 988 339 1006 q 415 1004 381 996 q 489 1013 450 1013 q 571 967 571 1013 q 464 894 571 922 "},"ỹ":{"ha":986,"x_min":-51,"x_max":808,"o":"m -1 100 q -40 82 -28 100 q -51 40 -51 64 q -41 -1 -51 18 q -11 -19 -31 -19 q 95 3 46 -19 q 182 63 144 25 q 231 129 208 89 q 474 -19 297 -19 q 685 72 606 -19 l 685 7 q 338 -469 338 -215 q 399 -649 338 -583 q 571 -714 461 -714 q 808 -389 808 -714 l 808 656 q 744 665 779 665 q 682 656 711 665 l 682 403 q 635 184 682 264 q 490 104 589 104 q 322 335 322 104 l 322 656 q 260 665 292 665 q 225 663 242 665 q 196 656 208 660 l 196 450 q 180 304 196 379 q 124 174 164 229 q 61 118 94 136 q -1 100 28 100 m 463 -467 q 685 -140 463 -297 l 685 -389 q 567 -594 685 -594 q 490 -560 518 -594 q 463 -467 463 -526 m 601 956 q 556 968 579 956 q 511 992 532 981 q 456 1017 483 1007 q 399 1028 429 1028 q 294 988 339 1028 q 236 883 249 947 q 274 859 251 865 q 324 851 297 853 q 358 899 343 883 q 399 915 374 915 q 444 903 419 915 q 499 876 469 892 q 565 848 543 854 q 606 842 588 842 q 711 883 669 842 q 767 988 753 924 q 679 1019 736 1019 q 647 972 661 988 q 601 956 632 956 "},"z":{"ha":965,"x_min":-51,"x_max":889,"o":"m -11 -19 q 172 43 93 -19 q 293 218 250 106 q 336 481 336 331 q 333 542 336 511 q 519 526 410 526 q 581 528 542 526 q 653 533 619 531 l 346 57 q 385 11 357 31 q 444 -15 413 -8 l 469 19 q 543 97 510 74 q 613 119 576 119 q 722 28 686 119 q 493 -223 574 -92 q 413 -482 413 -354 q 474 -649 413 -585 q 631 -714 535 -714 q 827 -612 765 -714 q 889 -294 889 -510 q 858 -13 889 -131 q 771 168 828 104 q 635 232 714 232 q 583 225 610 232 l 810 569 q 785 629 804 604 q 736 664 767 654 q 638 649 699 654 q 517 643 576 643 q 313 665 401 643 q 275 763 297 722 q 194 755 231 769 q 140 714 157 740 q 151 663 140 694 q 176 604 161 632 q 203 564 190 576 q 210 529 207 550 q 213 483 213 508 q 184 289 213 376 q 108 151 156 201 q -1 100 60 100 q -51 40 -51 100 q -40 -3 -51 14 q -11 -19 -29 -19 m 535 -468 q 751 -99 535 -285 q 761 -293 761 -179 q 733 -527 761 -457 q 636 -597 704 -597 q 562 -562 589 -597 q 535 -468 535 -528 "},"ª":{"ha":790,"x_min":94,"x_max":743,"o":"m 742 708 q 731 756 743 732 q 700 790 718 781 q 646 769 671 769 q 597 836 597 769 l 597 1185 q 542 1192 569 1193 q 489 1185 515 1192 l 489 1142 q 346 1199 438 1199 q 218 1162 275 1199 q 128 1062 161 1125 q 94 919 94 999 q 124 788 94 846 q 208 698 154 731 q 329 665 261 665 q 508 747 440 665 q 633 665 543 665 q 742 708 703 665 m 206 919 q 249 1044 206 994 q 360 1093 293 1093 q 433 1076 400 1093 q 489 1035 467 1058 l 489 921 q 449 813 489 854 q 344 771 410 771 q 243 811 281 771 q 206 919 206 851 m 126 561 q 126 464 106 511 l 708 464 q 708 561 729 515 l 126 561 "},"º":{"ha":711,"x_min":94,"x_max":617,"o":"m 357 665 q 490 700 432 665 q 583 794 549 735 q 617 931 617 854 q 583 1066 617 1007 q 490 1159 549 1125 q 357 1193 432 1193 q 223 1159 282 1193 q 129 1066 164 1125 q 94 931 94 1007 q 128 794 94 854 q 222 700 163 735 q 357 665 282 665 m 356 771 q 247 815 288 771 q 206 929 206 858 q 247 1043 206 999 q 357 1088 289 1088 q 465 1044 424 1088 q 506 931 506 1000 q 465 815 506 858 q 356 771 424 771 m 121 561 q 121 464 101 511 l 590 464 q 590 561 610 515 l 121 561 "}," ":{"ha":421,"x_min":0,"x_max":0,"o":""}," ":{"ha":421,"x_min":0,"x_max":0,"o":""},"-":{"ha":658,"x_min":119,"x_max":536,"o":"m 131 333 l 525 333 q 536 399 536 361 q 525 463 536 438 l 131 463 q 119 399 119 438 q 131 333 119 361 "},"–":{"ha":494,"x_min":-7,"x_max":501,"o":"m 0 347 l 494 347 q 501 403 500 371 q 494 458 501 436 l 0 458 q -6 403 -7 429 q 0 347 -6 378 "},"—":{"ha":988,"x_min":-7,"x_max":994,"o":"m 0 347 l 988 347 q 994 403 993 371 q 988 458 994 436 l 0 458 q -6 403 -7 429 q 0 347 -6 378 "},"_":{"ha":988,"x_min":-7,"x_max":994,"o":"m 0 -111 l 988 -111 q 994 -55 993 -87 q 988 0 994 -22 l 0 0 q -6 -55 -7 -29 q 0 -111 -6 -81 "},"‐":{"ha":658,"x_min":119,"x_max":536,"o":"m 131 333 l 525 333 q 536 399 536 361 q 525 463 536 438 l 131 463 q 119 399 119 438 q 131 333 119 361 "},"(":{"ha":635,"x_min":97,"x_max":607,"o":"m 533 -367 q 584 -335 563 -360 q 607 -281 606 -310 q 322 61 414 -131 q 229 501 229 253 q 322 942 229 750 q 607 1283 414 1133 q 578 1342 600 1317 q 533 1369 557 1368 q 299 1149 396 1282 q 149 852 201 1017 q 97 501 97 688 q 150 147 97 314 q 301 -151 203 -19 q 533 -367 399 -283 "},")":{"ha":635,"x_min":28,"x_max":538,"o":"m 101 -367 q 335 -151 238 -283 q 485 147 432 -19 q 538 501 538 314 q 486 852 538 688 q 337 1149 435 1017 q 101 1369 239 1282 q 57 1342 79 1368 q 28 1283 35 1317 q 313 942 221 1133 q 406 501 406 750 q 313 61 406 253 q 28 -281 221 -131 q 51 -335 29 -310 q 101 -367 72 -360 "},"{":{"ha":657,"x_min":68,"x_max":631,"o":"m 550 -360 q 622 -351 588 -360 q 628 -293 631 -328 q 615 -236 626 -258 q 583 -240 601 -237 q 550 -242 565 -242 q 428 -193 465 -242 q 392 -18 392 -144 l 392 267 q 371 409 392 347 q 304 507 350 471 q 372 597 353 539 q 392 738 392 656 l 392 1022 q 428 1198 392 1150 q 550 1246 465 1246 q 583 1244 565 1246 q 615 1240 601 1243 q 628 1298 626 1264 q 622 1356 631 1332 q 550 1364 588 1364 q 340 1288 407 1364 q 274 1056 274 1211 l 274 771 q 242 607 274 653 q 129 561 211 561 l 82 561 q 69 502 68 538 q 82 443 71 467 l 129 443 q 242 398 211 443 q 274 233 274 353 l 274 -51 q 340 -283 274 -207 q 550 -360 407 -360 "},"}":{"ha":657,"x_min":26,"x_max":589,"o":"m 107 -360 q 317 -283 250 -360 q 383 -51 383 -207 l 383 233 q 415 398 383 353 q 528 443 446 443 l 575 443 q 588 502 586 467 q 575 561 589 538 l 528 561 q 415 607 446 561 q 383 771 383 653 l 383 1056 q 317 1288 383 1211 q 107 1364 250 1364 q 35 1356 71 1364 q 29 1298 26 1332 q 42 1240 32 1264 q 74 1244 57 1243 q 107 1246 92 1246 q 229 1198 193 1246 q 265 1022 265 1150 l 265 738 q 285 597 265 656 q 353 507 304 539 q 286 409 307 471 q 265 267 265 347 l 265 -18 q 229 -193 265 -144 q 107 -242 193 -242 q 74 -240 92 -242 q 42 -236 57 -237 q 29 -293 32 -258 q 35 -351 26 -328 q 107 -360 71 -360 "},"[":{"ha":614,"x_min":153,"x_max":599,"o":"m 153 -357 l 578 -357 q 578 -239 599 -296 l 278 -239 l 278 1232 l 578 1232 q 588 1289 588 1256 q 578 1350 588 1322 l 153 1350 l 153 -357 "},"]":{"ha":614,"x_min":15,"x_max":461,"o":"m 461 -357 l 461 1350 l 36 1350 q 26 1289 26 1322 q 36 1232 26 1256 l 336 1232 l 336 -239 l 36 -239 q 36 -357 15 -296 l 461 -357 "},"‚":{"ha":351,"x_min":69,"x_max":282,"o":"m 144 -312 q 249 -185 215 -254 q 282 -43 282 -115 q 260 77 282 18 q 194 175 238 136 q 128 142 161 167 q 79 92 94 118 q 131 26 104 67 q 158 -64 158 -14 q 136 -149 158 -107 q 69 -240 114 -190 q 101 -283 81 -264 q 144 -312 122 -301 "},"„":{"ha":632,"x_min":69,"x_max":563,"o":"m 144 -312 q 249 -185 215 -254 q 282 -43 282 -115 q 260 77 282 18 q 194 175 238 136 q 128 142 161 167 q 79 92 94 118 q 131 26 104 67 q 158 -64 158 -14 q 136 -149 158 -107 q 69 -240 114 -190 q 101 -283 81 -264 q 144 -312 122 -301 m 425 -312 q 529 -185 496 -254 q 563 -43 563 -115 q 540 77 563 18 q 475 175 518 136 q 408 142 442 167 q 360 92 375 118 q 412 26 385 67 q 439 -64 439 -14 q 417 -149 439 -107 q 350 -240 394 -190 q 382 -283 361 -264 q 425 -312 403 -301 "},"“":{"ha":632,"x_min":69,"x_max":563,"o":"m 488 1246 q 383 1119 417 1188 q 350 976 350 1050 q 372 857 350 915 q 438 758 394 799 q 505 791 471 767 q 553 842 539 815 q 501 907 528 867 q 474 997 474 947 q 497 1083 474 1042 q 563 1174 519 1124 q 531 1217 553 1197 q 488 1246 510 1236 m 207 1246 q 103 1119 136 1188 q 69 976 69 1050 q 92 857 69 915 q 157 758 114 799 q 224 791 190 767 q 272 842 258 815 q 220 907 247 867 q 193 997 193 947 q 216 1083 193 1042 q 282 1174 239 1124 q 251 1217 272 1197 q 207 1246 229 1236 "},"”":{"ha":632,"x_min":69,"x_max":563,"o":"m 144 758 q 249 886 215 817 q 282 1028 282 956 q 260 1148 282 1089 q 194 1246 238 1207 q 128 1213 161 1238 q 79 1163 94 1189 q 131 1097 104 1138 q 158 1007 158 1057 q 136 922 158 964 q 69 831 114 881 q 101 788 81 807 q 144 758 122 769 m 425 758 q 529 886 496 817 q 563 1028 563 956 q 540 1148 563 1089 q 475 1246 518 1207 q 408 1213 442 1238 q 360 1163 375 1189 q 412 1097 385 1138 q 439 1007 439 1057 q 417 922 439 964 q 350 831 394 881 q 382 788 361 807 q 425 758 403 769 "},"‘":{"ha":351,"x_min":69,"x_max":282,"o":"m 207 1246 q 103 1119 136 1188 q 69 976 69 1050 q 92 857 69 915 q 157 758 114 799 q 224 791 190 767 q 272 842 258 815 q 220 907 247 867 q 193 997 193 947 q 216 1083 193 1042 q 282 1174 239 1124 q 251 1217 272 1197 q 207 1246 229 1236 "},"’":{"ha":351,"x_min":69,"x_max":282,"o":"m 144 758 q 249 886 215 817 q 282 1028 282 956 q 260 1148 282 1089 q 194 1246 238 1207 q 128 1213 161 1238 q 79 1163 94 1189 q 131 1097 104 1138 q 158 1007 158 1057 q 136 922 158 964 q 69 831 114 881 q 101 788 81 807 q 144 758 122 769 "},"«":{"ha":713,"x_min":32,"x_max":650,"o":"m 274 24 q 335 53 310 33 q 369 103 360 72 l 190 325 l 363 549 q 320 597 344 576 q 264 626 296 617 l 32 325 l 274 24 m 554 24 q 615 53 590 33 q 650 103 640 72 l 471 325 l 643 549 q 601 597 625 576 q 544 626 576 617 l 313 325 l 554 24 "},"»":{"ha":713,"x_min":63,"x_max":681,"o":"m 439 24 l 681 325 l 449 626 q 394 597 418 617 q 350 549 369 576 l 522 325 l 343 103 q 379 53 354 72 q 439 24 404 33 m 158 24 l 400 325 l 168 626 q 113 597 138 617 q 69 549 89 576 l 242 325 l 63 103 q 99 53 74 72 q 158 24 124 33 "},"‹":{"ha":432,"x_min":32,"x_max":369,"o":"m 274 24 q 335 53 310 33 q 369 103 360 72 l 190 325 l 363 549 q 320 597 344 576 q 264 626 296 617 l 32 325 l 274 24 "},"›":{"ha":432,"x_min":63,"x_max":400,"o":"m 158 24 l 400 325 l 168 626 q 113 597 138 617 q 69 549 89 576 l 242 325 l 63 103 q 99 53 74 72 q 158 24 124 33 "},"\"":{"ha":690,"x_min":139,"x_max":551,"o":"m 428 813 q 485 806 458 806 q 511 808 499 806 q 538 813 524 810 l 551 1211 q 482 1221 518 1221 q 444 1218 463 1221 q 414 1211 426 1215 l 428 813 m 153 813 q 210 806 183 806 q 236 808 224 806 q 263 813 249 810 l 276 1211 q 207 1221 243 1221 q 169 1218 188 1221 q 139 1211 151 1215 l 153 813 "},"'":{"ha":415,"x_min":139,"x_max":276,"o":"m 153 813 q 210 806 183 806 q 236 808 224 806 q 263 813 249 810 l 276 1211 q 207 1221 243 1221 q 169 1218 188 1221 q 139 1211 151 1215 l 153 813 "},".":{"ha":404,"x_min":100,"x_max":290,"o":"m 194 -19 q 262 9 233 -19 q 290 76 290 38 q 262 143 290 115 q 194 171 233 171 q 128 143 156 171 q 100 76 100 115 q 128 9 100 38 q 194 -19 156 -19 "},",":{"ha":419,"x_min":44,"x_max":286,"o":"m 107 -279 q 241 -154 196 -235 q 286 17 286 -74 q 276 106 286 67 q 250 175 265 146 q 181 163 217 175 q 125 129 144 150 q 158 6 158 61 q 126 -113 158 -62 q 44 -196 93 -164 q 67 -244 47 -219 q 107 -279 88 -268 "},":":{"ha":406,"x_min":100,"x_max":292,"o":"m 196 -19 q 263 9 235 -19 q 292 76 292 38 q 263 143 292 115 q 196 171 235 171 q 129 143 157 171 q 101 76 101 115 q 129 9 101 38 q 196 -19 157 -19 m 194 371 q 262 399 233 371 q 290 467 290 428 q 262 533 290 506 q 194 561 233 561 q 128 533 156 561 q 100 467 100 506 q 128 399 100 428 q 194 371 156 371 "},";":{"ha":400,"x_min":44,"x_max":286,"o":"m 107 -279 q 241 -154 196 -235 q 286 17 286 -74 q 276 106 286 67 q 250 175 265 146 q 181 163 217 175 q 125 129 144 150 q 158 6 158 61 q 126 -113 158 -62 q 44 -196 93 -164 q 67 -244 47 -219 q 107 -279 88 -268 m 186 378 q 253 406 225 378 q 282 474 282 435 q 253 540 282 513 q 186 568 225 568 q 119 540 147 568 q 92 474 92 513 q 119 406 92 435 q 186 378 147 378 "},"…":{"ha":1157,"x_min":100,"x_max":1043,"o":"m 194 -19 q 262 9 233 -19 q 290 76 290 38 q 262 143 290 115 q 194 171 233 171 q 128 143 156 171 q 100 76 100 115 q 128 9 100 38 q 194 -19 156 -19 m 571 -19 q 638 9 610 -19 q 667 76 667 38 q 638 143 667 115 q 571 171 610 171 q 504 143 532 171 q 476 76 476 115 q 504 9 476 38 q 571 -19 532 -19 m 947 -19 q 1015 9 986 -19 q 1043 76 1043 38 q 1015 143 1043 115 q 947 171 986 171 q 881 143 908 171 q 853 76 853 115 q 881 9 853 38 q 947 -19 908 -19 "},"!":{"ha":471,"x_min":143,"x_max":333,"o":"m 242 331 q 273 332 257 331 q 306 336 289 333 l 306 989 q 273 994 289 992 q 242 996 257 996 q 208 994 225 996 q 175 989 192 992 l 175 336 q 208 332 192 333 q 242 331 225 331 m 238 -19 q 305 9 276 -19 q 333 76 333 38 q 305 143 333 115 q 238 171 276 171 q 171 143 199 171 q 143 76 143 115 q 171 9 143 38 q 238 -19 199 -19 "},"¡":{"ha":471,"x_min":143,"x_max":333,"o":"m 238 672 q 171 644 199 672 q 143 576 143 617 q 171 510 143 538 q 238 482 199 482 q 305 510 276 482 q 333 576 333 538 q 305 644 333 617 q 238 672 276 672 m 242 322 q 208 321 225 322 q 175 317 192 319 l 175 -336 q 208 -341 192 -339 q 242 -343 225 -343 q 273 -341 257 -343 q 306 -336 289 -339 l 306 317 q 273 321 289 319 q 242 322 257 322 "},"?":{"ha":696,"x_min":56,"x_max":626,"o":"m 329 329 q 394 338 364 329 l 394 388 q 406 447 394 429 q 447 483 417 465 l 479 504 q 556 560 522 531 q 608 634 589 590 q 626 743 626 678 q 598 865 626 804 q 508 965 569 925 q 343 1006 446 1006 q 193 974 254 1006 q 98 895 132 942 q 56 803 64 849 q 176 767 115 768 q 235 849 189 817 q 342 882 281 882 q 456 840 415 882 q 496 735 496 799 q 477 665 496 696 q 410 603 458 633 l 371 579 q 295 511 326 553 q 264 394 264 469 l 264 338 q 329 329 297 329 m 326 -19 q 394 9 365 -19 q 422 76 422 38 q 394 143 422 115 q 326 171 365 171 q 260 143 288 171 q 232 76 232 115 q 260 9 232 38 q 326 -19 288 -19 "},"¿":{"ha":649,"x_min":60,"x_max":631,"o":"m 360 672 q 292 644 321 672 q 264 576 264 617 q 292 510 264 538 q 360 482 321 482 q 426 510 399 482 q 454 576 454 538 q 426 644 454 617 q 360 672 399 672 m 357 324 q 292 315 324 324 l 292 265 q 281 206 292 224 q 239 169 269 188 l 207 149 q 131 93 164 124 q 78 19 97 63 q 60 -90 60 -24 q 88 -211 60 -150 q 179 -312 117 -272 q 343 -353 242 -353 q 493 -321 432 -353 q 588 -242 554 -289 q 631 -150 622 -194 q 510 -114 571 -115 q 451 -197 497 -164 q 344 -229 406 -229 q 231 -187 271 -229 q 190 -82 190 -146 q 210 -11 190 -42 q 276 50 229 19 l 315 74 q 391 142 360 100 q 422 258 422 183 l 422 315 q 357 324 389 324 "},"·":{"ha":404,"x_min":100,"x_max":290,"o":"m 194 326 q 262 355 233 326 q 290 422 290 383 q 262 489 290 461 q 194 517 233 517 q 128 489 156 517 q 100 422 100 461 q 128 355 100 383 q 194 326 156 326 "},"•":{"ha":483,"x_min":100,"x_max":369,"o":"m 233 363 q 328 401 288 363 q 369 496 369 440 q 351 564 369 533 q 301 613 332 594 q 233 632 269 632 q 139 592 178 632 q 100 496 100 551 q 139 401 100 440 q 233 363 178 363 "},"*":{"ha":643,"x_min":69,"x_max":574,"o":"m 321 481 q 344 483 332 481 q 369 492 357 486 l 369 672 l 531 583 q 562 621 550 600 q 574 668 574 642 l 419 753 l 574 839 q 562 884 572 863 q 528 921 551 906 l 369 833 l 369 1013 q 345 1017 357 1015 q 322 1018 333 1018 q 299 1017 311 1018 q 275 1013 286 1015 l 275 833 l 117 921 q 83 885 94 907 q 69 839 72 863 l 225 753 l 69 668 q 84 620 72 642 q 114 583 96 599 l 275 672 l 275 492 q 299 483 286 486 q 321 481 311 481 "},"#":{"ha":1271,"x_min":83,"x_max":1189,"o":"m 90 218 l 254 218 l 200 22 q 251 -7 215 3 q 326 -11 288 -17 l 390 218 l 722 218 l 668 21 q 725 -8 688 1 q 794 -12 763 -18 l 857 218 l 1078 218 q 1084 274 1083 242 q 1078 329 1085 307 l 888 329 l 969 626 l 1182 626 q 1188 683 1188 650 q 1182 738 1189 715 l 1000 738 l 1067 982 q 1011 1010 1049 1000 q 943 1014 974 1019 l 867 738 l 533 738 l 601 983 q 546 1011 583 1001 q 478 1015 508 1021 l 400 738 l 194 738 q 188 683 188 708 q 194 626 189 657 l 369 626 l 286 329 l 90 329 q 84 274 83 300 q 90 218 85 249 m 421 329 l 503 626 l 836 626 l 753 329 l 421 329 "},"/":{"ha":600,"x_min":42,"x_max":558,"o":"m 153 -14 l 558 978 q 510 1007 544 994 q 449 1017 476 1019 l 42 28 q 89 -3 63 8 q 153 -14 115 -14 "},"\\":{"ha":582,"x_min":24,"x_max":540,"o":"m 540 28 l 133 1017 q 73 1007 107 1019 q 24 978 39 994 l 429 -14 q 493 -3 467 -14 q 540 28 519 8 "},"¢":{"ha":829,"x_min":83,"x_max":760,"o":"m 444 -71 q 499 -61 474 -71 l 499 117 q 651 152 582 122 q 760 232 719 182 q 729 283 751 258 q 678 318 707 308 q 499 238 614 246 l 499 788 q 661 715 596 779 q 715 754 693 726 q 739 808 736 782 q 634 876 697 850 q 499 907 571 903 l 499 1086 q 444 1096 478 1096 q 389 1086 418 1096 l 389 901 q 166 774 249 878 q 83 513 83 669 q 166 252 83 356 q 389 124 249 149 l 389 -61 q 444 -71 414 -71 m 206 514 q 254 688 206 619 q 389 779 303 757 l 389 246 q 253 338 301 268 q 206 514 206 408 "},"$":{"ha":819,"x_min":79,"x_max":746,"o":"m 413 -196 q 467 -186 442 -196 l 467 -15 q 611 33 549 -6 q 710 133 674 71 q 746 275 746 194 q 690 444 746 375 q 536 543 633 513 l 467 565 l 467 896 q 638 781 581 879 q 699 813 671 792 q 740 857 728 835 q 635 967 708 924 q 467 1019 561 1011 l 467 1225 q 413 1235 446 1235 q 357 1225 386 1235 l 357 1015 q 222 965 281 1003 q 131 868 164 926 q 99 739 99 810 q 154 581 99 646 q 307 483 210 515 l 357 467 l 357 110 q 193 256 233 133 q 128 242 163 258 q 79 200 94 226 q 174 54 104 111 q 357 -15 244 -3 l 357 -186 q 413 -196 382 -196 m 229 747 q 264 839 229 801 q 357 892 299 876 l 357 600 q 229 747 229 642 m 492 424 q 583 368 551 406 q 615 274 615 331 q 575 164 615 207 q 467 108 535 121 l 467 432 l 492 424 "},"₫":{"ha":879,"x_min":119,"x_max":839,"o":"m 399 219 q 515 244 461 219 q 608 321 569 269 l 608 217 q 724 217 672 196 l 724 975 l 828 975 q 839 1031 839 997 q 828 1086 839 1064 l 724 1086 l 724 1222 q 661 1232 694 1232 q 626 1229 643 1232 q 597 1222 610 1226 l 597 1086 l 404 1086 q 394 1031 394 1064 q 404 975 394 997 l 597 975 l 597 789 q 517 840 564 822 q 415 858 469 858 q 261 815 328 858 q 157 696 194 771 q 119 529 119 621 q 155 370 119 440 q 253 260 190 300 q 399 219 317 219 m 249 528 q 299 678 249 617 q 436 739 349 739 q 529 715 488 739 q 597 650 571 692 l 597 554 q 572 440 597 489 q 503 365 546 392 q 410 339 461 339 q 293 391 338 339 q 249 528 249 443 m 158 0 l 790 0 q 801 56 801 22 q 790 111 801 89 l 158 111 q 149 56 149 89 q 158 0 149 22 "},"€":{"ha":1119,"x_min":69,"x_max":1061,"o":"m 79 324 l 249 324 q 413 72 293 164 q 708 -19 532 -19 q 914 19 819 -19 q 1061 122 1008 57 q 1025 172 1050 146 q 978 208 1000 199 q 861 132 932 160 q 708 104 790 104 q 508 162 590 104 q 388 324 425 219 l 742 324 q 751 381 751 347 q 742 436 751 414 l 363 436 q 358 503 358 468 q 361 563 358 533 l 742 563 q 751 619 751 586 q 742 675 751 653 l 385 675 q 505 840 422 781 q 706 899 588 899 q 958 801 857 899 q 1006 845 983 815 q 1035 900 1029 875 q 893 990 979 957 q 700 1022 807 1022 q 408 928 525 1022 q 247 675 290 835 l 79 675 q 69 619 69 653 q 79 563 69 586 l 229 563 q 226 501 226 533 q 229 436 226 468 l 79 436 q 69 381 69 414 q 79 324 69 347 "},"₺":{"ha":942,"x_min":58,"x_max":847,"o":"m 222 0 l 294 0 q 690 138 546 0 q 847 526 833 275 q 731 526 793 546 q 617 229 717 336 q 351 119 517 122 l 351 519 l 619 622 q 613 683 622 657 q 579 726 603 710 l 351 639 l 351 706 l 619 808 q 613 869 622 843 q 579 913 603 896 l 351 825 l 351 1022 q 222 1022 288 1043 l 222 776 l 63 715 q 70 659 61 685 q 103 611 79 633 l 222 657 l 222 589 l 63 526 q 104 424 58 461 l 222 469 l 222 0 "},"£":{"ha":875,"x_min":83,"x_max":813,"o":"m 93 397 l 229 397 q 232 363 232 381 q 194 222 232 294 q 96 101 157 149 q 135 -1 99 35 q 218 10 168 6 q 313 15 268 15 q 372 12 344 15 q 457 -3 400 8 q 536 -15 496 -10 q 607 -19 576 -19 q 722 -4 665 -19 q 813 35 779 11 q 772 142 813 101 q 585 101 681 101 q 544 103 564 101 q 475 115 525 106 q 401 127 428 124 q 350 131 374 131 q 278 124 317 131 q 360 361 360 238 q 357 397 360 379 l 563 397 q 572 454 572 421 q 563 510 572 488 l 326 510 q 308 556 318 531 q 274 654 283 619 q 265 722 265 689 q 318 844 265 799 q 458 890 371 890 q 599 837 549 890 q 650 688 649 783 q 778 706 718 681 q 732 865 774 796 q 621 974 690 935 q 460 1014 551 1014 q 293 975 367 1014 q 177 869 219 936 q 135 717 135 803 q 139 667 135 690 q 153 613 143 643 q 183 535 164 582 q 193 510 189 521 l 93 510 q 83 454 83 488 q 93 397 83 421 "},"¥":{"ha":913,"x_min":36,"x_max":876,"o":"m 458 -10 q 522 0 493 -10 l 522 382 l 876 954 q 833 999 867 981 q 768 1015 800 1017 l 458 518 l 146 1017 q 85 999 118 1017 q 36 953 51 982 l 393 383 l 393 0 q 458 -10 426 -10 m 125 383 l 788 383 q 797 440 797 407 q 788 496 797 474 l 125 496 q 115 440 115 474 q 125 383 115 407 m 125 172 l 788 172 q 797 229 797 196 q 788 285 797 263 l 125 285 q 115 229 115 263 q 125 172 115 196 "},"+":{"ha":972,"x_min":146,"x_max":828,"o":"m 426 186 q 486 176 450 176 q 544 186 522 176 l 544 461 l 818 461 q 828 518 828 485 q 818 574 828 551 l 544 574 l 544 849 q 486 858 522 858 q 426 849 450 858 l 426 574 l 156 574 q 146 518 146 551 q 156 461 146 485 l 426 461 l 426 186 "},"−":{"ha":972,"x_min":146,"x_max":828,"o":"m 156 461 l 818 461 q 828 518 828 485 q 818 574 828 551 l 156 574 q 146 518 146 551 q 156 461 146 485 "},"×":{"ha":972,"x_min":211,"x_max":763,"o":"m 211 315 q 246 266 221 292 q 294 232 271 240 l 489 426 l 682 232 q 729 266 706 242 q 763 313 753 290 l 568 506 l 763 700 q 728 748 753 722 q 679 783 703 774 l 485 589 l 293 781 q 247 747 271 771 q 214 701 224 724 l 406 510 l 211 315 "},"÷":{"ha":972,"x_min":146,"x_max":828,"o":"m 156 461 l 818 461 q 828 518 828 485 q 818 574 828 551 l 156 574 q 146 518 146 551 q 156 461 146 485 m 486 167 q 553 195 525 167 q 582 263 582 224 q 553 329 582 301 q 486 357 525 357 q 419 329 447 357 q 392 263 392 301 q 419 195 392 224 q 486 167 447 167 m 486 678 q 553 706 525 678 q 582 774 582 735 q 553 840 582 813 q 486 868 525 868 q 419 840 447 868 q 392 774 392 813 q 419 706 392 735 q 486 678 447 678 "},"=":{"ha":972,"x_min":146,"x_max":828,"o":"m 156 629 l 818 629 q 828 686 828 653 q 818 742 828 719 l 156 742 q 146 686 146 719 q 156 629 146 653 m 156 293 l 818 293 q 828 350 828 317 q 818 406 828 383 l 156 406 q 146 350 146 383 q 156 293 146 317 "},"≠":{"ha":972,"x_min":146,"x_max":828,"o":"m 260 122 q 306 87 279 100 q 371 74 332 74 l 460 293 l 818 293 q 828 350 828 317 q 818 406 828 383 l 506 406 l 597 629 l 818 629 q 828 686 828 653 q 818 742 828 719 l 643 742 l 714 915 q 666 949 700 935 q 604 961 632 964 l 514 742 l 156 742 q 146 686 146 719 q 156 629 146 653 l 468 629 l 376 406 l 156 406 q 146 350 146 383 q 156 293 146 317 l 331 293 l 260 122 "},">":{"ha":972,"x_min":229,"x_max":768,"o":"m 288 171 l 758 476 q 758 560 768 517 l 292 858 q 246 822 263 846 q 229 761 229 797 l 611 518 l 229 269 q 246 206 229 231 q 288 171 263 182 "},"<":{"ha":972,"x_min":204,"x_max":743,"o":"m 685 171 q 726 206 710 182 q 743 269 743 231 l 361 518 l 743 761 q 726 822 743 797 q 681 858 710 846 l 214 560 q 214 476 204 517 l 685 171 "},"±":{"ha":972,"x_min":146,"x_max":828,"o":"m 426 394 q 486 385 450 385 q 544 394 522 385 l 544 579 l 818 579 q 828 636 828 603 q 818 692 828 669 l 544 692 l 544 849 q 486 858 522 858 q 426 849 450 858 l 426 692 l 156 692 q 146 636 146 669 q 156 579 146 603 l 426 579 l 426 394 m 156 186 l 818 186 q 828 243 828 210 q 818 299 828 276 l 156 299 q 146 243 146 276 q 156 186 146 210 "},"≈":{"ha":972,"x_min":135,"x_max":838,"o":"m 649 222 q 775 278 726 222 q 838 418 824 335 q 725 450 794 461 q 636 342 710 342 q 583 354 607 342 q 514 394 558 367 q 413 450 451 433 q 326 467 374 467 q 198 413 254 467 q 135 274 142 360 q 246 238 171 231 q 275 321 253 294 q 331 347 297 347 q 364 342 349 347 q 404 324 379 338 q 476 282 429 310 q 561 239 521 256 q 649 222 601 222 m 649 556 q 775 612 726 556 q 838 751 824 668 q 725 783 794 794 q 636 675 710 675 q 583 688 607 675 q 514 728 558 700 q 413 783 451 767 q 326 800 374 800 q 198 747 254 800 q 135 607 142 693 q 246 571 171 564 q 275 654 253 628 q 331 681 297 681 q 364 676 349 681 q 404 657 379 671 q 476 615 429 643 q 561 572 521 589 q 649 556 601 556 "},"~":{"ha":972,"x_min":135,"x_max":838,"o":"m 649 389 q 775 445 726 389 q 838 585 824 501 q 725 617 794 628 q 636 508 710 508 q 583 521 607 508 q 514 561 558 533 q 413 617 451 600 q 326 633 374 633 q 198 580 254 633 q 135 440 142 526 q 246 404 171 397 q 275 488 253 461 q 331 514 297 514 q 364 509 349 514 q 404 490 379 504 q 476 449 429 476 q 561 406 521 422 q 649 389 601 389 "},"¬":{"ha":972,"x_min":146,"x_max":847,"o":"m 156 461 l 729 461 l 729 233 q 847 233 793 208 l 847 574 l 156 574 q 146 518 146 551 q 156 461 146 485 "},"^":{"ha":972,"x_min":196,"x_max":776,"o":"m 293 681 l 486 983 l 678 685 q 741 701 717 685 q 776 743 765 718 l 528 1131 q 444 1131 488 1140 l 196 743 q 233 697 208 714 q 293 681 257 681 "},"%":{"ha":1635,"x_min":94,"x_max":1540,"o":"m 358 494 q 492 529 433 494 q 585 624 551 564 q 619 758 619 683 q 585 894 619 835 q 492 988 551 954 q 358 1022 433 1022 q 224 988 283 1022 q 129 894 164 953 q 94 758 94 835 q 129 624 94 683 q 224 529 164 564 q 358 494 283 494 m 358 600 q 249 644 292 600 q 206 758 206 689 q 249 872 206 828 q 358 917 292 917 q 466 872 424 917 q 508 758 508 828 q 466 645 508 690 q 358 600 424 600 m 669 -14 l 1075 978 q 1027 1007 1061 994 q 965 1017 993 1019 l 558 28 q 606 -3 579 8 q 669 -14 632 -14 m 1279 -19 q 1413 15 1354 -19 q 1506 110 1472 50 q 1540 244 1540 169 q 1506 381 1540 321 q 1413 474 1472 440 q 1279 508 1354 508 q 1144 474 1204 508 q 1050 380 1085 439 q 1015 244 1015 321 q 1050 110 1015 169 q 1144 15 1085 50 q 1279 -19 1204 -19 m 1279 86 q 1169 131 1213 86 q 1126 244 1126 175 q 1169 358 1126 314 q 1279 403 1213 403 q 1387 358 1344 403 q 1429 244 1429 314 q 1387 131 1429 176 q 1279 86 1344 86 "},"‰":{"ha":2049,"x_min":94,"x_max":1954,"o":"m 358 494 q 492 529 433 494 q 585 624 551 564 q 619 758 619 683 q 585 894 619 835 q 492 988 551 954 q 358 1022 433 1022 q 224 988 283 1022 q 129 894 164 953 q 94 758 94 835 q 129 624 94 683 q 224 529 164 564 q 358 494 283 494 m 669 -14 l 1075 978 q 1027 1007 1061 994 q 965 1017 993 1019 l 558 28 q 606 -3 579 8 q 669 -14 632 -14 m 358 600 q 249 644 292 600 q 206 758 206 689 q 249 872 206 828 q 358 917 292 917 q 466 872 424 917 q 508 758 508 828 q 466 645 508 690 q 358 600 424 600 m 1279 -19 q 1397 6 1343 -19 q 1486 78 1451 32 q 1576 6 1522 32 q 1693 -19 1629 -19 q 1827 15 1768 -19 q 1920 109 1886 50 q 1954 244 1954 168 q 1920 381 1954 321 q 1827 474 1886 440 q 1693 508 1768 508 q 1574 482 1628 508 q 1485 411 1519 456 q 1396 483 1449 457 q 1279 508 1343 508 q 1144 474 1204 508 q 1050 380 1085 439 q 1015 244 1015 321 q 1050 110 1015 169 q 1144 15 1085 50 q 1279 -19 1204 -19 m 1279 86 q 1169 131 1213 86 q 1126 244 1126 175 q 1169 358 1126 314 q 1279 403 1213 403 q 1387 358 1344 403 q 1429 244 1429 314 q 1387 131 1429 176 q 1279 86 1344 86 m 1693 86 q 1583 131 1626 86 q 1540 244 1540 175 q 1583 358 1540 314 q 1693 403 1626 403 q 1801 358 1758 403 q 1843 244 1843 314 q 1801 131 1843 176 q 1693 86 1758 86 "},"↑":{"ha":972,"x_min":242,"x_max":731,"o":"m 547 119 q 546 337 547 243 q 542 508 544 431 q 535 658 540 586 l 700 597 q 721 619 711 604 q 729 651 731 635 l 517 889 q 488 896 507 896 q 456 889 468 896 l 243 651 q 251 619 242 635 q 272 597 261 604 l 438 658 q 431 508 433 586 q 426 337 428 431 q 425 119 425 243 q 487 108 449 108 q 547 119 525 108 "},"↗":{"ha":972,"x_min":182,"x_max":790,"o":"m 268 197 q 422 352 356 285 q 540 476 488 419 q 640 588 592 532 l 714 426 q 744 428 726 424 q 774 444 763 432 l 790 763 q 774 788 788 775 q 747 806 761 801 l 429 789 q 413 760 417 778 q 411 729 408 742 l 572 656 q 460 554 517 607 q 337 436 404 501 q 182 283 269 371 q 217 232 190 258 q 268 197 244 206 "},"→":{"ha":972,"x_min":93,"x_max":881,"o":"m 104 564 q 93 503 93 542 q 104 442 93 465 q 322 443 228 442 q 493 447 415 444 q 643 454 571 450 l 582 289 q 604 268 589 278 q 636 260 619 258 l 874 472 q 881 504 881 485 q 874 533 881 524 l 636 746 q 604 738 619 747 q 582 717 589 728 l 643 551 q 493 559 571 557 q 322 563 415 561 q 104 564 228 564 "},"↘":{"ha":972,"x_min":182,"x_max":790,"o":"m 411 276 q 413 246 408 264 q 429 217 417 228 l 747 200 q 773 216 760 203 q 790 243 786 229 l 774 561 q 744 578 763 574 q 714 579 726 582 l 640 418 q 539 530 592 474 q 421 653 486 586 q 268 808 356 721 q 217 773 243 800 q 182 722 190 746 q 337 569 269 635 q 460 451 404 503 q 572 350 517 399 l 411 276 "},"↓":{"ha":972,"x_min":242,"x_max":731,"o":"m 272 407 q 251 385 261 401 q 243 353 242 369 l 456 115 q 488 110 468 110 q 517 115 507 110 l 729 353 q 721 385 731 369 q 700 407 711 401 l 535 346 q 542 496 540 418 q 546 667 544 574 q 547 885 547 761 q 487 896 525 896 q 425 885 449 896 q 426 667 425 761 q 431 496 428 574 q 438 346 433 418 l 272 407 "},"↙":{"ha":972,"x_min":182,"x_max":790,"o":"m 561 274 l 400 347 q 512 448 456 396 q 635 566 568 500 q 790 719 703 632 q 756 770 782 743 q 704 806 729 797 q 551 651 617 718 q 433 527 486 583 q 332 415 381 471 l 258 576 q 228 575 246 579 q 199 558 210 571 l 182 240 q 199 213 186 226 q 225 197 213 200 l 543 214 q 560 243 556 225 q 561 274 564 261 "},"←":{"ha":972,"x_min":93,"x_max":879,"o":"m 390 289 l 329 454 q 479 447 401 450 q 651 443 557 444 q 868 442 744 442 q 879 503 879 465 q 868 564 879 542 q 651 563 744 564 q 479 559 557 561 q 329 551 401 557 l 390 717 q 369 738 385 728 q 336 746 353 747 l 99 533 q 93 504 93 524 q 99 472 93 485 l 336 260 q 369 268 353 258 q 390 289 385 278 "},"↖":{"ha":972,"x_min":182,"x_max":790,"o":"m 258 428 l 332 589 q 433 477 381 533 q 551 353 486 421 q 704 199 617 286 q 756 234 729 207 q 790 285 782 261 q 635 438 703 372 q 512 556 568 504 q 400 657 456 608 l 561 731 q 560 761 564 743 q 543 790 556 779 l 225 807 q 199 791 213 804 q 182 764 186 778 l 199 446 q 228 429 210 433 q 258 428 246 425 "},"⇔":{"ha":1181,"x_min":60,"x_max":1122,"o":"m 590 607 q 444 606 513 607 q 314 601 375 604 l 357 717 q 335 738 351 728 q 303 746 319 747 l 65 533 q 60 504 60 524 q 65 472 60 485 l 303 260 q 335 268 319 258 q 357 289 351 278 l 314 406 q 444 401 375 403 q 590 400 513 400 q 737 401 668 400 q 867 406 806 403 l 824 289 q 846 268 831 278 q 878 260 861 258 l 1115 472 q 1122 504 1122 485 q 1115 533 1122 524 l 878 746 q 846 738 861 747 q 824 717 831 728 l 867 601 q 737 606 806 604 q 590 607 668 607 m 278 503 l 293 544 q 431 540 357 542 q 590 539 506 539 q 749 540 675 539 q 888 544 824 542 l 903 503 l 888 461 q 749 467 824 465 q 590 468 675 468 q 431 467 506 468 q 293 461 357 465 l 278 503 "},"○":{"ha":861,"x_min":83,"x_max":778,"o":"m 432 -19 q 608 26 531 -19 q 732 151 686 72 q 778 329 778 231 q 732 506 778 428 q 608 629 686 583 q 432 675 531 675 q 254 629 333 675 q 129 506 175 583 q 83 329 83 428 q 129 151 83 231 q 254 26 175 72 q 432 -19 333 -19 m 431 85 q 310 117 364 85 q 226 203 257 149 q 194 328 194 258 q 226 452 194 397 q 310 539 257 507 q 431 571 364 571 q 551 539 499 571 q 635 452 604 507 q 667 328 667 397 q 635 204 667 260 q 551 117 604 149 q 431 85 499 85 "},"◯":{"ha":1208,"x_min":83,"x_max":1125,"o":"m 604 -19 q 810 20 715 -19 q 975 131 904 60 q 1085 298 1046 203 q 1125 503 1125 393 q 1085 707 1125 613 q 974 872 1046 801 q 808 983 903 943 q 604 1022 714 1022 q 400 983 494 1022 q 234 872 306 943 q 123 707 163 801 q 83 503 83 613 q 123 298 83 393 q 233 131 163 203 q 399 20 304 60 q 604 -19 494 -19 m 604 92 q 399 146 490 92 q 254 293 307 200 q 201 503 201 386 q 255 712 201 619 q 399 858 308 804 q 604 911 490 911 q 809 858 718 911 q 953 712 900 804 q 1007 503 1007 619 q 954 293 1007 386 q 810 146 901 200 q 604 92 719 92 "},"◌":{"ha":1286,"x_min":139,"x_max":1183,"o":"m 661 890 q 710 910 690 890 q 729 956 729 929 q 710 1002 729 983 q 661 1021 690 1021 q 612 1002 631 1021 q 593 956 593 983 q 612 910 593 929 q 661 890 631 890 m 835 856 q 883 875 864 856 q 903 921 903 894 q 883 967 903 949 q 835 986 864 986 q 785 967 804 986 q 767 921 767 949 q 785 875 767 894 q 835 856 804 856 m 488 856 q 537 875 518 856 q 556 921 556 894 q 537 967 556 949 q 488 986 518 986 q 439 967 458 986 q 419 921 419 949 q 439 875 419 894 q 488 856 458 856 m 982 757 q 1031 776 1011 757 q 1050 822 1050 796 q 1031 869 1050 850 q 982 888 1011 888 q 933 869 951 888 q 914 822 914 850 q 933 776 914 796 q 982 757 951 757 m 340 757 q 390 776 371 757 q 408 822 408 796 q 390 869 408 850 q 340 888 371 888 q 292 869 311 888 q 272 822 272 850 q 292 776 272 796 q 340 757 311 757 m 1081 608 q 1129 628 1110 608 q 1149 674 1149 647 q 1129 720 1149 701 q 1081 739 1110 739 q 1031 720 1050 739 q 1013 674 1013 701 q 1031 628 1013 647 q 1081 608 1050 608 m 242 608 q 291 628 272 608 q 310 674 310 647 q 291 720 310 701 q 242 739 272 739 q 193 720 213 739 q 174 674 174 701 q 193 628 174 647 q 242 608 213 608 m 1115 438 q 1164 457 1144 438 q 1183 503 1183 476 q 1164 549 1183 531 q 1115 568 1144 568 q 1066 549 1085 568 q 1047 503 1047 531 q 1066 457 1047 476 q 1115 438 1085 438 m 207 438 q 256 457 238 438 q 275 503 275 476 q 256 549 275 531 q 207 568 238 568 q 158 549 178 568 q 139 503 139 531 q 158 457 139 476 q 207 438 178 438 m 1081 397 q 1031 378 1050 397 q 1013 332 1013 360 q 1031 286 1013 306 q 1081 267 1050 267 q 1129 286 1110 267 q 1149 332 1149 306 q 1129 378 1149 360 q 1081 397 1110 397 m 242 397 q 193 378 213 397 q 174 332 174 360 q 193 286 174 306 q 242 267 213 267 q 291 286 272 267 q 310 332 310 306 q 291 378 310 360 q 242 397 272 397 m 982 249 q 933 230 951 249 q 914 183 914 211 q 933 138 914 157 q 982 118 951 118 q 1031 138 1011 118 q 1050 183 1050 157 q 1031 230 1050 211 q 982 249 1011 249 m 340 249 q 292 230 311 249 q 272 183 272 211 q 292 138 272 157 q 340 118 311 118 q 390 138 371 118 q 408 183 408 157 q 390 230 408 211 q 340 249 371 249 m 835 150 q 785 131 804 150 q 767 85 767 113 q 785 39 767 58 q 835 19 804 19 q 883 39 864 19 q 903 85 903 58 q 883 131 903 113 q 835 150 864 150 m 488 150 q 439 131 458 150 q 419 85 419 113 q 439 39 419 58 q 488 19 458 19 q 537 39 518 19 q 556 85 556 58 q 537 131 556 113 q 488 150 518 150 m 661 -17 q 710 3 690 -17 q 729 49 729 22 q 710 95 729 76 q 661 114 690 114 q 612 95 631 114 q 593 49 593 76 q 612 3 593 22 q 661 -17 631 -17 "},"✏":{"ha":1389,"x_min":175,"x_max":1214,"o":"m 1214 556 l 1169 790 l 994 965 l 749 1039 l 268 558 l 175 0 l 739 81 l 1214 556 m 1001 668 l 861 808 l 824 918 l 936 881 l 1075 742 l 1101 628 l 1001 668 m 396 547 l 728 879 l 756 801 l 422 468 l 396 547 m 1025 718 q 1028 747 1035 728 q 988 803 1022 767 q 934 844 953 838 q 906 840 915 850 q 902 812 896 831 q 943 757 908 793 q 997 716 979 722 q 1025 718 1015 710 m 468 375 l 810 717 l 899 626 l 557 285 l 468 375 m 643 232 l 979 568 l 1057 539 l 714 204 l 643 232 m 311 240 l 349 453 l 381 358 l 550 188 l 619 161 l 421 132 q 354 168 382 144 q 311 240 326 192 "}}}
